<svg width="80" height="80" viewBox="0 0 80 80" fill="none" xmlns="http://www.w3.org/2000/svg">
<path d="M74.6007 22.0058C78.6875 29.8641 79.9775 38.8796 78.2585 47.5687C76.5396 56.2578 71.914 64.1029 65.143 69.8133C58.3719 75.5236 49.8587 78.759 41.0041 78.9871C32.1496 79.2151 23.4811 76.4223 16.4251 71.068" stroke="#DBDFE1" stroke-width="2" stroke-linecap="round"/>
<path d="M7.59872 61.7062C2.21225 53.6656 0.00775959 43.9096 1.41375 34.3342C2.81973 24.7589 7.73575 16.0483 15.2063 9.89567C22.6768 3.743 32.1681 0.587751 41.8354 1.04321C51.5027 1.49867 60.6553 5.5323 67.5143 12.3601" stroke="#DBDFE1" stroke-width="2" stroke-linecap="round"/>
<g clip-path="url(#clip0_553_10319)">
<path d="M35 38.3333L40 43.3333L53.3333 30" stroke="#E30613" stroke-width="2" stroke-linecap="round" stroke-linejoin="round"/>
<path d="M53.3337 40V50C53.3337 50.8841 52.9825 51.7319 52.3573 52.357C51.7322 52.9821 50.8844 53.3333 50.0003 53.3333H30.0003C29.1163 53.3333 28.2684 52.9821 27.6433 52.357C27.0182 51.7319 26.667 50.8841 26.667 50V30C26.667 29.1159 27.0182 28.2681 27.6433 27.643C28.2684 27.0179 29.1163 26.6667 30.0003 26.6667H45.0003" stroke="#444C50" stroke-width="2" stroke-linecap="round" stroke-linejoin="round"/>
</g>
<defs>
<clipPath id="clip0_553_10319">
<rect width="40" height="40" fill="white" transform="translate(20 20)"/>
</clipPath>
</defs>
</svg>
