<svg width="34" height="34" viewBox="0 0 34 34" fill="none" xmlns="http://www.w3.org/2000/svg">
<g id="Property 1=hover" clip-path="url(#clip0_659_15703)">
<path id="Vector" fill-rule="evenodd" clip-rule="evenodd" d="M34 17C34 26.3888 26.3888 34 17 34C7.61116 34 0 26.3888 0 17C0 7.61116 7.61116 0 17 0C26.3888 0 34 7.61116 34 17ZM11.8484 11.8484C12.3463 11.3505 13.1536 11.3505 13.6515 11.8484L16.9999 15.1969L20.3484 11.8484C20.8463 11.3505 21.6536 11.3505 22.1515 11.8484C22.6494 12.3464 22.6494 13.1536 22.1515 13.6516L18.8031 17L22.1515 20.3484C22.6494 20.8463 22.6494 21.6536 22.1515 22.1515C21.6535 22.6494 20.8463 22.6494 20.3483 22.1515L16.9999 18.8031L13.6515 22.1515C13.1536 22.6494 12.3463 22.6494 11.8484 22.1515C11.3505 21.6536 11.3505 20.8463 11.8484 20.3484L15.1968 17L11.8484 13.6515C11.3504 13.1536 11.3504 12.3463 11.8484 11.8484Z" fill="#1D1D1B"/>
</g>
<defs>
<clipPath id="clip0_659_15703">
<rect width="34" height="34" fill="white"/>
</clipPath>
</defs>
</svg>
