<svg width="126" height="125" viewBox="0 0 126 125" fill="none" xmlns="http://www.w3.org/2000/svg">
<g filter="url(#filter0_d_442_4015)">
<rect x="25.5" y="15" width="75" height="75" rx="37.5" fill="white"/>
<path fill-rule="evenodd" clip-rule="evenodd" d="M64.4667 47.0431H79.6897C80.1084 47.0431 80.4483 46.7095 80.4483 46.2985V34.3846C80.4483 33.9736 80.1084 33.64 79.6897 33.64H46.3103C45.8916 33.64 45.5517 33.9736 45.5517 34.3846V46.2985C45.5517 46.7095 45.8916 47.0431 46.3103 47.0431H61.5333V49.9689C61.5333 50.5626 62.1904 51.0445 63 51.0445C63.8096 51.0445 64.4667 50.5626 64.4667 49.9689V47.0431ZM61.5333 61.8978C61.5333 62.4915 62.1904 62.9733 63 62.9733C63.8096 62.9733 64.4667 62.4915 64.4667 61.8978V56.6178C64.4667 56.0241 63.8096 55.5422 63 55.5422C62.1904 55.5422 61.5333 56.0241 61.5333 56.6178V61.8978Z" fill="url(#paint0_linear_442_4015)"/>
<path d="M80.2174 62C79.7854 62 79.4348 61.5718 79.4348 61.0441V53.9118H46.5652V61.0441C46.5652 61.5718 46.2146 62 45.7826 62C45.3506 62 45 61.5718 45 61.0441V52.9559C45 52.4282 45.3506 52 45.7826 52H80.2174C80.6494 52 81 52.4282 81 52.9559V61.0441C81 61.5718 80.6494 62 80.2174 62Z" fill="#DBDFE1"/>
<path d="M84.2414 69H75.1379C74.7192 69 74.3793 68.664 74.3793 68.25V60.75C74.3793 60.336 74.7192 60 75.1379 60H84.2414C84.6601 60 85 60.336 85 60.75V68.25C85 68.664 84.6601 69 84.2414 69ZM67.5517 69H58.4483C58.0295 69 57.6897 68.664 57.6897 68.25V60.75C57.6897 60.336 58.0295 60 58.4483 60H67.5517C67.9705 60 68.3103 60.336 68.3103 60.75V68.25C68.3103 68.664 67.9705 69 67.5517 69ZM84.2414 72H75.1379C74.7192 72 74.3793 71.664 74.3793 71.25C74.3793 70.836 74.7192 70.5 75.1379 70.5H84.2414C84.6601 70.5 85 70.836 85 71.25C85 71.664 84.6601 72 84.2414 72ZM67.5517 72H58.4483C58.0295 72 57.6897 71.664 57.6897 71.25C57.6897 70.836 58.0295 70.5 58.4483 70.5H67.5517C67.9705 70.5 68.3103 70.836 68.3103 71.25C68.3103 71.664 67.9705 72 67.5517 72ZM50.8621 72H41.7586C41.3399 72 41 71.664 41 71.25C41 70.836 41.3399 70.5 41.7586 70.5H50.8621C51.2808 70.5 51.6207 70.836 51.6207 71.25C51.6207 71.664 51.2808 72 50.8621 72ZM50.8621 69H41.7586C41.3399 69 41 68.664 41 68.25V60.75C41 60.336 41.3399 60 41.7586 60H50.8621C51.2808 60 51.6207 60.336 51.6207 60.75V68.25C51.6207 68.664 51.2808 69 50.8621 69Z" fill="#DBDFE1"/>
<path d="M74.2 42H51.8C51.3584 42 51 41.7013 51 41.3333C51 40.9653 51.3584 40.6667 51.8 40.6667H74.2C74.6416 40.6667 75 40.9653 75 41.3333C75 41.7013 74.6416 42 74.2 42ZM74.2 39.3333H51.8C51.3584 39.3333 51 39.0347 51 38.6667C51 38.2987 51.3584 38 51.8 38H74.2C74.6416 38 75 38.2987 75 38.6667C75 39.0347 74.6416 39.3333 74.2 39.3333Z" fill="white"/>
</g>
<defs>
<filter id="filter0_d_442_4015" x="0.5" y="0" width="125" height="125" filterUnits="userSpaceOnUse" color-interpolation-filters="sRGB">
<feFlood flood-opacity="0" result="BackgroundImageFix"/>
<feColorMatrix in="SourceAlpha" type="matrix" values="0 0 0 0 0 0 0 0 0 0 0 0 0 0 0 0 0 0 127 0" result="hardAlpha"/>
<feOffset dy="10"/>
<feGaussianBlur stdDeviation="12.5"/>
<feComposite in2="hardAlpha" operator="out"/>
<feColorMatrix type="matrix" values="0 0 0 0 0 0 0 0 0 0.0533333 0 0 0 0 0.133333 0 0 0 0.15 0"/>
<feBlend mode="normal" in2="BackgroundImageFix" result="effect1_dropShadow_442_4015"/>
<feBlend mode="normal" in="SourceGraphic" in2="effect1_dropShadow_442_4015" result="shape"/>
</filter>
<linearGradient id="paint0_linear_442_4015" x1="63" y1="33.64" x2="63" y2="62.9734" gradientUnits="userSpaceOnUse">
<stop stop-color="#E30613"/>
<stop offset="1" stop-color="#D10611"/>
</linearGradient>
</defs>
</svg>
