<svg width="30" height="30" viewBox="0 0 30 30" fill="none" xmlns="http://www.w3.org/2000/svg">
<path d="M23.0275 16.0833C22.7892 16.0833 22.54 16.0075 22.3017 15.9533C21.8194 15.8455 21.3452 15.7043 20.8825 15.5308C20.3799 15.348 19.8275 15.3575 19.3315 15.5575C18.8355 15.7575 18.431 16.1338 18.1958 16.6141L17.9575 17.1125C16.9054 16.5158 15.9334 15.7877 15.065 14.9458C14.2231 14.0774 13.495 13.1054 12.8983 12.0533L13.3967 11.8258C13.877 11.5906 14.2533 11.1861 14.4533 10.6901C14.6533 10.1941 14.6628 9.64171 14.48 9.13914C14.308 8.67226 14.1668 8.19456 14.0575 7.70914C14.0033 7.47081 13.96 7.22164 13.9275 6.9833C13.7959 6.22023 13.3963 5.52919 12.8004 5.03465C12.2046 4.5401 11.4518 4.27455 10.6775 4.28581H7.41667C6.95869 4.28521 6.50575 4.38141 6.08755 4.5681C5.66935 4.7548 5.29532 5.02778 4.99 5.36914C4.67835 5.71976 4.44629 6.1337 4.30978 6.58251C4.17327 7.03132 4.13553 7.50436 4.19917 7.96914C4.78806 12.4781 6.84815 16.6668 10.06 19.8858C13.279 23.0977 17.4677 25.1578 21.9767 25.7466C22.1173 25.7574 22.2585 25.7574 22.3992 25.7466C23.198 25.7478 23.9693 25.4547 24.5658 24.9233C24.9072 24.618 25.1802 24.244 25.3669 23.8258C25.5536 23.4076 25.6498 22.9546 25.6492 22.4966V19.2466C25.6433 18.4981 25.3793 17.7745 24.9016 17.1982C24.4239 16.6218 23.7619 16.228 23.0275 16.0833Z" fill="#1D1D1B"/>
<path d="M17.1666 4.16669C16.9175 4.16669 16.6575 4.16669 16.4083 4.16669C16.121 4.19111 15.8551 4.32867 15.6692 4.5491C15.4833 4.76953 15.3926 5.05479 15.4171 5.3421C15.4415 5.62942 15.579 5.89527 15.7995 6.08117C16.0199 6.26706 16.3052 6.35778 16.5925 6.33335H17.1666C18.8905 6.33335 20.5438 7.01817 21.7628 8.23716C22.9818 9.45615 23.6666 11.1094 23.6666 12.8334C23.6666 13.0284 23.6666 13.2125 23.6666 13.4075C23.6426 13.6933 23.7329 13.977 23.9177 14.1963C24.1025 14.4156 24.3667 14.5527 24.6525 14.5775H24.7391C25.0103 14.5786 25.2721 14.478 25.4727 14.2954C25.6732 14.1129 25.7981 13.8618 25.8225 13.5917C25.8225 13.3425 25.8225 13.0825 25.8225 12.8334C25.8225 10.5367 24.9109 8.33393 23.2879 6.70892C21.6649 5.08392 19.4633 4.16956 17.1666 4.16669ZM19.3333 12.8334C19.3333 13.1207 19.4474 13.3962 19.6506 13.5994C19.8538 13.8026 20.1293 13.9167 20.4166 13.9167C20.704 13.9167 20.9795 13.8026 21.1827 13.5994C21.3858 13.3962 21.5 13.1207 21.5 12.8334C21.5 11.6841 21.0434 10.5819 20.2308 9.76922C19.4181 8.95657 18.3159 8.50002 17.1666 8.50002C16.8793 8.50002 16.6038 8.61416 16.4006 8.81732C16.1974 9.02049 16.0833 9.29604 16.0833 9.58335C16.0833 9.87067 16.1974 10.1462 16.4006 10.3494C16.6038 10.5526 16.8793 10.6667 17.1666 10.6667C17.7413 10.6667 18.2924 10.895 18.6987 11.3013C19.105 11.7076 19.3333 12.2587 19.3333 12.8334Z" fill="#E30613"/>
</svg>
