<svg width="126" height="125" viewBox="0 0 126 125" fill="none" xmlns="http://www.w3.org/2000/svg">
<g filter="url(#filter0_d_438_3982)">
<rect x="25.5" y="15" width="75" height="75" rx="37.5" fill="white"/>
<path d="M62.8091 34.0133L62.9975 34L63.1924 34.0133L63.2899 34.0285L63.3907 34.0532L63.5741 34.1178C63.7007 34.1715 63.8211 34.243 63.9326 34.3306L64.1044 34.4864L64.5257 34.9006C67.8585 38.0842 72.0706 39.7937 76.4027 39.7209L76.9677 39.7019C77.3371 39.6825 77.7015 39.8062 78.0025 40.0532C78.3035 40.3002 78.5238 40.6562 78.6281 41.0642C79.4399 44.2402 79.6884 47.5715 79.3586 50.8601C79.0289 54.1486 78.1277 57.3275 76.7086 60.2076C75.2895 63.0877 73.3815 65.6104 71.0979 67.6258C68.8143 69.6411 66.2017 71.108 63.4154 71.9392C63.1435 72.0203 62.858 72.0203 62.5861 71.9392C59.7997 71.1082 57.1869 69.6414 54.9032 67.6262C52.6194 65.611 50.7112 63.0883 49.2919 60.2081C47.8727 57.328 46.9713 54.1491 46.6415 50.8604C46.3116 47.5717 46.56 44.2403 47.3718 41.0642C47.4761 40.6562 47.6963 40.3002 47.9974 40.0532C48.2984 39.8062 48.6628 39.6825 49.0322 39.7019C53.5548 39.9397 57.9917 38.2275 61.4742 34.9006L61.9087 34.4731L62.0673 34.3306C62.1788 34.243 62.2992 34.1715 62.4258 34.1178L62.6109 34.0532C62.6756 34.0352 62.7429 34.0219 62.8091 34.0133Z" fill="#DBDFE1"/>
<path d="M57.4009 64C57.3238 64 57.2464 63.9782 57.1787 63.9338C57.0249 63.8329 56.961 63.6415 57.0241 63.4705L60.5749 53.8467H57.401C57.2355 53.8467 57.087 53.7466 57.0272 53.5946C56.9673 53.4427 57.0085 53.2702 57.1308 53.1603L68.3289 43.1031C68.4653 42.9806 68.6692 42.9656 68.8226 43.067C68.9759 43.1684 69.039 43.3599 68.9755 43.5307L65.427 53.0572H68.5991C68.7643 53.0572 68.9125 53.1569 68.9725 53.3084C69.0326 53.4599 68.9921 53.6322 68.8707 53.7423L57.6725 63.8956C57.5964 63.9647 57.4989 64 57.4009 64Z" fill="url(#paint0_linear_438_3982)"/>
</g>
<defs>
<filter id="filter0_d_438_3982" x="0.5" y="0" width="125" height="125" filterUnits="userSpaceOnUse" color-interpolation-filters="sRGB">
<feFlood flood-opacity="0" result="BackgroundImageFix"/>
<feColorMatrix in="SourceAlpha" type="matrix" values="0 0 0 0 0 0 0 0 0 0 0 0 0 0 0 0 0 0 127 0" result="hardAlpha"/>
<feOffset dy="10"/>
<feGaussianBlur stdDeviation="12.5"/>
<feComposite in2="hardAlpha" operator="out"/>
<feColorMatrix type="matrix" values="0 0 0 0 0 0 0 0 0 0.0533333 0 0 0 0 0.133333 0 0 0 0.15 0"/>
<feBlend mode="normal" in2="BackgroundImageFix" result="effect1_dropShadow_438_3982"/>
<feBlend mode="normal" in="SourceGraphic" in2="effect1_dropShadow_438_3982" result="shape"/>
</filter>
<linearGradient id="paint0_linear_438_3982" x1="63" y1="43" x2="63" y2="64" gradientUnits="userSpaceOnUse">
<stop stop-color="#E30613"/>
<stop offset="1" stop-color="#D10611"/>
</linearGradient>
</defs>
</svg>
