<svg width="131" height="61" viewBox="0 0 131 61" fill="none" xmlns="http://www.w3.org/2000/svg">
<g id="logo" opacity="0.6">
<path id="Vector" d="M56.9936 11.688V25.1095H54.3074V18.3228L52.5958 25.1095H49.9096V11.688H52.5958V18.4747L54.3074 11.688H56.9936Z" fill="white"/>
<path id="Vector_2" d="M64.9952 11.688L66.374 15.7154L67.8003 11.688H70.4865V25.1095H67.8003V17.1972L66.374 20.7402L64.9952 17.1972V25.1333H62.309V11.688H64.9952Z" fill="white"/>
<path id="Vector_3" d="M82.515 11.688V25.1095H79.8145V14.2954H78.431V25.1095H75.7448V11.688H82.515Z" fill="white"/>
<path id="Vector_4" d="M90.4976 11.688V17.7101H91.8811V11.688H94.5531V25.1095H87.8114V22.5021H91.8811V20.3175H87.8114V11.688H90.4976Z" fill="white"/>
<path id="Vector_5" d="M106.791 11.688V25.1095H104.105V14.2954H103.22L102.16 25.1095H98.9176V22.5021H99.935L101.01 11.688H106.791Z" fill="white"/>
<path id="Vector_6" d="M112.087 11.688H114.773V16.7222H118.843V25.119H112.087V11.688ZM116.157 22.5021V19.3201H114.773V22.5021H116.157Z" fill="white"/>
<path id="Vector_7" d="M130.72 11.688V15.6774H128.033V14.2954H126.655V22.5021H128.033V21.1201H130.72V25.1095H123.968V11.688H130.72Z" fill="white"/>
<path id="Vector_8" d="M78.3264 29.5073H62.4754V33.7437H68.2662V53.6195H72.5023V33.7437H78.3264V29.5073Z" fill="white"/>
<path id="Vector_9" d="M103.796 33.7437V29.5073H88.3439V53.6195H103.796V49.3879H92.58V43.6792H98.2995V39.4476H92.58V33.7437H103.796Z" fill="white"/>
<path id="Vector_10" d="M123.165 43.5747L126.493 53.6195H131L126.555 41.4613L130.658 29.5073H126.141L123.174 39.3384H120.845L117.878 29.5073H113.366L114.973 34.1426L117.464 41.4613L113.019 53.6195H117.526L120.859 43.5747H123.165Z" fill="white"/>
<path id="Vector_11" d="M52.6481 0.00475031C53.6751 1.12558 53.6656 1.40104 52.6481 2.78309L34.2963 28.3106C34.1346 28.5385 33.9825 28.7855 33.7068 29.1939H34.8573C37.5055 29.1939 40.1537 29.1939 42.8018 29.1939C43.5768 29.1939 44.3137 29.2604 44.58 30.1438C44.8462 31.0272 44.29 31.4831 43.6576 31.9438C30.5419 41.4424 17.4278 50.941 4.3153 60.4396C3.96161 60.7521 3.51992 60.9478 3.05064 61C2.82447 60.9815 2.60597 60.9094 2.41331 60.7896C2.22064 60.6699 2.05936 60.5059 1.94287 60.3114C1.867 60.067 1.84261 59.8096 1.87125 59.5554C1.89989 59.3012 1.98093 59.0557 2.10927 58.8343C3.33114 57.0106 4.6481 55.2486 5.91276 53.4629L20.9841 32.5137C21.0934 32.3617 21.1933 32.2002 21.412 31.8678H20.2662C17.5847 31.8678 14.908 31.8678 12.2266 31.8678C11.4706 31.8678 10.8002 31.7396 10.5388 30.9179C10.2773 30.0963 10.7527 29.6214 11.3708 29.1702C24.5118 19.6716 37.6481 10.1493 50.7797 0.603159C51.0269 0.422686 51.2551 0.199471 51.4833 0L52.6481 0.00475031ZM16.4199 28.89L16.4627 29.0942H17.3803C19.4865 29.0942 21.5926 29.042 23.6941 29.137C24.3021 29.2053 24.8638 29.4943 25.2725 29.9491C25.748 30.5095 25.3391 31.1317 24.954 31.6683C20.2377 38.2097 15.5261 44.7526 10.8193 51.2972C10.4056 51.8718 9.99676 52.456 9.58313 53.0354L9.73051 53.1684L38.7321 32.129C36.3835 31.9533 34.1014 31.9485 31.8193 31.9533C31.0348 31.9533 30.2694 31.9533 29.8272 31.1317C29.385 30.31 29.9033 29.7449 30.3312 29.1512L42.2789 12.5287L45.5356 8.00257L45.3882 7.86009L16.4199 28.89Z" fill="white"/>
<path id="Vector_12" d="M28.4151 60.0692C24.148 60.0793 19.9342 59.1212 16.0918 57.2671C15.8352 57.1411 15.6392 56.9185 15.547 56.6482C15.4547 56.3779 15.4737 56.082 15.5998 55.8257C15.7259 55.5694 15.9487 55.3736 16.2193 55.2814C16.4899 55.1892 16.7861 55.2082 17.0427 55.3341C20.6002 57.0511 24.5023 57.9363 28.4532 57.9225C33.0629 57.9137 37.5897 56.6978 41.5823 54.3962C45.5748 52.0945 48.8936 48.7875 51.2075 44.805C51.2748 44.6768 51.3673 44.5636 51.4795 44.4721C51.5916 44.3805 51.7212 44.3126 51.8603 44.2723C51.9994 44.2321 52.1452 44.2204 52.289 44.2378C52.4327 44.2553 52.5715 44.3016 52.6969 44.374C52.8223 44.4464 52.9317 44.5434 53.0186 44.6591C53.1056 44.7749 53.1682 44.907 53.2027 45.0475C53.2372 45.188 53.243 45.334 53.2195 45.4768C53.1961 45.6195 53.1441 45.7561 53.0665 45.8783C50.5601 50.1918 46.9643 53.7727 42.6383 56.2629C38.3124 58.7532 33.408 60.0657 28.4151 60.0692V60.0692Z" fill="white"/>
<path id="Vector_13" d="M5.44685 47.4361C5.27944 47.4371 5.11418 47.3984 4.96461 47.3233C4.81504 47.2482 4.6854 47.1387 4.58631 47.0039C3.88753 46.0115 3.27212 44.9631 2.74637 43.8694C0.28784 38.6951 -0.547143 32.8992 0.351019 27.2424C1.24918 21.5856 3.83852 16.3322 7.77916 12.1718C11.7198 8.01145 16.8276 5.13846 22.4321 3.92995C28.0367 2.72145 33.876 3.2339 39.1838 5.40006C39.436 5.51534 39.6339 5.7236 39.7359 5.98127C39.838 6.23894 39.8363 6.52605 39.7313 6.78251C39.6262 7.03898 39.426 7.24494 39.1724 7.35728C38.9188 7.46963 38.6316 7.47965 38.3708 7.38527C33.4644 5.38245 28.0664 4.90859 22.8855 6.0259C17.7046 7.14322 12.983 9.79947 9.34075 13.6459C5.69849 17.4923 3.30577 22.3491 2.47678 27.5786C1.64779 32.808 2.42127 38.1657 4.69566 42.948C5.16151 43.9166 5.70529 44.8457 6.32165 45.7264C6.40532 45.8399 6.46578 45.9687 6.4996 46.1056C6.53341 46.2424 6.53991 46.3846 6.51872 46.524C6.49752 46.6633 6.44906 46.7972 6.37609 46.9178C6.30312 47.0385 6.20708 47.1436 6.09344 47.2271C5.90687 47.3661 5.67955 47.4396 5.44685 47.4361V47.4361Z" fill="white"/>
</g>
</svg>
