<svg width="150" height="70" viewBox="0 0 150 70" fill="none" xmlns="http://www.w3.org/2000/svg">
<path d="M65.2599 13.4125V28.8143H62.1841V21.0262L60.2243 28.8143H57.1484V13.4125H60.2243V21.2006L62.1841 13.4125H65.2599Z" fill="#444C50"/>
<path d="M74.422 13.4125L76.0007 18.0341L77.6339 13.4125H80.7097V28.8143H77.6339V19.7346L76.0007 23.8003L74.422 19.7346V28.8415H71.3462V13.4125H74.422Z" fill="#444C50"/>
<path d="M94.4829 13.4125V28.8143H91.3907V16.4046H89.8065V28.8143H86.7307V13.4125H94.4829Z" fill="#444C50"/>
<path d="M103.623 13.4125V20.3232H105.207V13.4125H108.267V28.8143H100.547V25.8222H105.207V23.3152H100.547V13.4125H103.623Z" fill="#444C50"/>
<path d="M122.28 13.4125V28.8143H119.204V16.4046H118.191L116.977 28.8143H113.264V25.8222H114.429L115.66 13.4125H122.28Z" fill="#444C50"/>
<path d="M128.344 13.4125H131.42V19.1896H136.08V28.8252H128.344V13.4125ZM133.004 25.8222V22.1707H131.42V25.8222H133.004Z" fill="#444C50"/>
<path d="M149.679 13.4125V17.9906H146.603V16.4046H145.024V25.8222H146.603V24.2363H149.679V28.8143H141.948V13.4125H149.679Z" fill="#444C50"/>
<path d="M89.6868 33.861H71.5367V38.7224H78.1674V61.5307H83.018V38.7224H89.6868V33.861Z" fill="#444C50"/>
<path d="M118.85 38.7224V33.861H101.157V61.5307H118.85V56.6747H106.008V50.1238H112.557V45.2678H106.008V38.7224H118.85Z" fill="#444C50"/>
<path d="M141.028 50.0039L144.839 61.5307H150L144.91 47.5786L149.608 33.861H144.436L141.039 45.1425H138.372L134.975 33.861H129.808L131.649 39.1802L134.501 47.5786L129.411 61.5307H134.572L138.388 50.0039H141.028Z" fill="#444C50"/>
<path d="M60.2841 0.00545118C61.46 1.29165 61.4491 1.60775 60.2841 3.19371L39.2706 32.4875C39.0855 32.7491 38.9113 33.0325 38.5955 33.5012H39.9129C42.9452 33.5012 45.9775 33.5012 49.0097 33.5012C49.8971 33.5012 50.7409 33.5775 51.0458 34.5912C51.3506 35.6049 50.7137 36.1282 49.9897 36.6568C34.9717 47.5568 19.9555 58.4569 4.94118 69.3569C4.53619 69.7155 4.03044 69.9401 3.4931 70C3.23412 69.9788 2.98394 69.896 2.76333 69.7586C2.54272 69.6211 2.35805 69.433 2.22466 69.2097C2.13778 68.9294 2.10986 68.634 2.14265 68.3423C2.17545 68.0506 2.26824 67.7688 2.4152 67.5148C3.81429 65.422 5.32225 63.4 6.77034 61.3508L24.0276 37.3108C24.1528 37.1364 24.2671 36.9511 24.5175 36.5696H23.2055C20.1352 36.5696 17.0702 36.5696 13.9999 36.5696C13.1343 36.5696 12.3667 36.4225 12.0673 35.4796C11.7679 34.5367 12.3123 33.9918 13.02 33.474C28.067 22.574 43.1085 11.6467 58.1446 0.69215C58.4277 0.48505 58.689 0.228901 58.9504 0L60.2841 0.00545118ZM18.8014 33.1524L18.8504 33.3868H19.9011C22.3127 33.3868 24.7244 33.3268 27.1306 33.4358C27.8268 33.5142 28.47 33.8459 28.938 34.3678C29.4824 35.0109 29.0142 35.7249 28.5733 36.3407C23.1729 43.8472 17.778 51.3555 12.3885 58.8656C11.9148 59.5251 11.4467 60.1954 10.973 60.8603L11.1418 61.0129L44.3497 36.8694C41.6604 36.6677 39.0474 36.6623 36.4343 36.6677C35.536 36.6677 34.6596 36.6677 34.1533 35.7248C33.647 34.782 34.2404 34.1334 34.7303 33.4522L48.4109 14.3771L52.14 9.18328L51.9712 9.01977L18.8014 33.1524Z" fill="#E30613"/>
<path d="M32.5365 68.9318C27.6504 68.9434 22.8255 67.8439 18.4258 65.7163C18.132 65.5718 17.9076 65.3163 17.8019 65.0061C17.6962 64.6959 17.718 64.3564 17.8624 64.0622C18.0068 63.7681 18.2619 63.5434 18.5718 63.4376C18.8816 63.3318 19.2208 63.3536 19.5146 63.4982C23.588 65.4684 28.0561 66.4842 32.58 66.4684C37.8583 66.4583 43.0417 65.0631 47.6133 62.4218C52.185 59.7806 55.985 55.9857 58.6346 51.4155C58.7117 51.2684 58.8176 51.1385 58.946 51.0335C59.0744 50.9284 59.2227 50.8505 59.382 50.8043C59.5413 50.7581 59.7083 50.7446 59.8729 50.7647C60.0375 50.7847 60.1964 50.8379 60.34 50.921C60.4836 51.0041 60.6089 51.1154 60.7084 51.2482C60.808 51.381 60.8796 51.5325 60.9192 51.6938C60.9587 51.855 60.9653 52.0226 60.9385 52.1864C60.9117 52.3503 60.8521 52.507 60.7632 52.6472C57.8933 57.5971 53.7759 61.7063 48.8226 64.564C43.8692 67.4217 38.2534 68.9278 32.5365 68.9318Z" fill="#444C50"/>
<path d="M6.23685 54.4347C6.04516 54.4358 5.85594 54.3915 5.68467 54.3053C5.5134 54.2191 5.36496 54.0935 5.2515 53.9388C4.45137 52.8 3.74671 51.5969 3.1447 50.3418C0.329588 44.4041 -0.626499 37.7531 0.40193 31.2617C1.43036 24.7702 4.39525 18.7418 8.90743 13.9676C13.4196 9.19334 19.2682 5.89646 25.6857 4.50965C32.1031 3.12284 38.7894 3.7109 44.8669 6.19666C45.1558 6.32895 45.3823 6.56794 45.4992 6.86362C45.616 7.15931 45.6141 7.48877 45.4938 7.78308C45.3736 8.07738 45.1443 8.31372 44.8539 8.44265C44.5636 8.57157 44.2347 8.58307 43.936 8.47476C38.318 6.17644 32.137 5.63267 26.2047 6.91483C20.2724 8.197 14.8661 11.2452 10.6955 15.6591C6.52499 20.073 3.78524 25.6464 2.83601 31.6474C1.88678 37.6484 2.77244 43.7965 5.37671 49.2845C5.91013 50.3959 6.53278 51.4622 7.23853 52.4727C7.33433 52.603 7.40357 52.7509 7.44229 52.9079C7.481 53.065 7.48844 53.2281 7.46418 53.388C7.43991 53.548 7.38442 53.7015 7.30087 53.84C7.21732 53.9784 7.10734 54.099 6.97722 54.1949C6.76359 54.3544 6.5033 54.4387 6.23685 54.4347Z" fill="#444C50"/>
</svg>
