<svg width="30" height="30" viewBox="0 0 30 30" fill="none" xmlns="http://www.w3.org/2000/svg">
<g id="message / 24 / Outline">
<path id="Vector" d="M23.1666 6.83325H6.83331C5.90506 6.83325 5.01482 7.202 4.35844 7.85838C3.70206 8.51476 3.33331 9.40499 3.33331 10.3333V21.9999C3.33331 22.9282 3.70206 23.8184 4.35844 24.4748C5.01482 25.1312 5.90506 25.4999 6.83331 25.4999H23.1666C24.0949 25.4999 24.9851 25.1312 25.6415 24.4748C26.2979 23.8184 26.6666 22.9282 26.6666 21.9999V10.3333C26.6666 9.40499 26.2979 8.51476 25.6415 7.85838C24.9851 7.202 24.0949 6.83325 23.1666 6.83325ZM24.3333 21.9999C24.3333 22.3093 24.2104 22.6061 23.9916 22.8249C23.7728 23.0437 23.4761 23.1666 23.1666 23.1666H6.83331C6.52389 23.1666 6.22715 23.0437 6.00836 22.8249C5.78956 22.6061 5.66665 22.3093 5.66665 21.9999V12.9933L14.3933 18.3249C14.5707 18.4273 14.7719 18.4812 14.9766 18.4812C15.1814 18.4812 15.3826 18.4273 15.56 18.3249L24.3333 12.9933V21.9999Z" fill="#1D1D1B"/>
<circle id="Ellipse 2" cx="23.1666" cy="6.83333" r="5.83333" fill="white"/>
<path id="Vector_2" d="M20.8334 7.99992H22V9.16658C22 9.476 22.1229 9.77275 22.3417 9.99154C22.5605 10.2103 22.8573 10.3333 23.1667 10.3333C23.4761 10.3333 23.7729 10.2103 23.9916 9.99154C24.2104 9.77275 24.3334 9.476 24.3334 9.16658V7.99992H25.5C25.8094 7.99992 26.1062 7.877 26.325 7.65821C26.5438 7.43942 26.6667 7.14267 26.6667 6.83325C26.6667 6.52383 26.5438 6.22709 26.325 6.00829C26.1062 5.7895 25.8094 5.66659 25.5 5.66659H24.3334V4.49992C24.3334 4.1905 24.2104 3.89375 23.9916 3.67496C23.7729 3.45617 23.4761 3.33325 23.1667 3.33325C22.8573 3.33325 22.5605 3.45617 22.3417 3.67496C22.1229 3.89375 22 4.1905 22 4.49992V5.66659H20.8334C20.5239 5.66659 20.2272 5.7895 20.0084 6.00829C19.7896 6.22709 19.6667 6.52383 19.6667 6.83325C19.6667 7.14267 19.7896 7.43942 20.0084 7.65821C20.2272 7.877 20.5239 7.99992 20.8334 7.99992Z" fill="#E30613"/>
</g>
</svg>
