<svg width="25" height="30" viewBox="0 0 25 30" fill="none" xmlns="http://www.w3.org/2000/svg">
<path d="M6.61759e-08 1.66709V28.3329C-8.34875e-05 28.6295 0.0789556 28.9207 0.228962 29.1765C0.378969 29.4323 0.59451 29.6434 0.853348 29.7881C1.11219 29.9328 1.40495 30.0059 1.70142 29.9997C1.9979 29.9935 2.28735 29.9083 2.53992 29.7529L24.2059 16.42C24.4486 16.2709 24.649 16.062 24.788 15.8135C24.927 15.5649 25 15.2848 25 15C25 14.7152 24.927 14.4351 24.788 14.1866C24.649 13.938 24.4486 13.7292 24.2059 13.5801L2.53992 0.247129C2.28735 0.0917414 1.9979 0.00655667 1.70142 0.000363582C1.40495 -0.00582951 1.11219 0.0671933 0.853348 0.211898C0.59451 0.356603 0.378969 0.567748 0.228962 0.82355C0.0789556 1.07935 -8.34875e-05 1.37054 6.61759e-08 1.66709Z" fill="white"/>
</svg>
