<svg width="80" height="80" viewBox="0 0 80 80" fill="none" xmlns="http://www.w3.org/2000/svg">
<path d="M74.6007 22.0058C78.6875 29.8641 79.9775 38.8796 78.2585 47.5687C76.5396 56.2578 71.914 64.1029 65.143 69.8133C58.3719 75.5236 49.8587 78.759 41.0041 78.9871C32.1496 79.2151 23.4811 76.4223 16.4251 71.068" stroke="#DBDFE1" stroke-width="2" stroke-linecap="round"/>
<path d="M7.59872 61.7062C2.21225 53.6656 0.00775959 43.9096 1.41375 34.3342C2.81973 24.7589 7.73575 16.0483 15.2063 9.89567C22.6768 3.743 32.1681 0.587751 41.8354 1.04321C51.5027 1.49867 60.6553 5.5323 67.5143 12.3601" stroke="#DBDFE1" stroke-width="2" stroke-linecap="round"/>
<path d="M26.6319 36.5625H22.8125L40 19.375L57.1875 36.5625H53.3681" stroke="#444C50" stroke-width="2" stroke-linecap="round" stroke-linejoin="round"/>
<path d="M26.7188 36.5625V49.9306C26.7188 50.9435 27.1185 51.915 27.8302 52.6313C28.5418 53.3476 29.507 53.75 30.5134 53.75H49.4866C50.493 53.75 51.4582 53.3476 52.1698 52.6313C52.8815 51.915 53.2812 50.9435 53.2812 49.9306V36.5625" stroke="#444C50" stroke-width="2" stroke-linecap="round" stroke-linejoin="round"/>
<path d="M36.0938 36.5625H43.9062V44.375H36.0938V36.5625Z" stroke="#E30613" stroke-width="2" stroke-linecap="round" stroke-linejoin="round"/>
</svg>
