<svg width="205" height="28" viewBox="0 0 205 28" fill="none" xmlns="http://www.w3.org/2000/svg">
<path d="M10.5697 18.3978C9.58114 20.8818 5.52563 20.2735 5.52563 18.119V11.9344C5.52563 9.70384 9.53045 9.1969 10.7471 11.4274L14.4478 9.93196C13.003 6.73824 10.3416 5.80041 8.13637 5.80041C4.5371 5.80041 0.988531 7.87886 0.988531 11.9344V18.119C0.988531 22.1999 4.5371 24.253 8.06033 24.253C10.3162 24.253 13.0283 23.1377 14.5238 20.2228L10.5697 18.3978ZM29.2258 10.3375V6.02853H15.1076V10.3375H19.8728V23.9995H24.4606V10.3375H29.2258ZM30.9991 23.9995H35.5362V18.7527H38.1976C42.532 18.7527 44.7372 15.5843 44.7372 12.3906C44.7372 9.22225 42.5573 6.05388 38.1723 6.05388H30.9991V23.9995ZM35.5362 14.7225V10.2868H38.1723C40.9098 10.2615 40.9098 14.7479 38.1723 14.7225H35.5362ZM46.2368 18.0937C46.2368 22.1999 49.9628 24.253 53.6888 24.253C57.4148 24.253 61.1154 22.1999 61.1154 18.0937V11.9597C61.1154 7.85351 57.3894 5.80041 53.6634 5.80041C49.9374 5.80041 46.2368 7.82816 46.2368 11.9597V18.0937ZM50.7739 11.9597C50.7739 10.6417 52.1933 9.93196 53.6127 9.93196C55.0829 9.93196 56.5783 10.5656 56.5783 11.9597V18.0937C56.5783 19.3864 55.1336 20.0454 53.6888 20.0454C52.244 20.0454 50.7739 19.4117 50.7739 18.0937V11.9597ZM70.6722 4.58376C73.0295 4.58376 75.26 3.08829 75.26 0.173388H71.7368C71.7368 0.807062 71.2805 1.21261 70.6722 1.21261C70.0639 1.21261 69.6076 0.807062 69.6076 0.173388H66.0844C66.0844 3.08829 68.315 4.58376 70.6722 4.58376ZM73.4857 23.9995H78.0482V6.05388H73.8913L69.3035 13.6833L67.808 16.9024L67.7066 16.877C67.7066 16.877 68.0615 14.1902 68.0868 14.1902V6.05388H63.5244V23.9995H67.808L72.117 16.9277L73.8152 13.4298L73.942 13.4552C73.942 13.4552 73.5111 16.8263 73.4857 16.8263V23.9995ZM80.4452 18.0937C80.4452 22.1999 84.1712 24.253 87.8972 24.253C91.6232 24.253 95.3239 22.1999 95.3239 18.0937V11.9597C95.3239 7.85351 91.5979 5.80041 87.8719 5.80041C84.1459 5.80041 80.4452 7.82816 80.4452 11.9597V18.0937ZM84.9823 11.9597C84.9823 10.6417 86.4018 9.93196 87.8212 9.93196C89.2913 9.93196 90.7868 10.5656 90.7868 11.9597V18.0937C90.7868 19.3864 89.342 20.0454 87.8972 20.0454C86.4525 20.0454 84.9823 19.4117 84.9823 18.0937V11.9597ZM110.787 10.3375V6.02853H96.6683V10.3375H101.433V23.9995H106.021V10.3375H110.787ZM112.56 23.9995H117.097V18.7527H119.758C124.093 18.7527 126.298 15.5843 126.298 12.3906C126.298 9.22225 124.118 6.05388 119.733 6.05388H112.56V23.9995ZM117.097 14.7225V10.2868H119.733C122.47 10.2615 122.47 14.7479 119.733 14.7225H117.097ZM141.764 23.9995V6.05388H134.616C130.459 6.05388 127.924 8.18302 127.823 11.9597C127.823 15.4069 129.445 16.801 131.473 17.5107L125.998 23.9995H131.65L136.466 17.9669H137.201V23.9995H141.764ZM137.201 10.3629V14.393H134.54C133.07 14.393 132.385 13.4805 132.385 12.3146C132.385 11.0726 133.171 10.3629 134.54 10.3629H137.201ZM148.214 27.5988V23.9995H156.503V27.5988H161.116V19.9187H159.544L154.703 6.05388H149.912L145.223 19.9187H143.601V27.5988H148.214ZM153.283 15.0774L154.525 19.9187H150.166L151.509 15.1281L152.295 11.1233H152.396L153.283 15.0774ZM174.547 14.5198H162.406V18.8034H174.547V14.5198ZM176.836 20.8311C177.977 23.1884 180.461 24.253 182.945 24.253C186.265 24.253 189.585 22.1745 189.585 18.4992V11.3514C189.535 7.62539 186.29 5.80041 182.945 5.80041C179.599 5.80041 176.405 7.65073 176.405 11.3514V12.416C176.405 16.877 181.804 19.1329 185.251 16.6236V18.4739C185.251 19.4878 184.136 20.1975 182.894 20.1975C181.855 20.1975 180.714 19.7919 180.055 18.702L176.836 20.8311ZM180.739 11.1993C180.739 9.29829 185.251 9.32363 185.251 11.1993V12.5427C185.251 14.4184 180.739 14.4437 180.739 12.5427V11.1993ZM198.175 24.253C201.242 24.253 204.664 22.5547 204.664 18.7527V11.326C204.664 7.49865 201.242 5.80041 198.175 5.80041C195.134 5.80041 191.686 7.49865 191.686 11.326V18.7527C191.686 22.5547 195.134 24.253 198.175 24.253ZM198.175 9.77988C199.189 9.77988 200.355 10.3629 200.355 11.4528V18.8034C200.355 19.8426 199.214 20.4002 198.175 20.4002C197.085 20.4002 195.995 19.8426 195.995 18.8034V11.4528C195.995 10.3882 197.111 9.77988 198.175 9.77988Z" fill="black"/>
</svg>
