<svg width="80" height="80" viewBox="0 0 80 80" fill="none" xmlns="http://www.w3.org/2000/svg">
<path d="M74.6007 22.0058C78.6875 29.8641 79.9775 38.8796 78.2585 47.5687C76.5396 56.2578 71.914 64.1029 65.143 69.8133C58.3719 75.5236 49.8587 78.759 41.0041 78.9871C32.1496 79.2151 23.4811 76.4223 16.4251 71.068" stroke="#DBDFE1" stroke-width="2" stroke-linecap="round"/>
<path d="M7.59872 61.7062C2.21225 53.6656 0.00775959 43.9096 1.41375 34.3342C2.81973 24.7589 7.73575 16.0483 15.2063 9.89567C22.6768 3.743 32.1681 0.587751 41.8354 1.04321C51.5027 1.49867 60.6553 5.5323 67.5143 12.3601" stroke="#DBDFE1" stroke-width="2" stroke-linecap="round"/>
<g clip-path="url(#clip0_548_8599)">
<path d="M23.3335 53.75C25.7231 45.375 27.4647 37.0271 27.5002 28.75H40.0002C40.0356 37.0271 41.7772 45.375 44.1668 53.75" stroke="#444C50" stroke-width="2" stroke-linecap="round" stroke-linejoin="round"/>
<path d="M41.0415 37.0835H50.4165C50.4686 42.5252 52.279 48.1168 54.5832 53.7502" stroke="#444C50" stroke-width="2" stroke-linecap="round" stroke-linejoin="round"/>
<path d="M33.75 20.4165C34.2233 19.7571 34.8499 19.2229 35.5759 18.8599C36.3018 18.4969 37.1052 18.3161 37.9167 18.3331C38.7281 18.3161 39.5315 18.4969 40.2575 18.8599C40.9834 19.2229 41.6101 19.7571 42.0833 20.4165C42.5566 21.0758 43.1833 21.6101 43.9092 21.973C44.6352 22.336 45.4385 22.5168 46.25 22.4998C47.0614 22.5168 47.8648 22.336 48.5908 21.973C49.3167 21.6101 49.9434 21.0758 50.4167 20.4165C50.8899 19.7571 51.5166 19.2229 52.2426 18.8599C52.9685 18.4969 53.7719 18.3161 54.5833 18.3331C55.3948 18.3161 56.1982 18.4969 56.9241 18.8599C57.6501 19.2229 58.2767 19.7571 58.75 20.4165" stroke="#E30613" stroke-width="2" stroke-linecap="round" stroke-linejoin="round"/>
<path d="M21.25 53.75H60.8333" stroke="#444C50" stroke-width="2" stroke-linecap="round" stroke-linejoin="round"/>
</g>
<defs>
<clipPath id="clip0_548_8599">
<rect width="50" height="50" fill="white" transform="translate(15 10)"/>
</clipPath>
</defs>
</svg>
