<svg width="60" height="60" viewBox="0 0 60 60" fill="none" xmlns="http://www.w3.org/2000/svg">
<path d="M52.5 30C52.5 27.0453 51.918 24.1194 50.7873 21.3896C49.6566 18.6598 47.9992 16.1794 45.9099 14.0901C43.8206 12.0008 41.3402 10.3434 38.6104 9.21271C35.8806 8.08198 32.9547 7.5 30 7.5C27.0453 7.5 24.1195 8.08198 21.3896 9.2127C18.6598 10.3434 16.1794 12.0008 14.0901 14.0901C12.0008 16.1794 10.3434 18.6598 9.21271 21.3896C8.08198 24.1194 7.5 27.0453 7.5 30C7.5 35.9674 9.87053 41.6903 14.0901 45.9099C18.3097 50.1295 24.0326 52.5 30 52.5C35.9674 52.5 41.6903 50.1295 45.9099 45.9099C50.1295 41.6903 52.5 35.9674 52.5 30Z" fill="#353531" stroke="#353531" stroke-width="2" stroke-linecap="round" stroke-linejoin="round"/>
<path d="M32.5 37.5L25 30L32.5 22.5" stroke="white" stroke-width="2" stroke-linecap="round" stroke-linejoin="round"/>
</svg>
