<svg width="14" height="14" viewBox="0 0 14 14" fill="none" xmlns="http://www.w3.org/2000/svg">
<g id="tabler-icon-send" clip-path="url(#clip0_1597_6832)">
<path id="Vector" d="M5.60004 8.90907L13.3 1.27271" stroke="white" stroke-width="1.5" stroke-linecap="round" stroke-linejoin="round"/>
<path id="Vector_2" d="M13.3001 1.27271L8.82976 13.1519C8.79959 13.215 8.75114 13.2686 8.69019 13.3061C8.62923 13.3437 8.55832 13.3636 8.48589 13.3636C8.41346 13.3636 8.34255 13.3437 8.2816 13.3061C8.22064 13.2686 8.1722 13.215 8.14202 13.1519L5.73493 8.53219L0.920749 6.22235C0.854904 6.1934 0.799106 6.14691 0.759987 6.08841C0.720868 6.02992 0.700073 5.96188 0.700073 5.89237C0.700073 5.82287 0.720868 5.75483 0.759987 5.69633C0.799106 5.63784 0.854904 5.59135 0.920749 5.5624L13.3001 1.27271Z" stroke="white" stroke-width="1.5" stroke-linecap="round" stroke-linejoin="round"/>
</g>
<defs>
<clipPath id="clip0_1597_6832">
<rect width="14" height="14" fill="white"/>
</clipPath>
</defs>
</svg>
