<svg width="30" height="30" viewBox="0 0 30 30" fill="none" xmlns="http://www.w3.org/2000/svg">
<g id="Telegram">
<path id="Vector" d="M14.9926 2.5C8.08894 2.5 2.49255 8.09646 2.49255 15C2.49255 21.9035 8.08894 27.5 14.9926 27.5C21.8961 27.5 27.4926 21.9035 27.4926 15C27.4926 8.09646 21.8961 2.5 14.9926 2.5Z" fill="#1D1D1B"/>
<path id="Vector_2" d="M18.9673 21.4406C18.786 21.8926 18.2726 22.1121 17.8206 21.9308C17.7842 21.9163 17.7489 21.8993 17.7148 21.88L14.3215 19.2433L12.1436 21.2525C12.0409 21.3284 11.9066 21.3468 11.7873 21.3012L12.2048 17.5656L12.2182 17.5762L12.2267 17.5025C12.2267 17.5025 18.333 11.9431 18.5817 11.7062C18.8335 11.47 18.7505 11.4187 18.7505 11.4187C18.7648 11.1306 18.2986 11.4187 18.2986 11.4187L10.2079 16.6238L6.83854 15.4763C6.83854 15.4763 6.32104 15.2907 6.27229 14.8825C6.22104 14.4775 6.85541 14.2575 6.85541 14.2575L20.2517 8.93565C20.2517 8.93565 21.3529 8.445 21.3529 9.25753L18.9673 21.4406Z" fill="white"/>
</g>
</svg>
