<svg width="30" height="30" viewBox="0 0 30 30" fill="none" xmlns="http://www.w3.org/2000/svg">
<g id="Telegram">
<path id="Vector" d="M14.9922 2.5C8.08857 2.5 2.49219 8.09646 2.49219 15C2.49219 21.9035 8.08857 27.5 14.9922 27.5C21.8957 27.5 27.4922 21.9035 27.4922 15C27.4922 8.09646 21.8957 2.5 14.9922 2.5Z" fill="#353531"/>
<path id="Vector_2" d="M18.9675 21.4406C18.7862 21.8926 18.2728 22.1121 17.8208 21.9308C17.7844 21.9163 17.7491 21.8993 17.715 21.88L14.3216 19.2433L12.1437 21.2525C12.041 21.3284 11.9068 21.3468 11.7875 21.3012L12.205 17.5656L12.2184 17.5762L12.2269 17.5025C12.2269 17.5025 18.3331 11.9431 18.5819 11.7062C18.8337 11.47 18.7506 11.4187 18.7506 11.4187C18.765 11.1306 18.2987 11.4187 18.2987 11.4187L10.2081 16.6238L6.83873 15.4763C6.83873 15.4763 6.32123 15.2907 6.27248 14.8825C6.22123 14.4775 6.85559 14.2575 6.85559 14.2575L20.2518 8.93565C20.2518 8.93565 21.3531 8.445 21.3531 9.25753L18.9675 21.4406Z" fill="white"/>
</g>
</svg>
