<svg width="30" height="30" viewBox="0 0 30 30" fill="none" xmlns="http://www.w3.org/2000/svg">
<g id="Whatsapp">
<path id="Vector" d="M27.4877 8.18329C27.4771 7.64695 27.4339 7.11176 27.3583 6.58066C27.2687 6.10887 27.1164 5.65117 26.9054 5.21972C26.4428 4.30543 25.7007 3.5625 24.7869 3.09891C24.358 2.88855 23.903 2.73632 23.4338 2.64625C22.8987 2.56916 22.3594 2.52514 21.8188 2.51442C21.5895 2.5061 21.2927 2.50199 21.1558 2.50199L8.84613 2.5C8.70971 2.5 8.41286 2.50412 8.18329 2.51229C7.64695 2.52283 7.11175 2.56604 6.58066 2.64167C6.10887 2.73131 5.65117 2.8836 5.21972 3.09449C4.30545 3.55718 3.56251 4.29932 3.09882 5.21309C2.88853 5.64201 2.73631 6.09704 2.64618 6.56616C2.56915 7.10128 2.52512 7.64064 2.51434 8.18116C2.50618 8.4105 2.50199 8.70729 2.50199 8.84416L2.5 21.1539C2.5 21.2902 2.50412 21.5871 2.51229 21.8167C2.52283 22.3531 2.56604 22.8883 2.64167 23.4193C2.73133 23.8911 2.88361 24.3488 3.09449 24.7803C3.55715 25.6945 4.29927 26.4374 5.21301 26.9011C5.64197 27.1114 6.09702 27.2636 6.56616 27.3537C7.10127 27.4308 7.64063 27.4749 8.18116 27.4856C8.41043 27.4938 8.70729 27.498 8.84416 27.498L21.1539 27.5C21.2902 27.5 21.5871 27.4959 21.8166 27.4877C22.353 27.4771 22.8882 27.4339 23.4193 27.3583C23.8911 27.2686 24.3488 27.1163 24.7802 26.9055C25.6945 26.4428 26.4374 25.7007 26.9011 24.7869C27.1114 24.358 27.2636 23.903 27.3537 23.4338C27.4308 22.8987 27.4749 22.3594 27.4857 21.8188C27.4939 21.5895 27.498 21.2927 27.498 21.1558L27.5 8.84613C27.5 8.70979 27.4959 8.41286 27.4877 8.18329Z" fill="#1D1D1B"/>
<path id="Vector_2" d="M15.2738 7.37647C13.9503 7.37615 12.6508 7.73045 11.5105 8.40249C10.3703 9.07454 9.4309 10.0398 8.79008 11.1979C8.14926 12.356 7.8304 13.6646 7.86667 14.9877C7.90294 16.3107 8.29301 17.5999 8.99632 18.7212L9.17249 19.0013L8.4242 21.7336L11.2275 20.9985L11.498 21.159C12.6393 21.8348 13.9414 22.1913 15.2679 22.1911H15.2708C17.2337 22.189 19.1155 21.4078 20.5029 20.0192C21.8903 18.6306 22.6697 16.7482 22.6701 14.7853C22.6705 12.8224 21.8918 10.9396 20.505 9.55043C19.1182 8.16128 17.2367 7.37938 15.2738 7.37647H15.2738ZM19.6306 17.964C19.4666 18.2345 19.2485 18.4682 18.9898 18.6504C18.7311 18.8326 18.4376 18.9592 18.1276 19.0224C17.6596 19.1025 17.1794 19.0723 16.7251 18.9343C16.294 18.8004 15.8703 18.6438 15.4557 18.4653C13.9179 17.6936 12.6071 16.5353 11.652 15.1042C11.1312 14.4415 10.8152 13.6412 10.7428 12.8015C10.7366 12.4548 10.8027 12.1106 10.9369 11.7909C11.071 11.4712 11.2704 11.1829 11.5221 10.9445C11.5965 10.8596 11.6877 10.791 11.7899 10.7431C11.892 10.6952 12.003 10.6689 12.1159 10.6659C12.2642 10.6659 12.4129 10.6673 12.5426 10.6738C12.6793 10.6806 12.8628 10.6218 13.0436 11.0559C13.2291 11.5016 13.6745 12.5972 13.7301 12.7086C13.7654 12.7669 13.7855 12.8332 13.7888 12.9013C13.792 12.9694 13.7783 13.0372 13.7487 13.0986C13.6926 13.2324 13.6176 13.3575 13.526 13.47C13.4147 13.6 13.2922 13.7602 13.1921 13.86C13.0805 13.971 12.9645 14.0915 13.0943 14.3143C13.4288 14.8867 13.8462 15.4064 14.3331 15.8563C14.8612 16.3259 15.4671 16.6998 16.1237 16.9612C16.3463 17.0727 16.4762 17.0541 16.6061 16.9055C16.736 16.757 17.1627 16.2555 17.3111 16.0327C17.4595 15.8099 17.608 15.847 17.812 15.9213C18.0161 15.9956 19.1109 16.5341 19.3336 16.6455C19.5563 16.7569 19.7047 16.8127 19.7604 16.9055C19.8214 17.2635 19.7762 17.6314 19.6306 17.9641V17.964Z" fill="white"/>
</g>
</svg>
