<svg width="30" height="30" viewBox="0 0 30 30" fill="none" xmlns="http://www.w3.org/2000/svg">
<g id="Whatsapp">
<path id="Vector" d="M27.4877 8.18329C27.4771 7.64695 27.4339 7.11176 27.3583 6.58066C27.2687 6.10887 27.1164 5.65117 26.9054 5.21972C26.4428 4.30543 25.7007 3.5625 24.7869 3.09891C24.358 2.88855 23.903 2.73632 23.4338 2.64625C22.8987 2.56916 22.3594 2.52514 21.8188 2.51442C21.5895 2.5061 21.2927 2.50199 21.1558 2.50199L8.84613 2.5C8.70971 2.5 8.41286 2.50412 8.18329 2.51229C7.64695 2.52283 7.11175 2.56604 6.58066 2.64167C6.10887 2.73131 5.65117 2.8836 5.21972 3.09449C4.30545 3.55718 3.56251 4.29932 3.09882 5.21309C2.88853 5.64201 2.73631 6.09704 2.64618 6.56616C2.56915 7.10128 2.52512 7.64064 2.51434 8.18116C2.50618 8.4105 2.50199 8.70729 2.50199 8.84416L2.5 21.1539C2.5 21.2902 2.50412 21.5871 2.51229 21.8167C2.52283 22.3531 2.56604 22.8883 2.64167 23.4193C2.73133 23.8911 2.88361 24.3488 3.09449 24.7803C3.55715 25.6945 4.29927 26.4374 5.21301 26.9011C5.64197 27.1114 6.09702 27.2636 6.56616 27.3537C7.10127 27.4308 7.64063 27.4749 8.18116 27.4856C8.41043 27.4938 8.70729 27.498 8.84416 27.498L21.1539 27.5C21.2902 27.5 21.5871 27.4959 21.8166 27.4877C22.353 27.4771 22.8882 27.4339 23.4193 27.3583C23.8911 27.2686 24.3488 27.1163 24.7802 26.9055C25.6945 26.4428 26.4374 25.7007 26.9011 24.7869C27.1114 24.358 27.2636 23.903 27.3537 23.4338C27.4308 22.8987 27.4749 22.3594 27.4857 21.8188C27.4939 21.5895 27.498 21.2927 27.498 21.1558L27.5 8.84613C27.5 8.70979 27.4959 8.41286 27.4877 8.18329Z" fill="#353531"/>
<path id="Vector_2" d="M15.2742 7.37634C13.9506 7.37603 12.6511 7.73032 11.5109 8.40237C10.3706 9.07442 9.43126 10.0397 8.79045 11.1978C8.14963 12.3559 7.83077 13.6645 7.86704 14.9875C7.90331 16.3106 8.29338 17.5998 8.99668 18.721L9.17286 19.0012L8.42457 21.7335L11.2279 20.9983L11.4983 21.1588C12.6397 21.8347 13.9418 22.1911 15.2682 22.191H15.2712C17.2341 22.1888 19.1159 21.4077 20.5033 20.0191C21.8906 18.6305 22.6701 16.748 22.6705 14.7851C22.6709 12.8222 21.8922 10.9395 20.5054 9.5503C19.1186 8.16116 17.2371 7.37926 15.2742 7.37634H15.2742ZM19.6309 17.9638C19.467 18.2344 19.2488 18.4681 18.9902 18.6503C18.7315 18.8324 18.4379 18.9591 18.128 19.0223C17.66 19.1024 17.1797 19.0722 16.7255 18.9342C16.2944 18.8002 15.8707 18.6437 15.4561 18.4652C13.9182 17.6935 12.6075 16.5352 11.6523 15.104C11.1316 14.4413 10.8156 13.641 10.7431 12.8013C10.7369 12.4547 10.8031 12.1105 10.9372 11.7908C11.0714 11.471 11.2707 11.1828 11.5225 10.9443C11.5969 10.8595 11.688 10.7909 11.7902 10.743C11.8924 10.695 12.0034 10.6688 12.1162 10.6658C12.2646 10.6658 12.4132 10.6672 12.5429 10.6737C12.6796 10.6804 12.8632 10.6217 13.044 11.0558C13.2295 11.5014 13.6748 12.5971 13.7304 12.7085C13.7657 12.7668 13.7859 12.833 13.7892 12.9011C13.7924 12.9692 13.7786 13.0371 13.7491 13.0985C13.6929 13.2323 13.6179 13.3574 13.5264 13.4699C13.415 13.5999 13.2925 13.7601 13.1924 13.8599C13.0809 13.9709 12.9648 14.0914 13.0947 14.3141C13.4291 14.8866 13.8466 15.4062 14.3334 15.8562C14.8615 16.3258 15.4675 16.6997 16.1241 16.9611C16.3467 17.0726 16.4766 17.0539 16.6065 16.9054C16.7364 16.7568 17.1631 16.2554 17.3115 16.0326C17.4598 15.8098 17.6083 15.8469 17.8124 15.9212C18.0165 15.9955 19.1113 16.534 19.334 16.6454C19.5567 16.7568 19.7051 16.8125 19.7607 16.9054C19.8217 17.2633 19.7766 17.6313 19.6309 17.9639V17.9638Z" fill="white"/>
</g>
</svg>
