<svg width="593" height="350" viewBox="0 0 593 350" fill="none" xmlns="http://www.w3.org/2000/svg">
<rect width="593" height="440" transform="translate(0 -45)" fill="white"/>
<path d="M249.193 360.47C249.107 360.47 249.022 360.451 248.949 360.405L162.062 310.892C161.91 310.807 161.812 310.643 161.812 310.465C161.812 310.288 161.904 310.123 162.062 310.038L236.226 267.532C236.463 267.394 236.765 267.479 236.897 267.716C237.035 267.953 236.95 268.255 236.713 268.387L163.299 310.458L249.193 359.405L300.726 329.316C300.878 329.23 301.069 329.224 301.22 329.316L322.475 341.442L365.234 317.044C365.471 316.913 365.774 316.992 365.905 317.228C366.044 317.465 365.958 317.767 365.721 317.899L322.718 342.435C322.567 342.52 322.383 342.52 322.231 342.435L300.977 330.308L249.443 360.398C249.364 360.444 249.278 360.464 249.193 360.464V360.47Z" fill="#E7E9EB"/>
<path d="M434.355 316.959C434.27 316.959 434.178 316.933 434.099 316.887L359.935 272.192C359.704 272.054 359.625 271.746 359.77 271.515C359.908 271.285 360.218 271.207 360.448 271.351L434.612 316.046C434.842 316.184 434.921 316.493 434.777 316.723C434.684 316.874 434.52 316.959 434.355 316.959Z" fill="#E7E9EB"/>
<path d="M452.918 259.429C452.833 259.429 452.747 259.409 452.675 259.363L431.17 247.092C430.933 246.954 430.854 246.658 430.986 246.422C431.124 246.185 431.42 246.106 431.657 246.237L452.912 258.364L537.068 208.55L502.26 188.812C502.109 188.726 502.01 188.562 502.01 188.384C502.01 188.207 502.102 188.043 502.253 187.957L544.519 162.981L512.357 144.998C512.12 144.866 512.035 144.564 512.167 144.328C512.298 144.091 512.601 144.005 512.838 144.137L545.75 162.541C545.901 162.626 546 162.79 546 162.968C546 163.145 545.908 163.31 545.757 163.395L503.484 188.378L538.285 208.116C538.437 208.201 538.536 208.365 538.536 208.543C538.536 208.72 538.443 208.885 538.292 208.97L453.162 259.363C453.083 259.409 452.997 259.429 452.912 259.429H452.918Z" fill="#E7E9EB"/>
<path d="M371.983 317.185C371.996 314.796 368.65 312.842 364.509 312.82C360.368 312.797 357.001 314.715 356.988 317.104C356.975 319.492 360.321 321.447 364.462 321.469C368.603 321.492 371.97 319.573 371.983 317.185Z" fill="#E7E9EB"/>
<path d="M74.6472 228.195C71.7246 229.878 66.9787 229.871 64.043 228.175C61.1072 226.48 61.0875 223.745 64.0101 222.063C66.9326 220.38 71.6786 220.387 74.6143 222.082C77.5501 223.778 77.5698 226.512 74.6472 228.195Z" fill="#E7E9EB"/>
<path d="M474.668 41.7914C474.681 39.4029 471.335 37.4485 467.195 37.4261C463.054 37.4037 459.687 39.3218 459.674 41.7104C459.661 44.0989 463.007 46.0533 467.148 46.0757C471.288 46.098 474.655 44.1799 474.668 41.7914Z" fill="#E7E9EB"/>
<path d="M200.338 331.879C198.1 333.174 194.453 333.167 192.195 331.866C189.937 330.565 189.931 328.461 192.169 327.173C194.407 325.878 198.054 325.885 200.311 327.186C202.569 328.488 202.576 330.591 200.338 331.879Z" fill="#E7E9EB"/>
<path d="M183.5 287.224C181.262 288.519 177.616 288.513 175.358 287.211C173.1 285.91 173.093 283.807 175.331 282.518C177.569 281.23 181.216 281.23 183.474 282.531C185.732 283.833 185.738 285.936 183.5 287.224Z" fill="#E7E9EB"/>
<path d="M79.9128 160.713C77.6748 162.007 74.0282 162.001 71.7704 160.699C69.5126 159.398 69.506 157.295 71.7441 156.007C73.9821 154.718 77.6287 154.718 79.8865 156.02C82.1443 157.321 82.1508 159.424 79.9128 160.713Z" fill="#E7E9EB"/>
<path d="M132.131 69.5754C129.893 70.8703 126.246 70.8637 123.989 69.5623C121.731 68.2609 121.724 66.1576 123.962 64.8694C126.2 63.5745 129.847 63.5811 132.105 64.8825C134.363 66.1839 134.369 68.2872 132.131 69.5754Z" fill="#E7E9EB"/>
<path d="M480.584 246.539C478.346 247.834 474.699 247.827 472.441 246.526C470.184 245.224 470.177 243.121 472.415 241.833C474.653 240.544 478.3 240.544 480.557 241.846C482.815 243.147 482.822 245.251 480.584 246.539Z" fill="#E7E9EB"/>
<path d="M332.611 25.7155C330.373 27.0104 326.726 27.0038 324.469 25.7024C322.211 24.401 322.204 22.2977 324.442 21.0095C326.68 19.7212 330.327 19.7212 332.585 21.0226C334.842 22.324 334.849 24.4273 332.611 25.7155Z" fill="#E7E9EB"/>
<path d="M438.686 319.207C435.764 320.889 431.018 320.883 428.082 319.187C425.146 317.491 425.127 314.757 428.049 313.074C430.972 311.392 435.718 311.398 438.653 313.094C441.589 314.79 441.609 317.524 438.686 319.207Z" fill="#E7E9EB"/>
<path d="M518.084 148.513C515.161 150.196 510.415 150.189 507.479 148.494C504.544 146.798 504.524 144.064 507.447 142.381C510.369 140.698 515.115 140.705 518.051 142.401C520.987 144.097 521.006 146.831 518.084 148.513Z" fill="#E7E9EB"/>
<path d="M134.113 312.017L68.1636 274.644L111.397 249.885L69.355 225.553L69.8487 224.698L113.371 249.885L70.158 274.638L134.106 310.88L198.146 273.994L198.64 274.848L134.113 312.017Z" fill="#E7E9EB"/>
<path d="M102.069 206.636L101.826 206.491L46.6719 174.738L99.3442 144.274L73.2384 128.723L116.36 103.319L163.016 130.57L162.516 131.418L116.366 104.463L75.1737 128.729L101.293 144.287L48.6466 174.732L102.076 205.499L121.139 194.68L121.626 195.541L102.069 206.636Z" fill="#E7E9EB"/>
<path d="M424.304 141.915L423.824 141.06L487.923 104.864L444.479 79.8881L487.923 55.2404L381.295 -5.97132L296.389 42.7522L318.11 55.2404L317.367 55.6676L231.466 104.963L230.973 104.109L316.129 55.2404L294.407 42.7522L381.295 -7.1084L381.545 -6.97037L489.918 55.247L446.467 79.8946L489.918 104.871L424.304 141.915Z" fill="#E7E9EB"/>
<path d="M175.99 114.474L110.738 76.9108L154.169 51.9411L131.782 39.4529L176.562 14.2334L176.806 14.3714L219.921 38.6905L219.433 39.5515L176.562 15.3639L133.796 39.4463L156.17 51.9279L112.72 76.9108L176.483 113.619L175.99 114.474Z" fill="#E7E9EB"/>
<path d="M507.983 193.015C508.355 124.354 412.107 68.1722 293.008 67.5287C173.908 66.8853 77.0574 122.024 76.6854 190.685C76.3133 259.346 172.561 315.528 291.661 316.172C410.76 316.815 507.611 261.676 507.983 193.015Z" fill="#E7E9EB"/>
<path d="M438.555 103.976L468.681 121.342C467.166 120.094 465.595 118.861 464.001 117.644L439.422 103.477L438.555 103.976Z" fill="white"/>
<path d="M438.538 102.962L421.327 93.0382C419.24 92.1255 417.123 91.2517 414.998 90.3857L437.679 103.461L438.546 102.962H438.538Z" fill="white"/>
<path d="M178.111 294.44L143.14 274.281L142.273 274.781L177.244 294.939L178.111 294.44Z" fill="white"/>
<path d="M105.068 252.328C105.388 252.656 105.724 252.983 106.052 253.311L106.412 253.1L105.068 252.328Z" fill="white"/>
<path d="M178.119 295.447L183.392 298.489C184.705 298.942 186.041 299.347 187.369 299.776L178.986 294.947L178.119 295.447Z" fill="white"/>
<path d="M142.257 273.774L107.287 253.615L106.685 253.958C106.935 254.208 107.177 254.45 107.435 254.7L141.39 274.273L142.257 273.774Z" fill="white"/>
<path d="M246.614 296.281L211.644 276.122L210.776 276.621L245.747 296.78L246.614 296.281Z" fill="white"/>
<path d="M103.232 214.623L138.203 234.782L139.07 234.275L104.099 214.116L103.232 214.623Z" fill="white"/>
<path d="M246.63 297.287L278.374 315.59C278.999 315.613 279.624 315.644 280.249 315.668L247.497 296.788L246.63 297.287Z" fill="white"/>
<path d="M139.078 235.289L174.048 255.448L174.915 254.949L139.945 234.79L139.078 235.289Z" fill="white"/>
<path d="M103.216 213.61L77.6133 198.85C77.6523 199.208 77.6836 199.56 77.7305 199.918L102.349 214.109L103.216 213.61Z" fill="white"/>
<path d="M210.761 275.615L175.798 255.456L174.931 255.955L209.894 276.114L210.761 275.615Z" fill="white"/>
<path d="M135.89 195.791L170.852 215.95L171.72 215.451L136.757 195.292L135.89 195.791Z" fill="white"/>
<path d="M315.133 299.128L339.353 313.093C339.83 313.03 340.306 312.976 340.783 312.913L316.001 298.629L315.133 299.128Z" fill="white"/>
<path d="M100.021 174.118L82.3872 163.953C82.2778 164.226 82.1685 164.491 82.0669 164.764L99.1615 174.618L100.029 174.118H100.021Z" fill="white"/>
<path d="M243.419 256.783L208.456 236.632L207.589 237.131L242.552 257.29L243.419 256.783Z" fill="white"/>
<path d="M315.118 298.122L280.148 277.963L279.28 278.462L314.251 298.621L315.118 298.122Z" fill="white"/>
<path d="M171.735 216.457L206.706 236.616L207.573 236.117L172.603 215.958L171.735 216.457Z" fill="white"/>
<path d="M100.036 175.125L135.007 195.284L135.874 194.785L100.903 174.626L100.036 175.125Z" fill="white"/>
<path d="M279.272 277.456L244.302 257.297L243.435 257.796L278.397 277.955L279.272 277.456Z" fill="white"/>
<path d="M347.776 279.298L312.805 259.139L311.938 259.638L346.909 279.797L347.776 279.298Z" fill="white"/>
<path d="M132.694 156.3L167.665 176.459L168.532 175.96L133.562 155.801L132.694 156.3Z" fill="white"/>
<path d="M132.679 155.294L99.458 136.142C99.2627 136.368 99.0752 136.586 98.8799 136.813L131.803 155.793L132.671 155.294H132.679Z" fill="white"/>
<path d="M311.922 258.624L276.96 238.465L276.092 238.972L311.055 259.123L311.922 258.624Z" fill="white"/>
<path d="M168.54 176.966L203.511 197.125L204.378 196.626L169.415 176.467L168.54 176.966Z" fill="white"/>
<path d="M276.077 237.958L241.107 217.799L240.239 218.298L275.21 238.457L276.077 237.958Z" fill="white"/>
<path d="M383.638 300.97L387.849 303.396C388.24 303.287 388.622 303.178 389.013 303.069L384.505 300.471L383.638 300.97Z" fill="white"/>
<path d="M204.394 197.632L239.356 217.791L240.231 217.292L205.261 197.133L204.394 197.632Z" fill="white"/>
<path d="M383.622 299.964L348.651 279.805L347.784 280.304L382.754 300.463L383.622 299.964Z" fill="white"/>
<path d="M165.353 137.476L200.315 157.635L201.183 157.135L166.22 136.977L165.353 137.476Z" fill="white"/>
<path d="M201.198 158.141L236.168 178.3L237.036 177.8L202.065 157.642L201.198 158.141Z" fill="white"/>
<path d="M237.052 178.807L272.015 198.966L272.882 198.466L237.919 178.308L237.052 178.807Z" fill="white"/>
<path d="M416.295 282.145L427.796 288.776C428.116 288.628 428.452 288.487 428.773 288.339L417.163 281.646L416.295 282.145Z" fill="white"/>
<path d="M344.58 239.799L309.61 219.64L308.743 220.139L343.713 240.298L344.58 239.799Z" fill="white"/>
<path d="M416.279 281.131L381.309 260.972L380.441 261.479L415.412 281.638L416.279 281.131Z" fill="white"/>
<path d="M129.499 116.81L164.47 136.969L165.337 136.469L130.374 116.311L129.499 116.81Z" fill="white"/>
<path d="M129.491 115.803L125.061 113.244C124.803 113.431 124.553 113.619 124.295 113.798L128.632 116.294L129.499 115.795L129.491 115.803Z" fill="white"/>
<path d="M380.426 260.465L345.463 240.306L344.596 240.805L379.558 260.964L380.426 260.465Z" fill="white"/>
<path d="M308.735 219.132L273.764 198.974L272.897 199.473L307.868 219.632L308.735 219.132Z" fill="white"/>
<path d="M448.945 263.313L460.462 269.952C460.719 269.765 460.969 269.577 461.227 269.398L449.813 262.813L448.945 263.313Z" fill="white"/>
<path d="M341.385 200.308L306.422 180.149L305.555 180.649L340.518 200.808L341.385 200.308Z" fill="white"/>
<path d="M377.238 220.974L342.268 200.815L341.4 201.315L376.371 221.474L377.238 220.974Z" fill="white"/>
<path d="M413.084 241.639L378.121 221.48L377.254 221.98L412.217 242.139L413.084 241.639Z" fill="white"/>
<path d="M162.141 96.9702L157.93 94.5439C157.61 94.6922 157.274 94.8326 156.954 94.9808L161.274 97.4773L162.141 96.978V96.9702Z" fill="white"/>
<path d="M162.157 97.9846L197.127 118.143L197.995 117.636L163.024 97.4775L162.157 97.9846Z" fill="white"/>
<path d="M198.01 118.651L232.973 138.81L233.84 138.31L198.877 118.151L198.01 118.651Z" fill="white"/>
<path d="M448.938 262.306L413.967 242.147L413.1 242.647L448.071 262.806L448.938 262.306Z" fill="white"/>
<path d="M269.702 159.983L304.672 180.142L305.539 179.642L270.569 159.483L269.702 159.983Z" fill="white"/>
<path d="M233.856 139.317L268.827 159.476L269.694 158.976L234.724 138.817L233.856 139.317Z" fill="white"/>
<path d="M481.588 243.481L446.625 223.322L445.758 223.822L480.721 243.98L481.588 243.481Z" fill="white"/>
<path d="M266.514 120.491L301.477 140.65L302.344 140.143L267.381 119.984L266.514 120.491Z" fill="white"/>
<path d="M230.66 99.8177L265.631 119.977L266.498 119.477L231.527 99.3184L230.66 99.8177Z" fill="white"/>
<path d="M302.359 141.157L337.33 161.316L338.197 160.817L303.227 140.658L302.359 141.157Z" fill="white"/>
<path d="M481.604 244.488L485.862 246.945C486.049 246.719 486.237 246.493 486.424 246.266L482.471 243.988L481.604 244.488Z" fill="white"/>
<path d="M409.896 202.149L374.926 181.99L374.059 182.49L409.029 202.648L409.896 202.149Z" fill="white"/>
<path d="M445.743 222.815L410.772 202.656L409.905 203.156L444.875 223.314L445.743 222.815Z" fill="white"/>
<path d="M230.653 98.8112L198.065 80.0254C197.674 80.1346 197.292 80.2438 196.901 80.353L229.785 99.3105L230.653 98.8112Z" fill="white"/>
<path d="M374.043 181.483L339.08 161.324L338.213 161.823L373.176 181.982L374.043 181.483Z" fill="white"/>
<path d="M263.303 79.9865L246.817 70.4844C246.341 70.539 245.864 70.6014 245.388 70.6638L262.428 80.4858L263.295 79.9865H263.303Z" fill="white"/>
<path d="M299.172 101.659L334.135 121.818L335.002 121.319L300.039 101.16L299.172 101.659Z" fill="white"/>
<path d="M263.319 80.9934L298.289 101.152L299.157 100.653L264.186 80.4941L263.319 80.9934Z" fill="white"/>
<path d="M478.4 203.99L443.43 183.831L442.562 184.33L477.533 204.489L478.4 203.99Z" fill="white"/>
<path d="M442.547 183.324L407.584 163.165L406.717 163.664L441.68 183.823L442.547 183.324Z" fill="white"/>
<path d="M406.701 162.658L371.731 142.499L370.863 142.998L405.834 163.157L406.701 162.658Z" fill="white"/>
<path d="M478.416 204.996L502.69 218.992C502.792 218.719 502.886 218.438 502.987 218.165L479.283 204.497L478.416 204.996Z" fill="white"/>
<path d="M335.018 122.333L369.988 142.484L370.855 141.985L335.885 121.826L335.018 122.333Z" fill="white"/>
<path d="M367.675 103.5L402.638 123.659L403.505 123.16L368.543 103.001L367.675 103.5Z" fill="white"/>
<path d="M475.205 164.492L440.242 144.333L439.375 144.84L474.338 164.999L475.205 164.492Z" fill="white"/>
<path d="M331.822 82.8343L366.792 102.993L367.66 102.494L332.689 82.335L331.822 82.8343Z" fill="white"/>
<path d="M331.806 81.8283L308.25 68.246C307.625 68.2148 307 68.1914 306.375 68.168L330.939 82.3275L331.806 81.8283Z" fill="white"/>
<path d="M439.359 143.826L404.388 123.667L403.521 124.166L438.492 144.325L439.359 143.826Z" fill="white"/>
<path d="M475.22 165.506L507.027 183.839C506.98 183.481 506.933 183.122 506.886 182.755L476.095 164.999L475.228 165.498L475.22 165.506Z" fill="white"/>
<path d="M130.374 116.31L162.165 97.9845L163.032 97.4852L188.268 82.9355C186.939 83.3568 185.611 83.7703 184.299 84.2072L162.149 96.9781L161.282 97.4774L129.491 115.803L128.624 116.302L105.537 129.611C104.771 130.376 104.021 131.148 103.287 131.928L129.507 116.809L130.374 116.31Z" fill="white"/>
<path d="M100.904 174.626L132.694 156.3L133.562 155.801L165.352 137.475L166.22 136.976L198.01 118.651L198.878 118.151L230.668 99.8257L231.535 99.3264L263.326 81.0009L264.193 80.5016L286.07 67.8945C285.468 67.9023 284.866 67.9023 284.273 67.9179L263.318 80.0023L262.451 80.5016L230.66 98.8271L229.793 99.3264L198.002 117.652L197.135 118.151L165.344 136.477L164.477 136.976L132.687 155.302L131.819 155.801L100.029 174.126L99.1613 174.626L77.3008 187.225C77.2852 187.576 77.2539 187.927 77.2383 188.278L100.036 175.133L100.904 174.634V174.626Z" fill="white"/>
<path d="M104.099 214.117L135.89 195.791L136.757 195.292L168.548 176.967L169.415 176.467L201.206 158.142L202.073 157.642L233.864 139.317L234.731 138.818L266.522 120.492L267.389 119.993L299.18 101.667L300.047 101.168L331.838 82.8425L332.705 82.3432L349.729 72.529C349.268 72.451 348.807 72.3808 348.346 72.3105L331.822 81.8361L330.955 82.3354L299.164 100.661L298.297 101.16L266.506 119.486L265.639 119.985L233.848 138.311L232.981 138.81L201.19 157.135L200.323 157.635L168.532 175.96L167.665 176.459L135.874 194.785L135.007 195.284L103.216 213.61L102.349 214.109L84.9185 224.157C85.0435 224.423 85.1841 224.68 85.3091 224.945L103.232 214.616L104.099 214.117Z" fill="white"/>
<path d="M139.077 235.29L139.945 234.79L171.735 216.465L172.603 215.966L204.393 197.64L205.261 197.141L237.051 178.815L237.919 178.316L269.709 159.99L270.577 159.491L302.367 141.166L303.235 140.666L335.025 122.341L335.892 121.841L367.683 103.516L368.55 103.017L400.06 84.8471C399.685 84.7223 399.302 84.6053 398.927 84.4805L367.668 102.502L366.8 103.001L335.01 121.327L334.142 121.826L302.352 140.151L301.484 140.651L269.694 158.976L268.826 159.476L237.036 177.801L236.168 178.3L204.378 196.626L203.511 197.125L171.72 215.451L170.853 215.95L139.062 234.276L138.195 234.775L106.404 253.1L106.044 253.311C106.263 253.529 106.474 253.74 106.685 253.958L107.287 253.615L139.077 235.29Z" fill="white"/>
<path d="M438.538 102.962L437.671 103.461L403.505 123.16L402.638 123.659L370.847 141.984L369.98 142.484L338.189 160.809L337.322 161.309L305.531 179.634L304.664 180.133L272.873 198.459L272.006 198.958L240.215 217.284L239.348 217.783L207.557 236.109L206.69 236.608L174.899 254.933L174.032 255.433L142.241 273.758L141.374 274.257L136.694 276.957C136.983 277.128 137.272 277.3 137.562 277.472L142.257 274.765L143.124 274.265L174.915 255.94L175.782 255.44L207.573 237.115L208.44 236.616L240.231 218.29L241.098 217.791L272.889 199.465L273.756 198.966L305.547 180.64L306.414 180.141L338.205 161.816L339.072 161.316L370.863 142.991L371.73 142.492L403.521 124.166L404.388 123.667L438.554 103.968L439.421 103.469L440.835 102.65C440.538 102.486 440.234 102.322 439.929 102.158L438.538 102.962Z" fill="white"/>
<path d="M438.492 144.325L406.701 162.65L405.834 163.149L374.043 181.475L373.176 181.974L341.385 200.3L340.518 200.799L308.727 219.125L307.86 219.624L276.069 237.949L275.202 238.449L243.411 256.774L242.544 257.274L210.753 275.599L209.886 276.098L178.095 294.424L177.228 294.923L175.814 295.735C176.173 295.867 176.541 295.992 176.9 296.125L178.111 295.43L178.978 294.931L210.769 276.605L211.636 276.106L243.427 257.781L244.294 257.281L276.085 238.956L276.952 238.457L308.743 220.131L309.61 219.632L341.401 201.306L342.268 200.807L374.059 182.481L374.926 181.982L406.717 163.657L407.584 163.157L439.375 144.832L440.242 144.332L473.267 125.289C473.041 125.086 472.806 124.876 472.58 124.673L439.367 143.825L438.5 144.325H438.492Z" fill="white"/>
<path d="M474.337 164.999L442.547 183.324L441.679 183.824L409.889 202.149L409.021 202.648L377.231 220.974L376.363 221.473L344.573 239.799L343.706 240.298L311.915 258.624L311.048 259.123L279.257 277.448L278.39 277.948L246.599 296.273L245.732 296.773L224.059 309.27C224.504 309.356 224.949 309.434 225.387 309.52L246.614 297.28L247.482 296.78L279.272 278.455L280.14 277.956L311.93 259.63L312.798 259.131L344.588 240.805L345.456 240.306L377.246 221.98L378.114 221.481L409.904 203.156L410.772 202.656L442.562 184.331L443.43 183.831L475.22 165.506L476.087 165.007L496.487 153.25C496.339 153 496.19 152.743 496.042 152.493L475.212 164.5L474.345 164.999H474.337Z" fill="white"/>
<path d="M477.533 204.489L445.742 222.815L444.875 223.314L413.084 241.64L412.217 242.139L380.426 260.464L379.559 260.964L347.768 279.289L346.901 279.789L315.11 298.114L314.243 298.613L284.437 315.8C285.007 315.815 285.577 315.815 286.155 315.823L315.126 299.12L315.993 298.621L347.784 280.296L348.651 279.796L380.442 261.471L381.309 260.972L413.1 242.646L413.967 242.147L445.758 223.821L446.625 223.322L478.416 204.996L479.283 204.497L507.425 188.27C507.401 187.942 507.386 187.615 507.362 187.295L478.4 203.99L477.533 204.489Z" fill="white"/>
<path d="M480.721 243.981L448.93 262.306L448.063 262.805L416.272 281.131L415.405 281.63L383.614 299.956L382.747 300.455L369.871 307.882C370.809 307.679 371.754 307.484 372.692 307.273L383.637 300.962L384.505 300.463L416.295 282.137L417.163 281.638L448.953 263.313L449.821 262.813L481.611 244.488L482.479 243.988L492.588 238.161C492.971 237.607 493.346 237.053 493.706 236.499L481.596 243.481L480.728 243.981H480.721Z" fill="white"/>
<g clip-path="url(#clip0_591_8747)">
<path d="M237.023 139.55L203 119.745L335.712 43L369.735 62.8051L237.023 139.55Z" fill="#015B91"/>
<path d="M237.023 139.55L203 119.745L335.712 43L369.735 62.8051L237.023 139.55Z" fill="#DEDEE0"/>
<path d="M237.023 139.55L203 119.745L335.712 43L369.735 62.8051L237.023 139.55Z" fill="url(#paint0_linear_591_8747)"/>
<path d="M237.259 245L203.265 225.195L203 119.745L237.023 139.55L237.259 245Z" fill="#013250"/>
<path d="M237.259 245L203.265 225.195L203 119.745L237.023 139.55L237.259 245Z" fill="url(#paint1_linear_591_8747)"/>
<path d="M237.023 139.549L369.735 62.8047L370 168.255L237.259 245L237.023 139.549Z" fill="#014873"/>
<path d="M237.023 139.549L369.735 62.8047L370 168.255L237.259 245L237.023 139.549Z" fill="url(#paint2_linear_591_8747)"/>
<path d="M215.939 127.289L348.71 50.5742L349.798 51.1931L217.086 127.967L215.939 127.289Z" fill="#012C46"/>
<path d="M215.939 127.289L348.71 50.5742L349.798 51.1931L217.086 127.967L215.939 127.289Z" fill="url(#paint3_linear_591_8747)"/>
<path d="M217.115 127.937L217.38 233.417L216.233 232.739L215.968 127.289L217.115 127.937Z" fill="#012C46"/>
<path d="M217.115 127.937L217.38 233.417L216.233 232.739L215.968 127.289L217.115 127.937Z" fill="url(#paint4_linear_591_8747)"/>
<path d="M248.374 117.063V117.859L242.552 121.219V120.453L248.374 117.063Z" fill="#023E5A"/>
<path d="M248.374 117.063V117.859L242.552 121.219V120.453L248.374 117.063Z" fill="url(#paint5_linear_591_8747)"/>
<path d="M242.552 120.452V121.218L226.172 111.758V110.962L242.552 120.452Z" fill="#012B3E"/>
<path d="M242.552 120.452V121.218L226.172 111.758V110.962L242.552 120.452Z" fill="url(#paint6_linear_591_8747)"/>
<path d="M231.995 107.603L248.374 117.063L242.552 120.452L226.172 110.962L231.995 107.603Z" fill="#024564"/>
<path d="M231.995 107.603L248.374 117.063L242.552 120.452L226.172 110.962L231.995 107.603Z" fill="url(#paint7_linear_591_8747)"/>
<path d="M333.948 68.6699V69.4657L328.125 72.8255V72.0297L333.948 68.6699Z" fill="#023E5A"/>
<path d="M333.948 68.6699V69.4657L328.125 72.8255V72.0297L333.948 68.6699Z" fill="url(#paint8_linear_591_8747)"/>
<path d="M328.125 72.029V72.8247L311.746 63.3348V62.5391L328.125 72.029Z" fill="#012B3E"/>
<path d="M328.125 72.029V72.8247L311.746 63.3348V62.5391L328.125 72.029Z" fill="url(#paint9_linear_591_8747)"/>
<path d="M317.568 59.1797L333.948 68.6696L328.125 72.0294L311.746 62.5395L317.568 59.1797Z" fill="#024564"/>
<path d="M317.568 59.1797L333.948 68.6696L328.125 72.0294L311.746 62.5395L317.568 59.1797Z" fill="url(#paint10_linear_591_8747)"/>
<path d="M310.599 83.1409L304.511 79.6043L304.453 56.1152L310.54 59.6813L310.599 83.1409Z" fill="#8E8E8E"/>
<path d="M267.048 77.7472L260.96 74.2106L310.334 45.6523L316.421 49.189L267.048 77.7472Z" fill="#E5E5E5"/>
<path d="M267.136 108.28L261.019 104.714L260.96 74.2109L267.048 77.7476L267.136 108.28Z" fill="#9E9E9E"/>
<path d="M267.048 77.7467L316.422 49.1885L316.51 79.7213L310.599 83.14L310.54 59.6805L272.988 81.3717L273.047 104.861L267.136 108.28L267.048 77.7467Z" fill="#C4C4C4"/>
<path d="M322.979 104.743L309.099 148.096L322.626 155.818L290.573 203.061L305.041 164.394L291.514 159.325L322.979 104.743Z" fill="url(#paint11_linear_591_8747)"/>
</g>
<defs>
<linearGradient id="paint0_linear_591_8747" x1="286" y1="-6" x2="286" y2="213" gradientUnits="userSpaceOnUse">
<stop stop-color="#EAE9EC"/>
<stop offset="1" stop-color="#262626"/>
</linearGradient>
<linearGradient id="paint1_linear_591_8747" x1="220.129" y1="119.745" x2="220.129" y2="245" gradientUnits="userSpaceOnUse">
<stop stop-color="#7A7A7A"/>
<stop offset="1" stop-color="#171717"/>
</linearGradient>
<linearGradient id="paint2_linear_591_8747" x1="303.512" y1="62.8047" x2="303.512" y2="245" gradientUnits="userSpaceOnUse">
<stop stop-color="#7A7A7A"/>
<stop offset="1" stop-color="#171717"/>
</linearGradient>
<linearGradient id="paint3_linear_591_8747" x1="400.5" y1="6.5" x2="282.868" y2="127.967" gradientUnits="userSpaceOnUse">
<stop stop-color="#262626"/>
<stop offset="1" stop-color="#EAE9EC"/>
</linearGradient>
<linearGradient id="paint4_linear_591_8747" x1="216.674" y1="127.289" x2="216.674" y2="233.417" gradientUnits="userSpaceOnUse">
<stop stop-color="#EAE9EC"/>
<stop offset="1" stop-color="#262626"/>
</linearGradient>
<linearGradient id="paint5_linear_591_8747" x1="245.463" y1="117.063" x2="245.463" y2="121.219" gradientUnits="userSpaceOnUse">
<stop stop-color="#EAE9EC"/>
<stop offset="1" stop-color="#262626"/>
</linearGradient>
<linearGradient id="paint6_linear_591_8747" x1="234.362" y1="110.962" x2="234.362" y2="121.218" gradientUnits="userSpaceOnUse">
<stop stop-color="#EAE9EC"/>
<stop offset="1" stop-color="#262626"/>
</linearGradient>
<linearGradient id="paint7_linear_591_8747" x1="237.273" y1="107.603" x2="237.273" y2="120.452" gradientUnits="userSpaceOnUse">
<stop stop-color="#EAE9EC"/>
<stop offset="1" stop-color="#262626"/>
</linearGradient>
<linearGradient id="paint8_linear_591_8747" x1="331.036" y1="68.6699" x2="331.036" y2="72.8255" gradientUnits="userSpaceOnUse">
<stop stop-color="#EAE9EC"/>
<stop offset="1" stop-color="#262626"/>
</linearGradient>
<linearGradient id="paint9_linear_591_8747" x1="319.935" y1="62.5391" x2="319.935" y2="72.8247" gradientUnits="userSpaceOnUse">
<stop stop-color="#EAE9EC"/>
<stop offset="1" stop-color="#262626"/>
</linearGradient>
<linearGradient id="paint10_linear_591_8747" x1="322.847" y1="59.1797" x2="322.847" y2="72.0294" gradientUnits="userSpaceOnUse">
<stop stop-color="#EAE9EC"/>
<stop offset="1" stop-color="#262626"/>
</linearGradient>
<linearGradient id="paint11_linear_591_8747" x1="306.776" y1="104.743" x2="306.776" y2="203.061" gradientUnits="userSpaceOnUse">
<stop stop-color="#FF6069"/>
<stop offset="1" stop-color="#E30613"/>
</linearGradient>
<clipPath id="clip0_591_8747">
<rect width="167" height="202" fill="white" transform="translate(203 43)"/>
</clipPath>
</defs>
</svg>
