<svg width="593" height="350" viewBox="0 0 593 350" fill="none" xmlns="http://www.w3.org/2000/svg">
<rect width="593" height="440" transform="translate(0 -45)" fill="white"/>
<path d="M249.193 360.47C249.107 360.47 249.022 360.451 248.949 360.405L162.062 310.892C161.91 310.807 161.812 310.643 161.812 310.465C161.812 310.288 161.904 310.123 162.062 310.038L236.226 267.532C236.463 267.394 236.765 267.479 236.897 267.716C237.035 267.953 236.95 268.255 236.713 268.387L163.299 310.458L249.193 359.405L300.726 329.316C300.878 329.23 301.069 329.224 301.22 329.316L322.475 341.442L365.234 317.044C365.471 316.913 365.774 316.992 365.905 317.228C366.044 317.465 365.958 317.767 365.721 317.899L322.718 342.435C322.567 342.52 322.383 342.52 322.231 342.435L300.977 330.308L249.443 360.398C249.364 360.444 249.278 360.464 249.193 360.464V360.47Z" fill="#E7E9EB"/>
<path d="M434.355 316.959C434.27 316.959 434.178 316.933 434.099 316.887L359.935 272.192C359.704 272.054 359.625 271.746 359.77 271.515C359.908 271.285 360.218 271.207 360.448 271.351L434.612 316.046C434.842 316.184 434.921 316.493 434.777 316.723C434.684 316.874 434.52 316.959 434.355 316.959Z" fill="#E7E9EB"/>
<path d="M452.918 259.429C452.833 259.429 452.747 259.409 452.675 259.363L431.17 247.092C430.933 246.954 430.854 246.658 430.986 246.422C431.124 246.185 431.42 246.106 431.657 246.237L452.912 258.364L537.068 208.55L502.26 188.812C502.109 188.726 502.01 188.562 502.01 188.384C502.01 188.207 502.102 188.043 502.253 187.957L544.519 162.981L512.357 144.998C512.12 144.866 512.035 144.564 512.167 144.328C512.298 144.091 512.601 144.005 512.838 144.137L545.75 162.541C545.901 162.626 546 162.79 546 162.968C546 163.145 545.908 163.31 545.757 163.395L503.484 188.378L538.285 208.116C538.437 208.201 538.536 208.365 538.536 208.543C538.536 208.72 538.443 208.885 538.292 208.97L453.162 259.363C453.083 259.409 452.997 259.429 452.912 259.429H452.918Z" fill="#E7E9EB"/>
<path d="M371.983 317.185C371.996 314.796 368.65 312.842 364.509 312.82C360.368 312.797 357.001 314.715 356.988 317.104C356.975 319.492 360.321 321.447 364.462 321.469C368.603 321.492 371.97 319.573 371.983 317.185Z" fill="#E7E9EB"/>
<path d="M74.6472 228.195C71.7246 229.878 66.9787 229.871 64.043 228.175C61.1072 226.48 61.0875 223.745 64.0101 222.063C66.9326 220.38 71.6786 220.387 74.6143 222.082C77.5501 223.778 77.5698 226.512 74.6472 228.195Z" fill="#E7E9EB"/>
<path d="M474.668 41.7914C474.681 39.4029 471.335 37.4485 467.195 37.4261C463.054 37.4037 459.687 39.3218 459.674 41.7104C459.661 44.0989 463.007 46.0533 467.148 46.0757C471.288 46.098 474.655 44.1799 474.668 41.7914Z" fill="#E7E9EB"/>
<path d="M200.338 331.879C198.1 333.174 194.453 333.167 192.195 331.866C189.937 330.565 189.931 328.461 192.169 327.173C194.407 325.878 198.054 325.885 200.311 327.186C202.569 328.488 202.576 330.591 200.338 331.879Z" fill="#E7E9EB"/>
<path d="M183.5 287.224C181.262 288.519 177.616 288.513 175.358 287.211C173.1 285.91 173.093 283.807 175.331 282.518C177.569 281.23 181.216 281.23 183.474 282.531C185.732 283.833 185.738 285.936 183.5 287.224Z" fill="#E7E9EB"/>
<path d="M79.9128 160.713C77.6748 162.007 74.0282 162.001 71.7704 160.699C69.5126 159.398 69.506 157.295 71.7441 156.007C73.9821 154.718 77.6287 154.718 79.8865 156.02C82.1443 157.321 82.1508 159.424 79.9128 160.713Z" fill="#E7E9EB"/>
<path d="M132.131 69.5754C129.893 70.8703 126.246 70.8637 123.989 69.5623C121.731 68.2609 121.724 66.1576 123.962 64.8694C126.2 63.5745 129.847 63.5811 132.105 64.8825C134.363 66.1839 134.369 68.2872 132.131 69.5754Z" fill="#E7E9EB"/>
<path d="M480.584 246.539C478.346 247.834 474.699 247.827 472.441 246.526C470.184 245.224 470.177 243.121 472.415 241.833C474.653 240.544 478.3 240.544 480.557 241.846C482.815 243.147 482.822 245.251 480.584 246.539Z" fill="#E7E9EB"/>
<path d="M332.611 25.7155C330.373 27.0104 326.726 27.0038 324.469 25.7024C322.211 24.401 322.204 22.2977 324.442 21.0095C326.68 19.7212 330.327 19.7212 332.585 21.0226C334.842 22.324 334.849 24.4273 332.611 25.7155Z" fill="#E7E9EB"/>
<path d="M438.686 319.207C435.764 320.889 431.018 320.883 428.082 319.187C425.146 317.491 425.127 314.757 428.049 313.074C430.972 311.392 435.718 311.398 438.653 313.094C441.589 314.79 441.609 317.524 438.686 319.207Z" fill="#E7E9EB"/>
<path d="M518.084 148.513C515.161 150.196 510.415 150.189 507.479 148.494C504.544 146.798 504.524 144.064 507.447 142.381C510.369 140.698 515.115 140.705 518.051 142.401C520.987 144.097 521.006 146.831 518.084 148.513Z" fill="#E7E9EB"/>
<path d="M134.113 312.017L68.1636 274.644L111.397 249.885L69.355 225.553L69.8487 224.698L113.371 249.885L70.158 274.638L134.106 310.88L198.146 273.994L198.64 274.848L134.113 312.017Z" fill="#E7E9EB"/>
<path d="M102.069 206.636L101.826 206.491L46.6719 174.738L99.3442 144.274L73.2384 128.723L116.36 103.319L163.016 130.57L162.516 131.418L116.366 104.463L75.1737 128.729L101.293 144.287L48.6466 174.732L102.076 205.499L121.139 194.68L121.626 195.541L102.069 206.636Z" fill="#E7E9EB"/>
<path d="M424.304 141.915L423.824 141.06L487.923 104.864L444.479 79.8881L487.923 55.2404L381.295 -5.97132L296.389 42.7522L318.11 55.2404L317.367 55.6676L231.466 104.963L230.973 104.109L316.129 55.2404L294.407 42.7522L381.295 -7.1084L381.545 -6.97037L489.918 55.247L446.467 79.8946L489.918 104.871L424.304 141.915Z" fill="#E7E9EB"/>
<path d="M175.99 114.474L110.738 76.9108L154.169 51.9411L131.782 39.4529L176.562 14.2334L176.806 14.3714L219.921 38.6905L219.433 39.5515L176.562 15.3639L133.796 39.4463L156.17 51.9279L112.72 76.9108L176.483 113.619L175.99 114.474Z" fill="#E7E9EB"/>
<path d="M507.983 193.015C508.355 124.354 412.107 68.1722 293.008 67.5287C173.908 66.8853 77.0574 122.024 76.6854 190.685C76.3133 259.346 172.561 315.528 291.661 316.172C410.76 316.815 507.611 261.676 507.983 193.015Z" fill="#E7E9EB"/>
<path d="M438.555 103.976L468.681 121.342C467.166 120.094 465.595 118.861 464.001 117.644L439.422 103.477L438.555 103.976Z" fill="white"/>
<path d="M438.538 102.962L421.327 93.0382C419.24 92.1255 417.123 91.2517 414.998 90.3857L437.679 103.461L438.546 102.962H438.538Z" fill="white"/>
<path d="M178.111 294.44L143.14 274.281L142.273 274.781L177.244 294.939L178.111 294.44Z" fill="white"/>
<path d="M105.068 252.328C105.388 252.656 105.724 252.983 106.052 253.311L106.412 253.1L105.068 252.328Z" fill="white"/>
<path d="M178.119 295.447L183.392 298.489C184.705 298.942 186.041 299.347 187.369 299.776L178.986 294.947L178.119 295.447Z" fill="white"/>
<path d="M142.257 273.774L107.287 253.615L106.685 253.958C106.935 254.208 107.177 254.45 107.435 254.7L141.39 274.273L142.257 273.774Z" fill="white"/>
<path d="M246.614 296.281L211.644 276.122L210.776 276.621L245.747 296.78L246.614 296.281Z" fill="white"/>
<path d="M103.232 214.623L138.203 234.782L139.07 234.275L104.099 214.116L103.232 214.623Z" fill="white"/>
<path d="M246.63 297.287L278.374 315.59C278.999 315.613 279.624 315.644 280.249 315.668L247.497 296.788L246.63 297.287Z" fill="white"/>
<path d="M139.078 235.289L174.048 255.448L174.915 254.949L139.945 234.79L139.078 235.289Z" fill="white"/>
<path d="M103.216 213.61L77.6133 198.85C77.6523 199.208 77.6836 199.56 77.7305 199.918L102.349 214.109L103.216 213.61Z" fill="white"/>
<path d="M210.761 275.615L175.798 255.456L174.931 255.955L209.894 276.114L210.761 275.615Z" fill="white"/>
<path d="M135.89 195.791L170.852 215.95L171.72 215.451L136.757 195.292L135.89 195.791Z" fill="white"/>
<path d="M315.133 299.128L339.353 313.093C339.83 313.03 340.306 312.976 340.783 312.913L316.001 298.629L315.133 299.128Z" fill="white"/>
<path d="M100.021 174.118L82.3872 163.953C82.2778 164.226 82.1685 164.491 82.0669 164.764L99.1615 174.618L100.029 174.118H100.021Z" fill="white"/>
<path d="M243.419 256.783L208.456 236.632L207.589 237.131L242.552 257.29L243.419 256.783Z" fill="white"/>
<path d="M315.118 298.122L280.148 277.963L279.28 278.462L314.251 298.621L315.118 298.122Z" fill="white"/>
<path d="M171.735 216.457L206.706 236.616L207.573 236.117L172.603 215.958L171.735 216.457Z" fill="white"/>
<path d="M100.036 175.125L135.007 195.284L135.874 194.785L100.903 174.626L100.036 175.125Z" fill="white"/>
<path d="M279.272 277.456L244.302 257.297L243.435 257.796L278.397 277.955L279.272 277.456Z" fill="white"/>
<path d="M347.776 279.298L312.805 259.139L311.938 259.638L346.909 279.797L347.776 279.298Z" fill="white"/>
<path d="M132.694 156.3L167.665 176.459L168.532 175.96L133.562 155.801L132.694 156.3Z" fill="white"/>
<path d="M132.679 155.294L99.458 136.142C99.2627 136.368 99.0752 136.586 98.8799 136.813L131.803 155.793L132.671 155.294H132.679Z" fill="white"/>
<path d="M311.922 258.624L276.96 238.465L276.092 238.972L311.055 259.123L311.922 258.624Z" fill="white"/>
<path d="M168.54 176.966L203.511 197.125L204.378 196.626L169.415 176.467L168.54 176.966Z" fill="white"/>
<path d="M276.077 237.958L241.107 217.799L240.239 218.298L275.21 238.457L276.077 237.958Z" fill="white"/>
<path d="M383.638 300.97L387.849 303.396C388.24 303.287 388.622 303.178 389.013 303.069L384.505 300.471L383.638 300.97Z" fill="white"/>
<path d="M204.394 197.632L239.356 217.791L240.231 217.292L205.261 197.133L204.394 197.632Z" fill="white"/>
<path d="M383.622 299.964L348.651 279.805L347.784 280.304L382.754 300.463L383.622 299.964Z" fill="white"/>
<path d="M165.353 137.476L200.315 157.635L201.183 157.135L166.22 136.977L165.353 137.476Z" fill="white"/>
<path d="M201.198 158.141L236.168 178.3L237.036 177.8L202.065 157.642L201.198 158.141Z" fill="white"/>
<path d="M237.052 178.807L272.015 198.966L272.882 198.466L237.919 178.308L237.052 178.807Z" fill="white"/>
<path d="M416.295 282.145L427.796 288.776C428.116 288.628 428.452 288.487 428.773 288.339L417.163 281.646L416.295 282.145Z" fill="white"/>
<path d="M344.58 239.799L309.61 219.64L308.743 220.139L343.713 240.298L344.58 239.799Z" fill="white"/>
<path d="M416.279 281.131L381.309 260.972L380.441 261.479L415.412 281.638L416.279 281.131Z" fill="white"/>
<path d="M129.499 116.81L164.47 136.969L165.337 136.469L130.374 116.311L129.499 116.81Z" fill="white"/>
<path d="M129.491 115.803L125.061 113.244C124.803 113.431 124.553 113.619 124.295 113.798L128.632 116.294L129.499 115.795L129.491 115.803Z" fill="white"/>
<path d="M380.426 260.465L345.463 240.306L344.596 240.805L379.558 260.964L380.426 260.465Z" fill="white"/>
<path d="M308.735 219.132L273.764 198.974L272.897 199.473L307.868 219.632L308.735 219.132Z" fill="white"/>
<path d="M448.945 263.313L460.462 269.952C460.719 269.765 460.969 269.577 461.227 269.398L449.813 262.813L448.945 263.313Z" fill="white"/>
<path d="M341.385 200.308L306.422 180.149L305.555 180.649L340.518 200.808L341.385 200.308Z" fill="white"/>
<path d="M377.238 220.974L342.268 200.815L341.4 201.315L376.371 221.474L377.238 220.974Z" fill="white"/>
<path d="M413.084 241.639L378.121 221.48L377.254 221.98L412.217 242.139L413.084 241.639Z" fill="white"/>
<path d="M162.141 96.9702L157.93 94.5439C157.61 94.6922 157.274 94.8326 156.954 94.9808L161.274 97.4773L162.141 96.978V96.9702Z" fill="white"/>
<path d="M162.157 97.9846L197.127 118.143L197.995 117.636L163.024 97.4775L162.157 97.9846Z" fill="white"/>
<path d="M198.01 118.651L232.973 138.81L233.84 138.31L198.877 118.151L198.01 118.651Z" fill="white"/>
<path d="M448.938 262.306L413.967 242.147L413.1 242.647L448.071 262.806L448.938 262.306Z" fill="white"/>
<path d="M269.702 159.983L304.672 180.142L305.539 179.642L270.569 159.483L269.702 159.983Z" fill="white"/>
<path d="M233.856 139.317L268.827 159.476L269.694 158.976L234.724 138.817L233.856 139.317Z" fill="white"/>
<path d="M481.588 243.481L446.625 223.322L445.758 223.822L480.721 243.98L481.588 243.481Z" fill="white"/>
<path d="M266.514 120.491L301.477 140.65L302.344 140.143L267.381 119.984L266.514 120.491Z" fill="white"/>
<path d="M230.66 99.8177L265.631 119.977L266.498 119.477L231.527 99.3184L230.66 99.8177Z" fill="white"/>
<path d="M302.359 141.157L337.33 161.316L338.197 160.817L303.227 140.658L302.359 141.157Z" fill="white"/>
<path d="M481.604 244.488L485.862 246.945C486.049 246.719 486.237 246.493 486.424 246.266L482.471 243.988L481.604 244.488Z" fill="white"/>
<path d="M409.896 202.149L374.926 181.99L374.059 182.49L409.029 202.648L409.896 202.149Z" fill="white"/>
<path d="M445.743 222.815L410.772 202.656L409.905 203.156L444.875 223.314L445.743 222.815Z" fill="white"/>
<path d="M230.653 98.8112L198.065 80.0254C197.674 80.1346 197.292 80.2438 196.901 80.353L229.785 99.3105L230.653 98.8112Z" fill="white"/>
<path d="M374.043 181.483L339.08 161.324L338.213 161.823L373.176 181.982L374.043 181.483Z" fill="white"/>
<path d="M263.303 79.9865L246.817 70.4844C246.341 70.539 245.864 70.6014 245.388 70.6638L262.428 80.4858L263.295 79.9865H263.303Z" fill="white"/>
<path d="M299.172 101.659L334.135 121.818L335.002 121.319L300.039 101.16L299.172 101.659Z" fill="white"/>
<path d="M263.319 80.9934L298.289 101.152L299.157 100.653L264.186 80.4941L263.319 80.9934Z" fill="white"/>
<path d="M478.4 203.99L443.43 183.831L442.562 184.33L477.533 204.489L478.4 203.99Z" fill="white"/>
<path d="M442.547 183.324L407.584 163.165L406.717 163.664L441.68 183.823L442.547 183.324Z" fill="white"/>
<path d="M406.701 162.658L371.731 142.499L370.863 142.998L405.834 163.157L406.701 162.658Z" fill="white"/>
<path d="M478.416 204.996L502.69 218.992C502.792 218.719 502.886 218.438 502.987 218.165L479.283 204.497L478.416 204.996Z" fill="white"/>
<path d="M335.018 122.333L369.988 142.484L370.855 141.985L335.885 121.826L335.018 122.333Z" fill="white"/>
<path d="M367.675 103.5L402.638 123.659L403.505 123.16L368.543 103.001L367.675 103.5Z" fill="white"/>
<path d="M475.205 164.492L440.242 144.333L439.375 144.84L474.338 164.999L475.205 164.492Z" fill="white"/>
<path d="M331.822 82.8343L366.792 102.993L367.66 102.494L332.689 82.335L331.822 82.8343Z" fill="white"/>
<path d="M331.806 81.8283L308.25 68.246C307.625 68.2148 307 68.1914 306.375 68.168L330.939 82.3275L331.806 81.8283Z" fill="white"/>
<path d="M439.359 143.826L404.388 123.667L403.521 124.166L438.492 144.325L439.359 143.826Z" fill="white"/>
<path d="M475.22 165.506L507.027 183.839C506.98 183.481 506.933 183.122 506.886 182.755L476.095 164.999L475.228 165.498L475.22 165.506Z" fill="white"/>
<path d="M130.374 116.31L162.165 97.9845L163.032 97.4852L188.268 82.9355C186.939 83.3568 185.611 83.7703 184.299 84.2072L162.149 96.9781L161.282 97.4774L129.491 115.803L128.624 116.302L105.537 129.611C104.771 130.376 104.021 131.148 103.287 131.928L129.507 116.809L130.374 116.31Z" fill="white"/>
<path d="M100.904 174.626L132.694 156.3L133.562 155.801L165.352 137.475L166.22 136.976L198.01 118.651L198.878 118.151L230.668 99.8257L231.535 99.3264L263.326 81.0009L264.193 80.5016L286.07 67.8945C285.468 67.9023 284.866 67.9023 284.273 67.9179L263.318 80.0023L262.451 80.5016L230.66 98.8271L229.793 99.3264L198.002 117.652L197.135 118.151L165.344 136.477L164.477 136.976L132.687 155.302L131.819 155.801L100.029 174.126L99.1613 174.626L77.3008 187.225C77.2852 187.576 77.2539 187.927 77.2383 188.278L100.036 175.133L100.904 174.634V174.626Z" fill="white"/>
<path d="M104.099 214.117L135.89 195.791L136.757 195.292L168.548 176.967L169.415 176.467L201.206 158.142L202.073 157.642L233.864 139.317L234.731 138.818L266.522 120.492L267.389 119.993L299.18 101.667L300.047 101.168L331.838 82.8425L332.705 82.3432L349.729 72.529C349.268 72.451 348.807 72.3808 348.346 72.3105L331.822 81.8361L330.955 82.3354L299.164 100.661L298.297 101.16L266.506 119.486L265.639 119.985L233.848 138.311L232.981 138.81L201.19 157.135L200.323 157.635L168.532 175.96L167.665 176.459L135.874 194.785L135.007 195.284L103.216 213.61L102.349 214.109L84.9185 224.157C85.0435 224.423 85.1841 224.68 85.3091 224.945L103.232 214.616L104.099 214.117Z" fill="white"/>
<path d="M139.077 235.29L139.945 234.79L171.735 216.465L172.603 215.966L204.393 197.64L205.261 197.141L237.051 178.815L237.919 178.316L269.709 159.99L270.577 159.491L302.367 141.166L303.235 140.666L335.025 122.341L335.892 121.841L367.683 103.516L368.55 103.017L400.06 84.8471C399.685 84.7223 399.302 84.6053 398.927 84.4805L367.668 102.502L366.8 103.001L335.01 121.327L334.142 121.826L302.352 140.151L301.484 140.651L269.694 158.976L268.826 159.476L237.036 177.801L236.168 178.3L204.378 196.626L203.511 197.125L171.72 215.451L170.853 215.95L139.062 234.276L138.195 234.775L106.404 253.1L106.044 253.311C106.263 253.529 106.474 253.74 106.685 253.958L107.287 253.615L139.077 235.29Z" fill="white"/>
<path d="M438.538 102.962L437.671 103.461L403.505 123.16L402.638 123.659L370.847 141.984L369.98 142.484L338.189 160.809L337.322 161.309L305.531 179.634L304.664 180.133L272.873 198.459L272.006 198.958L240.215 217.284L239.348 217.783L207.557 236.109L206.69 236.608L174.899 254.933L174.032 255.433L142.241 273.758L141.374 274.257L136.694 276.957C136.983 277.128 137.272 277.3 137.562 277.472L142.257 274.765L143.124 274.265L174.915 255.94L175.782 255.44L207.573 237.115L208.44 236.616L240.231 218.29L241.098 217.791L272.889 199.465L273.756 198.966L305.547 180.64L306.414 180.141L338.205 161.816L339.072 161.316L370.863 142.991L371.73 142.492L403.521 124.166L404.388 123.667L438.554 103.968L439.421 103.469L440.835 102.65C440.538 102.486 440.234 102.322 439.929 102.158L438.538 102.962Z" fill="white"/>
<path d="M438.492 144.325L406.701 162.65L405.834 163.149L374.043 181.475L373.176 181.974L341.385 200.3L340.518 200.799L308.727 219.125L307.86 219.624L276.069 237.949L275.202 238.449L243.411 256.774L242.544 257.274L210.753 275.599L209.886 276.098L178.095 294.424L177.228 294.923L175.814 295.735C176.173 295.867 176.541 295.992 176.9 296.125L178.111 295.43L178.978 294.931L210.769 276.605L211.636 276.106L243.427 257.781L244.294 257.281L276.085 238.956L276.952 238.457L308.743 220.131L309.61 219.632L341.401 201.306L342.268 200.807L374.059 182.481L374.926 181.982L406.717 163.657L407.584 163.157L439.375 144.832L440.242 144.332L473.267 125.289C473.041 125.086 472.806 124.876 472.58 124.673L439.367 143.825L438.5 144.325H438.492Z" fill="white"/>
<path d="M474.337 164.999L442.547 183.324L441.679 183.824L409.889 202.149L409.021 202.648L377.231 220.974L376.363 221.473L344.573 239.799L343.706 240.298L311.915 258.624L311.048 259.123L279.257 277.448L278.39 277.948L246.599 296.273L245.732 296.773L224.059 309.27C224.504 309.356 224.949 309.434 225.387 309.52L246.614 297.28L247.482 296.78L279.272 278.455L280.14 277.956L311.93 259.63L312.798 259.131L344.588 240.805L345.456 240.306L377.246 221.98L378.114 221.481L409.904 203.156L410.772 202.656L442.562 184.331L443.43 183.831L475.22 165.506L476.087 165.007L496.487 153.25C496.339 153 496.19 152.743 496.042 152.493L475.212 164.5L474.345 164.999H474.337Z" fill="white"/>
<path d="M477.533 204.489L445.742 222.815L444.875 223.314L413.084 241.64L412.217 242.139L380.426 260.464L379.559 260.964L347.768 279.289L346.901 279.789L315.11 298.114L314.243 298.613L284.437 315.8C285.007 315.815 285.577 315.815 286.155 315.823L315.126 299.12L315.993 298.621L347.784 280.296L348.651 279.796L380.442 261.471L381.309 260.972L413.1 242.646L413.967 242.147L445.758 223.821L446.625 223.322L478.416 204.996L479.283 204.497L507.425 188.27C507.401 187.942 507.386 187.615 507.362 187.295L478.4 203.99L477.533 204.489Z" fill="white"/>
<path d="M480.721 243.981L448.93 262.306L448.063 262.805L416.272 281.131L415.405 281.63L383.614 299.956L382.747 300.455L369.871 307.882C370.809 307.679 371.754 307.484 372.692 307.273L383.637 300.962L384.505 300.463L416.295 282.137L417.163 281.638L448.953 263.313L449.821 262.813L481.611 244.488L482.479 243.988L492.588 238.161C492.971 237.607 493.346 237.053 493.706 236.499L481.596 243.481L480.728 243.981H480.721Z" fill="white"/>
<g clip-path="url(#clip0_591_9339)">
<path d="M293.324 179.765L289.923 177.784C289.923 177.784 289.742 177.624 289.696 177.465L293.098 179.446C293.143 179.582 293.211 179.696 293.324 179.765Z" fill="#013249"/>
<path d="M293.097 179.446L289.696 177.465L286.408 167.15L289.787 169.131L293.097 179.446Z" fill="#01293C"/>
<path d="M293.097 179.446L289.696 177.465L286.408 167.15L289.787 169.131L293.097 179.446Z" fill="url(#paint0_linear_591_9339)"/>
<path d="M288.948 166.467L285.547 164.487L278.857 143.607L282.259 145.588L288.948 166.467Z" fill="#01293C"/>
<path d="M288.948 166.467L285.547 164.487L278.857 143.607L282.259 145.588L288.948 166.467Z" fill="url(#paint1_linear_591_9339)"/>
<path d="M283.687 142.059L280.309 140.078C280.309 140.078 280.354 140.078 280.377 140.124L283.778 142.105C283.778 142.105 283.733 142.082 283.71 142.059H283.687Z" fill="#013249"/>
<path d="M264.3 166.421L260.921 164.44L285.547 164.486L288.948 166.467L264.3 166.421Z" fill="#012B3E"/>
<path d="M264.3 166.421L260.921 164.44L285.547 164.486L288.948 166.467L264.3 166.421Z" fill="url(#paint2_linear_591_9339)"/>
<path d="M313.097 78.9887L309.695 77.0078C309.695 77.0078 309.854 77.0306 309.922 77.0761L313.323 79.057C313.323 79.057 313.165 78.9887 313.097 78.9887Z" fill="#013249"/>
<path d="M261.987 166.422L258.608 164.464L277.361 142.674L280.762 144.655L261.987 166.422Z" fill="#013046"/>
<path d="M261.987 166.422L258.608 164.464L277.361 142.674L280.762 144.655L261.987 166.422Z" fill="url(#paint3_linear_591_9339)"/>
<path d="M229.811 216.536L226.41 214.555C226.138 214.396 226.07 214.031 226.183 213.599L229.562 215.58C229.449 216.012 229.539 216.376 229.789 216.536H229.811Z" fill="#013249"/>
<path d="M229.811 216.536L226.41 214.555C226.138 214.396 226.07 214.031 226.183 213.599L229.562 215.58C229.449 216.012 229.539 216.376 229.789 216.536H229.811Z" fill="url(#paint4_linear_591_9339)"/>
<path d="M235.729 196.91L232.328 194.952L256.296 167.128L259.697 169.109L235.729 196.91Z" fill="#013046"/>
<path d="M235.729 196.91L232.328 194.952L256.296 167.128L259.697 169.109L235.729 196.91Z" fill="url(#paint5_linear_591_9339)"/>
<path d="M281.08 141.945L277.701 139.964L272.577 123.935L275.978 125.915L281.08 141.945Z" fill="#01293C"/>
<path d="M281.08 141.945L277.701 139.964L272.577 123.935L275.978 125.915L281.08 141.945Z" fill="url(#paint6_linear_591_9339)"/>
<path d="M264.346 140.534L260.944 138.553L277.701 139.964L281.08 141.945L264.346 140.534Z" fill="#012A3D"/>
<path d="M264.346 140.534L260.944 138.553L277.701 139.964L281.08 141.945L264.346 140.534Z" fill="url(#paint7_linear_591_9339)"/>
<path d="M262.259 140.351L258.881 138.393L269.357 125.21L272.758 127.191L262.259 140.351Z" fill="#013046"/>
<path d="M262.259 140.351L258.881 138.393L269.357 125.21L272.758 127.191L262.259 140.351Z" fill="url(#paint8_linear_591_9339)"/>
<path d="M243.734 166.421L240.355 164.44L258.608 164.463L261.987 166.421H243.734Z" fill="#012B3E"/>
<path d="M243.734 166.421L240.355 164.44L258.608 164.463L261.987 166.421H243.734Z" fill="url(#paint9_linear_591_9339)"/>
<path d="M243.189 164.35L239.788 162.369L256.84 140.943L260.218 142.924L243.189 164.35Z" fill="#013046"/>
<path d="M243.189 164.35L239.788 162.369L256.84 140.943L260.218 142.924L243.189 164.35Z" fill="url(#paint10_linear_591_9339)"/>
<path d="M275.524 122.136L272.146 120.155L272.078 102.122L275.479 104.103L275.524 122.136Z" fill="#012C3F"/>
<path d="M275.524 122.136L272.146 120.155L272.078 102.122L275.479 104.103L275.524 122.136Z" fill="url(#paint11_linear_591_9339)"/>
<path d="M277.542 99.458L274.141 97.4771L305.115 79.5352L308.517 81.4933L277.542 99.458Z" fill="#012F44"/>
<path d="M277.542 99.458L274.141 97.4771L305.115 79.5352L308.517 81.4933L277.542 99.458Z" fill="url(#paint12_linear_591_9339)"/>
<path d="M263.937 119.814L260.559 117.833L272.146 120.155L275.524 122.136L263.937 119.814Z" fill="#012A3C"/>
<path d="M263.937 119.814L260.559 117.833L272.146 120.155L275.524 122.136L263.937 119.814Z" fill="url(#paint13_linear_591_9339)"/>
<path d="M312.961 33.9291L309.56 31.9482C309.56 31.9482 309.718 31.971 309.786 32.0165L313.188 33.9974C313.188 33.9974 313.029 33.9291 312.961 33.9291Z" fill="#013249"/>
<path d="M251.579 139.463L248.201 137.482L258.881 138.393L262.259 140.351L251.579 139.463Z" fill="#012A3D"/>
<path d="M251.579 139.463L248.201 137.482L258.881 138.393L262.259 140.351L251.579 139.463Z" fill="url(#paint14_linear_591_9339)"/>
<path d="M262.1 119.449L258.699 117.468L269.742 102.418L273.143 104.399L262.1 119.449Z" fill="#013046"/>
<path d="M262.1 119.449L258.699 117.468L269.742 102.418L273.143 104.399L262.1 119.449Z" fill="url(#paint15_linear_591_9339)"/>
<path d="M251.08 137.368L247.679 135.387L269.81 122.568L273.189 124.549L251.08 137.368Z" fill="#012F44"/>
<path d="M251.08 137.368L247.679 135.387L269.81 122.568L273.189 124.549L251.08 137.368Z" fill="url(#paint16_linear_591_9339)"/>
<path d="M248.745 137.664L245.344 135.683L256.863 119.973L260.264 121.954L248.745 137.664Z" fill="#013046"/>
<path d="M248.745 137.664L245.344 135.683L256.863 119.973L260.264 121.954L248.745 137.664Z" fill="url(#paint17_linear_591_9339)"/>
<path d="M229.584 215.579L226.183 213.599L243.28 138.962L246.681 140.92L229.584 215.579Z" fill="#012E43"/>
<path d="M229.584 215.579L226.183 213.599L243.28 138.962L246.681 140.92L229.584 215.579Z" fill="url(#paint18_linear_591_9339)"/>
<path d="M275.456 99.6174L272.078 97.6365L272.032 79.6035L275.411 81.5616L275.456 99.6174Z" fill="#012C3F"/>
<path d="M275.456 99.6174L272.078 97.6365L272.032 79.6035L275.411 81.5616L275.456 99.6174Z" fill="url(#paint19_linear_591_9339)"/>
<path d="M277.474 77.4174L274.073 75.4365L309.695 77.0076L313.097 78.9885L277.474 77.4174Z" fill="#012A3D"/>
<path d="M277.474 77.4174L274.073 75.4365L309.695 77.0076L313.097 78.9885L277.474 77.4174Z" fill="url(#paint20_linear_591_9339)"/>
<path d="M263.892 97.2954L260.491 95.3145L272.078 97.6369L275.456 99.6178L263.892 97.2954Z" fill="#012A3C"/>
<path d="M263.892 97.2954L260.491 95.3145L272.078 97.6369L275.456 99.6178L263.892 97.2954Z" fill="url(#paint21_linear_591_9339)"/>
<path d="M251.012 117.218L247.634 115.237L258.699 117.469L262.1 119.45L251.012 117.218Z" fill="#012A3C"/>
<path d="M251.012 117.218L247.634 115.237L258.699 117.469L262.1 119.45L251.012 117.218Z" fill="url(#paint22_linear_591_9339)"/>
<path d="M262.032 96.9081L258.654 94.9272L269.697 79.877L273.075 81.8579L262.032 96.9081Z" fill="#013046"/>
<path d="M262.032 96.9081L258.654 94.9272L269.697 79.877L273.075 81.8579L262.032 96.9081Z" fill="url(#paint23_linear_591_9339)"/>
<path d="M251.013 114.827L247.611 112.869L269.742 100.027L273.143 102.008L251.013 114.827Z" fill="#012F44"/>
<path d="M251.013 114.827L247.611 112.869L269.742 100.027L273.143 102.008L251.013 114.827Z" fill="url(#paint24_linear_591_9339)"/>
<path d="M246.681 140.92L243.28 138.962L243.235 117.787L246.613 119.768L246.681 140.92Z" fill="#012C3F"/>
<path d="M246.681 140.92L243.28 138.962L243.235 117.787L246.613 119.768L246.681 140.92Z" fill="url(#paint25_linear_591_9339)"/>
<path d="M248.677 115.146L245.275 113.165L256.794 97.4541L260.196 99.4122L248.677 115.146Z" fill="#013046"/>
<path d="M248.677 115.146L245.275 113.165L256.794 97.4541L260.196 99.4122L248.677 115.146Z" fill="url(#paint26_linear_591_9339)"/>
<path d="M275.411 77.0764L272.01 75.0955L271.964 57.0625L275.343 59.0434L275.411 77.0764Z" fill="#012C3F"/>
<path d="M275.411 77.0764L272.01 75.0955L271.964 57.0625L275.343 59.0434L275.411 77.0764Z" fill="url(#paint27_linear_591_9339)"/>
<path d="M277.406 54.3987L274.028 52.4178L305.002 34.4531L308.381 36.434L277.406 54.3987Z" fill="#012F44"/>
<path d="M277.406 54.3987L274.028 52.4178L305.002 34.4531L308.381 36.434L277.406 54.3987Z" fill="url(#paint28_linear_591_9339)"/>
<path d="M263.824 74.7534L260.422 72.7725L272.009 75.0949L275.411 77.0758L263.824 74.7534Z" fill="#012A3C"/>
<path d="M263.824 74.7534L260.422 72.7725L272.009 75.0949L275.411 77.0758L263.824 74.7534Z" fill="url(#paint29_linear_591_9339)"/>
<path d="M250.945 94.6769L247.566 92.7188L258.654 94.9273L262.033 96.9082L250.945 94.6769Z" fill="#012A3C"/>
<path d="M250.945 94.6769L247.566 92.7188L258.654 94.9273L262.033 96.9082L250.945 94.6769Z" fill="url(#paint30_linear_591_9339)"/>
<path d="M261.965 74.3896L258.586 72.4087L269.629 57.3584L273.007 59.3393L261.965 74.3896Z" fill="#013046"/>
<path d="M261.965 74.3896L258.586 72.4087L269.629 57.3584L273.007 59.3393L261.965 74.3896Z" fill="url(#paint31_linear_591_9339)"/>
<path d="M250.945 92.3086L247.566 90.3277L269.674 77.5088L273.075 79.4669L250.945 92.3086Z" fill="#012F44"/>
<path d="M250.945 92.3086L247.566 90.3277L269.674 77.5088L273.075 79.4669L250.945 92.3086Z" fill="url(#paint32_linear_591_9339)"/>
<path d="M246.614 117.4L243.212 115.419L243.167 96.0654L246.546 98.0463L246.614 117.4Z" fill="#012C3F"/>
<path d="M246.614 117.4L243.212 115.419L243.167 96.0654L246.546 98.0463L246.614 117.4Z" fill="url(#paint33_linear_591_9339)"/>
<path d="M248.609 92.6046L245.23 90.6237L256.749 74.9131L260.128 76.894L248.609 92.6046Z" fill="#013046"/>
<path d="M248.609 92.6046L245.23 90.6237L256.749 74.9131L260.128 76.894L248.609 92.6046Z" fill="url(#paint34_linear_591_9339)"/>
<path d="M275.343 54.5579L271.941 52.577L271.896 34.5439L275.275 36.5021L275.343 54.5579Z" fill="#012C3F"/>
<path d="M275.343 54.5579L271.941 52.577L271.896 34.5439L275.275 36.5021L275.343 54.5579Z" fill="url(#paint35_linear_591_9339)"/>
<path d="M277.134 32.1987L273.755 30.2178L309.559 31.9482L312.961 33.9291L277.134 32.1987Z" fill="#012A3D"/>
<path d="M277.134 32.1987L273.755 30.2178L309.559 31.9482L312.961 33.9291L277.134 32.1987Z" fill="url(#paint36_linear_591_9339)"/>
<path d="M263.756 52.2348L260.354 50.2539L271.941 52.5763L275.343 54.5572L263.756 52.2348Z" fill="#012A3C"/>
<path d="M263.756 52.2348L260.354 50.2539L271.941 52.5763L275.343 54.5572L263.756 52.2348Z" fill="url(#paint37_linear_591_9339)"/>
<path d="M215.639 135.342L212.238 133.361L243.212 115.419L246.613 117.4L215.639 135.342Z" fill="#012F44"/>
<path d="M215.639 135.342L212.238 133.361L243.212 115.419L246.613 117.4L215.639 135.342Z" fill="url(#paint38_linear_591_9339)"/>
<path d="M250.899 72.1577L247.498 70.1768L258.586 72.4081L261.964 74.389L250.899 72.1577Z" fill="#012A3C"/>
<path d="M250.899 72.1577L247.498 70.1768L258.586 72.4081L261.964 74.389L250.899 72.1577Z" fill="url(#paint39_linear_591_9339)"/>
<path d="M261.897 51.8483L258.518 49.8674L269.561 34.8398L272.939 36.8207L261.897 51.8483Z" fill="#013046"/>
<path d="M261.897 51.8483L258.518 49.8674L269.561 34.8398L272.939 36.8207L261.897 51.8483Z" fill="url(#paint40_linear_591_9339)"/>
<path d="M210.832 140.169L207.431 138.188C207.295 138.12 207.204 137.983 207.159 137.801L210.56 139.782C210.605 139.964 210.696 140.1 210.832 140.169Z" fill="#013249"/>
<path d="M210.832 140.169L207.431 138.188C207.295 138.12 207.204 137.983 207.159 137.801L210.56 139.782C210.605 139.964 210.696 140.1 210.832 140.169Z" fill="url(#paint41_linear_591_9339)"/>
<path d="M250.876 69.7676L247.498 67.8095L269.606 54.9678L273.007 56.9487L250.876 69.7676Z" fill="#012F44"/>
<path d="M250.876 69.7676L247.498 67.8095L269.606 54.9678L273.007 56.9487L250.876 69.7676Z" fill="url(#paint42_linear_591_9339)"/>
<path d="M211.059 138.143L207.658 136.162L243.167 93.3564L246.545 95.3373L211.059 138.143Z" fill="#013046"/>
<path d="M211.059 138.143L207.658 136.162L243.167 93.3564L246.545 95.3373L211.059 138.143Z" fill="url(#paint43_linear_591_9339)"/>
<path d="M210.56 139.782L207.159 137.801C207.046 137.346 207.25 136.663 207.658 136.162L211.059 138.143C210.651 138.644 210.447 139.327 210.56 139.782Z" fill="#013249"/>
<path d="M210.56 139.782L207.159 137.801C207.046 137.346 207.25 136.663 207.658 136.162L211.059 138.143C210.651 138.644 210.447 139.327 210.56 139.782Z" fill="url(#paint44_linear_591_9339)"/>
<path d="M246.545 95.3371L243.167 93.3562L243.099 72.7275L246.477 74.7084L246.545 95.3371Z" fill="#012C3F"/>
<path d="M246.545 95.3371L243.167 93.3562L243.099 72.7275L246.477 74.7084L246.545 95.3371Z" fill="url(#paint45_linear_591_9339)"/>
<path d="M248.541 70.0863L245.162 68.1054L256.681 52.3721L260.06 54.353L248.541 70.0863Z" fill="#013046"/>
<path d="M248.541 70.0863L245.162 68.1054L256.681 52.3721L260.06 54.353L248.541 70.0863Z" fill="url(#paint46_linear_591_9339)"/>
<path d="M250.831 49.6391L247.43 47.6582L258.518 49.8668L261.896 51.8477L250.831 49.6391Z" fill="#012A3C"/>
<path d="M250.831 49.6391L247.43 47.6582L258.518 49.8668L261.896 51.8477L250.831 49.6391Z" fill="url(#paint47_linear_591_9339)"/>
<path d="M249.856 47.8178L246.478 45.837L270.513 31.9023L273.914 33.8605L249.856 47.8178Z" fill="#012F44"/>
<path d="M249.856 47.8178L246.478 45.837L270.513 31.9023L273.914 33.8605L249.856 47.8178Z" fill="url(#paint48_linear_591_9339)"/>
<path d="M246.477 72.3404L243.099 70.3595L243.031 51.0059L246.432 52.9868L246.477 72.3404Z" fill="#012C3F"/>
<path d="M246.477 72.3404L243.099 70.3595L243.031 51.0059L246.432 52.9868L246.477 72.3404Z" fill="url(#paint49_linear_591_9339)"/>
<path d="M262.531 25.0268L259.153 23.0459L273.756 30.2181L277.134 32.199L262.531 25.0268Z" fill="#01283B"/>
<path d="M262.531 25.0268L259.153 23.0459L273.756 30.2181L277.134 32.199L262.531 25.0268Z" fill="url(#paint50_linear_591_9339)"/>
<path d="M261.125 25.846L257.724 23.8651C257.928 23.5463 258.178 23.2959 258.427 23.1365C258.676 22.9999 258.926 22.9544 259.13 23.0454L262.531 25.0263C262.327 24.9353 262.078 24.9808 261.828 25.1174C261.579 25.254 261.329 25.5045 261.125 25.846Z" fill="#013249"/>
<path d="M261.125 25.846L257.724 23.8651C257.928 23.5463 258.178 23.2959 258.427 23.1365C258.676 22.9999 258.926 22.9544 259.13 23.0454L262.531 25.0263C262.327 24.9353 262.078 24.9808 261.828 25.1174C261.579 25.254 261.329 25.5045 261.125 25.846Z" fill="url(#paint51_linear_591_9339)"/>
<path d="M246.41 50.3L243.008 48.3191L257.747 23.8652L261.126 25.8461L246.41 50.3Z" fill="#013046"/>
<path d="M246.41 50.3L243.008 48.3191L257.747 23.8652L261.126 25.8461L246.41 50.3Z" fill="url(#paint52_linear_591_9339)"/>
<path d="M215.503 90.2822L212.125 88.3013L243.099 70.3594L246.477 72.3403L215.503 90.2822Z" fill="#012F44"/>
<path d="M215.503 90.2822L212.125 88.3013L243.099 70.3594L246.477 72.3403L215.503 90.2822Z" fill="url(#paint53_linear_591_9339)"/>
<path d="M210.696 95.1092L207.318 93.1283C207.181 93.06 207.091 92.9234 207.045 92.7412L210.447 94.7221C210.492 94.9043 210.583 95.0409 210.719 95.1092H210.696Z" fill="#013249"/>
<path d="M210.696 95.1092L207.318 93.1283C207.181 93.06 207.091 92.9234 207.045 92.7412L210.447 94.7221C210.492 94.9043 210.583 95.0409 210.719 95.1092H210.696Z" fill="url(#paint54_linear_591_9339)"/>
<path d="M210.923 93.0831L207.544 91.1022L243.008 48.3193L246.41 50.3002L210.923 93.0831Z" fill="#013046"/>
<path d="M210.923 93.0831L207.544 91.1022L243.008 48.3193L246.41 50.3002L210.923 93.0831Z" fill="url(#paint55_linear_591_9339)"/>
<path d="M313.097 78.9883C313.505 78.9883 313.732 79.4437 313.618 80.0357C313.505 80.6277 313.097 81.2425 312.621 81.5157L277.565 101.848L277.633 123.001L283.733 142.058C283.733 142.058 283.937 142.172 283.982 142.286C284.095 142.491 284.118 142.787 284.05 143.083L295.093 177.601C295.274 178.124 294.957 178.967 294.413 179.491C293.664 179.992 293.256 179.9 293.12 179.445L289.81 169.131H262.033L234.913 200.575L231.58 215.124C231.444 215.716 231.036 216.285 230.582 216.558C229.721 216.809 229.426 216.308 229.585 215.579L246.682 140.943L246.614 119.79L211.558 140.123C211.082 140.396 210.674 140.26 210.56 139.804C210.447 139.349 210.651 138.666 211.059 138.165L246.546 95.3592L246.478 74.7306L211.422 95.0405C210.946 95.3137 210.537 95.1771 210.424 94.7217C210.311 94.2663 210.515 93.5833 210.923 93.0823L246.409 50.2995L261.126 25.8456C261.33 25.5268 261.579 25.2764 261.829 25.117C262.078 24.9804 262.327 24.9348 262.531 25.0259L277.134 32.1981L312.961 33.9286C313.369 33.9286 313.596 34.3839 313.482 34.9759C313.369 35.5679 312.961 36.1827 312.485 36.4559L277.429 56.7886L277.497 77.4173L313.12 79.0111L313.097 78.9883ZM243.756 166.398H262.01L280.785 144.654L262.305 143.106L243.756 166.398ZM288.948 166.444L282.259 145.588L264.3 166.421H288.948V166.444ZM215.503 90.2818L246.478 72.317L246.432 52.9862L215.503 90.2818ZM277.361 35.067L277.406 54.3979L308.38 36.4332L277.338 35.067H277.361ZM215.639 135.342L246.614 117.377L246.568 98.046L215.639 135.342ZM277.542 99.4577L308.517 81.4929L277.474 80.1268L277.52 99.4577H277.542ZM235.73 196.909L259.697 169.085H242.101L235.73 196.909ZM248.314 141.922L243.19 164.326L260.241 142.901L248.337 141.922H248.314ZM281.08 141.922L275.955 125.892L264.323 140.51L281.08 141.922ZM261.829 27.9403L249.856 47.7949L273.892 33.8603L261.829 27.9403ZM263.733 52.212L275.32 54.5345L275.275 36.5015L263.733 52.212ZM263.801 74.7533L275.388 77.0758L275.343 59.0427L263.801 74.7761V74.7533ZM263.869 97.2718L275.456 99.5943L275.411 81.5612L263.869 97.2718ZM263.937 119.79L275.524 122.113L275.479 104.08L263.937 119.79ZM248.496 52.0299L248.541 70.0629L260.06 54.3523L248.496 52.0299ZM248.564 74.5484L248.609 92.5814L260.128 76.8708L248.564 74.5484ZM248.632 97.0897L248.677 115.123L260.196 99.4121L248.632 97.0897ZM248.7 119.608L248.745 137.641L260.264 121.931L248.7 119.608ZM251.081 137.345L273.211 124.526L262.123 122.318L251.103 137.368L251.081 137.345ZM273.007 56.948L261.919 54.7394L250.899 69.7897L273.03 56.9708L273.007 56.948ZM273.007 59.3387L250.876 72.1577L261.965 74.389L273.007 59.3387ZM273.143 104.399L251.013 117.217L262.101 119.449L273.143 104.399ZM273.143 102.008L262.055 99.7992L251.035 114.849L273.166 102.031L273.143 102.008ZM273.075 81.8572L250.944 94.6762L262.033 96.9075L273.075 81.8572ZM250.831 49.6392L261.919 51.8477L272.962 36.8202L250.831 49.6392ZM273.075 79.4665L261.987 77.2579L250.967 92.2854L273.098 79.4665H273.075ZM272.758 127.167L251.579 139.44L262.259 140.351L272.735 127.167H272.758Z" fill="#024F73"/>
<path d="M313.097 78.9883C313.505 78.9883 313.732 79.4437 313.618 80.0357C313.505 80.6277 313.097 81.2425 312.621 81.5157L277.565 101.848L277.633 123.001L283.733 142.058C283.733 142.058 283.937 142.172 283.982 142.286C284.095 142.491 284.118 142.787 284.05 143.083L295.093 177.601C295.274 178.124 294.957 178.967 294.413 179.491C293.664 179.992 293.256 179.9 293.12 179.445L289.81 169.131H262.033L234.913 200.575L231.58 215.124C231.444 215.716 231.036 216.285 230.582 216.558C229.721 216.809 229.426 216.308 229.585 215.579L246.682 140.943L246.614 119.79L211.558 140.123C211.082 140.396 210.674 140.26 210.56 139.804C210.447 139.349 210.651 138.666 211.059 138.165L246.546 95.3592L246.478 74.7306L211.422 95.0405C210.946 95.3137 210.537 95.1771 210.424 94.7217C210.311 94.2663 210.515 93.5833 210.923 93.0823L246.409 50.2995L261.126 25.8456C261.33 25.5268 261.579 25.2764 261.829 25.117C262.078 24.9804 262.327 24.9348 262.531 25.0259L277.134 32.1981L312.961 33.9286C313.369 33.9286 313.596 34.3839 313.482 34.9759C313.369 35.5679 312.961 36.1827 312.485 36.4559L277.429 56.7886L277.497 77.4173L313.12 79.0111L313.097 78.9883ZM243.756 166.398H262.01L280.785 144.654L262.305 143.106L243.756 166.398ZM288.948 166.444L282.259 145.588L264.3 166.421H288.948V166.444ZM215.503 90.2818L246.478 72.317L246.432 52.9862L215.503 90.2818ZM277.361 35.067L277.406 54.3979L308.38 36.4332L277.338 35.067H277.361ZM215.639 135.342L246.614 117.377L246.568 98.046L215.639 135.342ZM277.542 99.4577L308.517 81.4929L277.474 80.1268L277.52 99.4577H277.542ZM235.73 196.909L259.697 169.085H242.101L235.73 196.909ZM248.314 141.922L243.19 164.326L260.241 142.901L248.337 141.922H248.314ZM281.08 141.922L275.955 125.892L264.323 140.51L281.08 141.922ZM261.829 27.9403L249.856 47.7949L273.892 33.8603L261.829 27.9403ZM263.733 52.212L275.32 54.5345L275.275 36.5015L263.733 52.212ZM263.801 74.7533L275.388 77.0758L275.343 59.0427L263.801 74.7761V74.7533ZM263.869 97.2718L275.456 99.5943L275.411 81.5612L263.869 97.2718ZM263.937 119.79L275.524 122.113L275.479 104.08L263.937 119.79ZM248.496 52.0299L248.541 70.0629L260.06 54.3523L248.496 52.0299ZM248.564 74.5484L248.609 92.5814L260.128 76.8708L248.564 74.5484ZM248.632 97.0897L248.677 115.123L260.196 99.4121L248.632 97.0897ZM248.7 119.608L248.745 137.641L260.264 121.931L248.7 119.608ZM251.081 137.345L273.211 124.526L262.123 122.318L251.103 137.368L251.081 137.345ZM273.007 56.948L261.919 54.7394L250.899 69.7897L273.03 56.9708L273.007 56.948ZM273.007 59.3387L250.876 72.1577L261.965 74.389L273.007 59.3387ZM273.143 104.399L251.013 117.217L262.101 119.449L273.143 104.399ZM273.143 102.008L262.055 99.7992L251.035 114.849L273.166 102.031L273.143 102.008ZM273.075 81.8572L250.944 94.6762L262.033 96.9075L273.075 81.8572ZM250.831 49.6392L261.919 51.8477L272.962 36.8202L250.831 49.6392ZM273.075 79.4665L261.987 77.2579L250.967 92.2854L273.098 79.4665H273.075ZM272.758 127.167L251.579 139.44L262.259 140.351L272.735 127.167H272.758Z" fill="url(#paint56_linear_591_9339)"/>
<path d="M210.424 94.7218L207.023 92.7409C206.909 92.2855 207.113 91.6025 207.522 91.1016L210.923 93.0825C210.515 93.5834 210.311 94.2664 210.424 94.7218Z" fill="#013249"/>
<path d="M210.424 94.7218L207.023 92.7409C206.909 92.2855 207.113 91.6025 207.522 91.1016L210.923 93.0825C210.515 93.5834 210.311 94.2664 210.424 94.7218Z" fill="url(#paint57_linear_591_9339)"/>
<path d="M344.683 197.138L341.282 195.157C341.282 195.157 341.101 194.997 341.055 194.838L344.456 196.819C344.502 196.955 344.57 197.069 344.683 197.138Z" fill="#005178"/>
<path d="M344.683 197.138L341.282 195.157C341.282 195.157 341.101 194.997 341.055 194.838L344.456 196.819C344.502 196.955 344.57 197.069 344.683 197.138Z" fill="url(#paint58_linear_591_9339)"/>
<path d="M344.456 196.841L341.055 194.861L337.767 184.523L341.146 186.504L344.456 196.841Z" fill="#00486B"/>
<path d="M344.456 196.841L341.055 194.861L337.767 184.523L341.146 186.504L344.456 196.841Z" fill="url(#paint59_linear_591_9339)"/>
<path d="M340.307 183.84L336.905 181.859L330.216 161.003L333.618 162.984L340.307 183.84Z" fill="#00486B"/>
<path d="M340.307 183.84L336.905 181.859L330.216 161.003L333.618 162.984L340.307 183.84Z" fill="url(#paint60_linear_591_9339)"/>
<path d="M335.046 159.455L331.667 157.474C331.667 157.474 331.713 157.474 331.736 157.519L335.137 159.5C335.137 159.5 335.091 159.477 335.069 159.455H335.046Z" fill="#005178"/>
<path d="M315.659 183.818L312.258 181.837L336.906 181.86L340.307 183.841L315.659 183.818Z" fill="#004B6D"/>
<path d="M315.659 183.818L312.258 181.837L336.906 181.86L340.307 183.841L315.659 183.818Z" fill="url(#paint61_linear_591_9339)"/>
<path d="M364.433 96.3842L361.032 94.4033C361.032 94.4033 361.19 94.4261 361.258 94.4716L364.66 96.4525C364.66 96.4525 364.501 96.3842 364.433 96.3842Z" fill="#005178"/>
<path d="M313.346 183.817L309.967 181.836L328.72 160.069L332.121 162.05L313.346 183.817Z" fill="#004F75"/>
<path d="M313.346 183.817L309.967 181.836L328.72 160.069L332.121 162.05L313.346 183.817Z" fill="url(#paint62_linear_591_9339)"/>
<path d="M281.17 233.909L277.769 231.928C277.497 231.769 277.429 231.404 277.542 230.972L280.921 232.953C280.807 233.385 280.898 233.749 281.148 233.909H281.17Z" fill="#005178"/>
<path d="M281.17 233.909L277.769 231.928C277.497 231.769 277.429 231.404 277.542 230.972L280.921 232.953C280.807 233.385 280.898 233.749 281.148 233.909H281.17Z" fill="url(#paint63_linear_591_9339)"/>
<path d="M287.088 214.305L283.687 212.324L307.655 184.5L311.056 186.481L287.088 214.305Z" fill="#004F75"/>
<path d="M287.088 214.305L283.687 212.324L307.655 184.5L311.056 186.481L287.088 214.305Z" fill="url(#paint64_linear_591_9339)"/>
<path d="M332.439 159.318L329.06 157.36L323.936 141.308L327.337 143.289L332.439 159.318Z" fill="#00486B"/>
<path d="M332.439 159.318L329.06 157.36L323.936 141.308L327.337 143.289L332.439 159.318Z" fill="url(#paint65_linear_591_9339)"/>
<path d="M315.704 157.906L312.303 155.948L329.06 157.36L332.439 159.318L315.704 157.906Z" fill="#00496C"/>
<path d="M315.704 157.906L312.303 155.948L329.06 157.36L332.439 159.318L315.704 157.906Z" fill="url(#paint66_linear_591_9339)"/>
<path d="M313.618 157.747L310.24 155.766L320.716 142.583L324.117 144.564L313.618 157.747Z" fill="#004F75"/>
<path d="M313.618 157.747L310.24 155.766L320.716 142.583L324.117 144.564L313.618 157.747Z" fill="url(#paint67_linear_591_9339)"/>
<path d="M295.092 183.794L291.714 181.813L309.967 181.836L313.346 183.817L295.092 183.794Z" fill="#004B6D"/>
<path d="M295.092 183.794L291.714 181.813L309.967 181.836L313.346 183.817L295.092 183.794Z" fill="url(#paint68_linear_591_9339)"/>
<path d="M294.548 181.723L291.147 179.742L308.199 158.339L311.577 160.32L294.548 181.723Z" fill="#004F75"/>
<path d="M294.548 181.723L291.147 179.742L308.199 158.339L311.577 160.32L294.548 181.723Z" fill="url(#paint69_linear_591_9339)"/>
<path d="M326.883 139.509L323.505 137.551L323.437 119.495L326.838 121.476L326.883 139.509Z" fill="#004C6E"/>
<path d="M326.883 139.509L323.505 137.551L323.437 119.495L326.838 121.476L326.883 139.509Z" fill="url(#paint70_linear_591_9339)"/>
<path d="M328.901 116.854L325.5 114.873L356.474 96.9082L359.875 98.8891L328.901 116.854Z" fill="#004F73"/>
<path d="M328.901 116.854L325.5 114.873L356.474 96.9082L359.875 98.8891L328.901 116.854Z" fill="url(#paint71_linear_591_9339)"/>
<path d="M315.296 137.187L311.917 135.206L323.504 137.551L326.883 139.509L315.296 137.187Z" fill="#004A6B"/>
<path d="M315.296 137.187L311.917 135.206L323.504 137.551L326.883 139.509L315.296 137.187Z" fill="url(#paint72_linear_591_9339)"/>
<path d="M364.32 51.3246L360.918 49.3438C360.918 49.3438 361.077 49.3665 361.145 49.4121L364.546 51.393C364.546 51.393 364.388 51.3246 364.32 51.3246Z" fill="#005178"/>
<path d="M302.938 156.836L299.56 154.855L310.24 155.766L313.618 157.747L302.938 156.836Z" fill="#00496C"/>
<path d="M302.938 156.836L299.56 154.855L310.24 155.766L313.618 157.747L302.938 156.836Z" fill="url(#paint73_linear_591_9339)"/>
<path d="M313.459 136.845L310.058 134.864L321.101 119.813L324.502 121.794L313.459 136.845Z" fill="#004F75"/>
<path d="M313.459 136.845L310.058 134.864L321.101 119.813L324.502 121.794L313.459 136.845Z" fill="url(#paint74_linear_591_9339)"/>
<path d="M302.439 154.741L299.038 152.76L321.169 139.941L324.548 141.922L302.439 154.741Z" fill="#004F73"/>
<path d="M302.439 154.741L299.038 152.76L321.169 139.941L324.548 141.922L302.439 154.741Z" fill="url(#paint75_linear_591_9339)"/>
<path d="M300.104 155.06L296.703 153.079L308.222 137.346L311.623 139.327L300.104 155.06Z" fill="#004F75"/>
<path d="M300.104 155.06L296.703 153.079L308.222 137.346L311.623 139.327L300.104 155.06Z" fill="url(#paint76_linear_591_9339)"/>
<path d="M280.943 232.953L277.542 230.972L294.639 156.335L298.04 158.316L280.943 232.953Z" fill="#004D72"/>
<path d="M280.943 232.953L277.542 230.972L294.639 156.335L298.04 158.316L280.943 232.953Z" fill="url(#paint77_linear_591_9339)"/>
<path d="M326.815 116.99L323.437 115.01L323.369 96.9766L326.77 98.9575L326.815 116.99Z" fill="#004C6E"/>
<path d="M326.815 116.99L323.437 115.01L323.369 96.9766L326.77 98.9575L326.815 116.99Z" fill="url(#paint78_linear_591_9339)"/>
<path d="M328.833 94.7905L325.432 92.8096L361.054 94.4034L364.433 96.3843L328.833 94.7905Z" fill="#00496C"/>
<path d="M328.833 94.7905L325.432 92.8096L361.054 94.4034L364.433 96.3843L328.833 94.7905Z" fill="url(#paint79_linear_591_9339)"/>
<path d="M315.228 114.668L311.85 112.688L323.437 115.01L326.815 116.991L315.228 114.668Z" fill="#004A6B"/>
<path d="M315.228 114.668L311.85 112.688L323.437 115.01L326.815 116.991L315.228 114.668Z" fill="url(#paint80_linear_591_9339)"/>
<path d="M302.371 134.614L298.993 132.633L310.058 134.864L313.459 136.845L302.371 134.614Z" fill="#004A6B"/>
<path d="M302.371 134.614L298.993 132.633L310.058 134.864L313.459 136.845L302.371 134.614Z" fill="url(#paint81_linear_591_9339)"/>
<path d="M313.391 114.304L309.99 112.323L321.033 97.2725L324.434 99.2534L313.391 114.304Z" fill="#004F75"/>
<path d="M313.391 114.304L309.99 112.323L321.033 97.2725L324.434 99.2534L313.391 114.304Z" fill="url(#paint82_linear_591_9339)"/>
<path d="M302.371 132.223L298.97 130.242L321.101 117.423L324.48 119.404L302.371 132.223Z" fill="#004F73"/>
<path d="M302.371 132.223L298.97 130.242L321.101 117.423L324.48 119.404L302.371 132.223Z" fill="url(#paint83_linear_591_9339)"/>
<path d="M298.041 158.316L294.639 156.335L294.571 135.183L297.973 137.164L298.041 158.316Z" fill="#004C6E"/>
<path d="M298.041 158.316L294.639 156.335L294.571 135.183L297.973 137.164L298.041 158.316Z" fill="url(#paint84_linear_591_9339)"/>
<path d="M300.036 132.519L296.634 130.538L308.153 114.827L311.554 116.808L300.036 132.519Z" fill="#004F75"/>
<path d="M300.036 132.519L296.634 130.538L308.153 114.827L311.554 116.808L300.036 132.519Z" fill="url(#paint85_linear_591_9339)"/>
<path d="M326.747 94.4495L323.369 92.4686L323.323 74.4355L326.702 76.4164L326.747 94.4495Z" fill="#004C6E"/>
<path d="M326.747 94.4495L323.369 92.4686L323.323 74.4355L326.702 76.4164L326.747 94.4495Z" fill="url(#paint86_linear_591_9339)"/>
<path d="M328.765 71.7942L325.364 69.8133L356.361 51.8486L359.739 53.8295L328.765 71.7942Z" fill="#004F73"/>
<path d="M328.765 71.7942L325.364 69.8133L356.361 51.8486L359.739 53.8295L328.765 71.7942Z" fill="url(#paint87_linear_591_9339)"/>
<path d="M315.183 92.1498L311.781 90.1689L323.368 92.4686L326.747 94.4495L315.183 92.1498Z" fill="#004A6B"/>
<path d="M315.183 92.1498L311.781 90.1689L323.368 92.4686L326.747 94.4495L315.183 92.1498Z" fill="url(#paint88_linear_591_9339)"/>
<path d="M302.303 112.073L298.925 110.092L309.99 112.323L313.392 114.304L302.303 112.073Z" fill="#004A6B"/>
<path d="M302.303 112.073L298.925 110.092L309.99 112.323L313.392 114.304L302.303 112.073Z" fill="url(#paint89_linear_591_9339)"/>
<path d="M313.323 91.7623L309.945 89.8042L320.988 74.7539L324.366 76.712L313.323 91.7623Z" fill="#004F75"/>
<path d="M313.323 91.7623L309.945 89.8042L320.988 74.7539L324.366 76.712L313.323 91.7623Z" fill="url(#paint90_linear_591_9339)"/>
<path d="M302.303 109.682L298.925 107.701L321.033 94.8818L324.434 96.8627L302.303 109.682Z" fill="#004F73"/>
<path d="M302.303 109.682L298.925 107.701L321.033 94.8818L324.434 96.8627L302.303 109.682Z" fill="url(#paint91_linear_591_9339)"/>
<path d="M297.972 134.773L294.571 132.792L294.526 113.461L297.904 115.442L297.972 134.773Z" fill="#004C6E"/>
<path d="M297.972 134.773L294.571 132.792L294.526 113.461L297.904 115.442L297.972 134.773Z" fill="url(#paint92_linear_591_9339)"/>
<path d="M299.968 109.977L296.566 108.019L308.108 92.3086L311.487 94.2895L299.968 109.977Z" fill="#004F75"/>
<path d="M299.968 109.977L296.566 108.019L308.108 92.3086L311.487 94.2895L299.968 109.977Z" fill="url(#paint93_linear_591_9339)"/>
<path d="M326.701 71.9309L323.3 69.95L323.255 51.917L326.633 53.8979L326.701 71.9309Z" fill="#004C6E"/>
<path d="M326.701 71.9309L323.3 69.95L323.255 51.917L326.633 53.8979L326.701 71.9309Z" fill="url(#paint94_linear_591_9339)"/>
<path d="M328.493 49.5942L325.114 47.6133L360.918 49.3437L364.319 51.3246L328.493 49.5942Z" fill="#00496C"/>
<path d="M328.493 49.5942L325.114 47.6133L360.918 49.3437L364.319 51.3246L328.493 49.5942Z" fill="url(#paint95_linear_591_9339)"/>
<path d="M315.115 69.6079L311.713 67.627L323.3 69.9494L326.702 71.9303L315.115 69.6079Z" fill="#004A6B"/>
<path d="M315.115 69.6079L311.713 67.627L323.3 69.9494L326.702 71.9303L315.115 69.6079Z" fill="url(#paint96_linear_591_9339)"/>
<path d="M266.998 152.738L263.597 150.757L294.571 132.792L297.972 134.773L266.998 152.738Z" fill="#004F73"/>
<path d="M266.998 152.738L263.597 150.757L294.571 132.792L297.972 134.773L266.998 152.738Z" fill="url(#paint97_linear_591_9339)"/>
<path d="M302.258 89.5541L298.856 87.5732L309.945 89.8046L313.323 91.7627L302.258 89.5541Z" fill="#004A6B"/>
<path d="M302.258 89.5541L298.856 87.5732L309.945 89.8046L313.323 91.7627L302.258 89.5541Z" fill="url(#paint98_linear_591_9339)"/>
<path d="M313.256 69.2441L309.877 67.2632L320.92 52.2129L324.298 54.1938L313.256 69.2441Z" fill="#004F75"/>
<path d="M313.256 69.2441L309.877 67.2632L320.92 52.2129L324.298 54.1938L313.256 69.2441Z" fill="url(#paint99_linear_591_9339)"/>
<path d="M262.168 157.565L258.767 155.584C258.631 155.516 258.54 155.379 258.495 155.197L261.896 157.178C261.942 157.36 262.032 157.497 262.168 157.565Z" fill="#005178"/>
<path d="M262.168 157.565L258.767 155.584C258.631 155.516 258.54 155.379 258.495 155.197L261.896 157.178C261.942 157.36 262.032 157.497 262.168 157.565Z" fill="url(#paint100_linear_591_9339)"/>
<path d="M302.235 87.1631L298.856 85.1822L320.965 72.3633L324.366 74.3442L302.235 87.1631Z" fill="#004F73"/>
<path d="M302.235 87.1631L298.856 85.1822L320.965 72.3633L324.366 74.3442L302.235 87.1631Z" fill="url(#paint101_linear_591_9339)"/>
<path d="M262.418 155.539L259.017 153.558L294.503 110.752L297.904 112.733L262.418 155.539Z" fill="#004F75"/>
<path d="M262.418 155.539L259.017 153.558L294.503 110.752L297.904 112.733L262.418 155.539Z" fill="url(#paint102_linear_591_9339)"/>
<path d="M261.896 157.178L258.495 155.197C258.382 154.742 258.586 154.059 258.994 153.558L262.395 155.539C261.987 156.039 261.783 156.723 261.896 157.178Z" fill="#005178"/>
<path d="M261.896 157.178L258.495 155.197C258.382 154.742 258.586 154.059 258.994 153.558L262.395 155.539C261.987 156.039 261.783 156.723 261.896 157.178Z" fill="url(#paint103_linear_591_9339)"/>
<path d="M297.904 112.733L294.503 110.752L294.458 90.123L297.836 92.1039L297.904 112.733Z" fill="#004C6E"/>
<path d="M297.904 112.733L294.503 110.752L294.458 90.123L297.836 92.1039L297.904 112.733Z" fill="url(#paint104_linear_591_9339)"/>
<path d="M299.9 87.4591L296.521 85.4782L308.04 69.7676L311.419 71.7485L299.9 87.4591Z" fill="#004F75"/>
<path d="M299.9 87.4591L296.521 85.4782L308.04 69.7676L311.419 71.7485L299.9 87.4591Z" fill="url(#paint105_linear_591_9339)"/>
<path d="M302.19 67.0128L298.789 65.0547L309.877 67.2633L313.255 69.2442L302.19 67.0128Z" fill="#004A6B"/>
<path d="M302.19 67.0128L298.789 65.0547L309.877 67.2633L313.255 69.2442L302.19 67.0128Z" fill="url(#paint106_linear_591_9339)"/>
<path d="M301.215 65.1909L297.813 63.21L321.872 49.2754L325.25 51.2563L301.215 65.1909Z" fill="#004F73"/>
<path d="M301.215 65.1909L297.813 63.21L321.872 49.2754L325.25 51.2563L301.215 65.1909Z" fill="url(#paint107_linear_591_9339)"/>
<path d="M297.836 89.7131L294.458 87.7322L294.39 68.4014L297.791 70.3823L297.836 89.7131Z" fill="#004C6E"/>
<path d="M297.836 89.7131L294.458 87.7322L294.39 68.4014L297.791 70.3823L297.836 89.7131Z" fill="url(#paint108_linear_591_9339)"/>
<path d="M313.89 42.4223L310.512 40.4414L325.114 47.6136L328.493 49.5945L313.89 42.4223Z" fill="#00476A"/>
<path d="M313.89 42.4223L310.512 40.4414L325.114 47.6136L328.493 49.5945L313.89 42.4223Z" fill="url(#paint109_linear_591_9339)"/>
<path d="M312.484 43.2191L309.083 41.2382C309.287 40.9194 309.537 40.6689 309.786 40.5096C310.035 40.3729 310.285 40.3274 310.489 40.4185L313.89 42.3994C313.686 42.3083 313.437 42.3538 313.187 42.4905C312.938 42.6271 312.688 42.8775 312.484 43.2191Z" fill="#005178"/>
<path d="M312.484 43.2191L309.083 41.2382C309.287 40.9194 309.537 40.6689 309.786 40.5096C310.035 40.3729 310.285 40.3274 310.489 40.4185L313.89 42.3994C313.686 42.3083 313.437 42.3538 313.187 42.4905C312.938 42.6271 312.688 42.8775 312.484 43.2191Z" fill="url(#paint110_linear_591_9339)"/>
<path d="M297.768 67.6727L294.367 65.6918L309.106 41.2607L312.485 43.2189L297.768 67.6727Z" fill="#004F75"/>
<path d="M297.768 67.6727L294.367 65.6918L309.106 41.2607L312.485 43.2189L297.768 67.6727Z" fill="url(#paint111_linear_591_9339)"/>
<path d="M266.862 107.678L263.461 105.697L294.458 87.7324L297.836 89.7133L266.862 107.678Z" fill="#004F73"/>
<path d="M266.862 107.678L263.461 105.697L294.458 87.7324L297.836 89.7133L266.862 107.678Z" fill="url(#paint112_linear_591_9339)"/>
<path d="M262.055 112.505L258.654 110.524C258.518 110.455 258.427 110.319 258.382 110.137L261.783 112.118C261.828 112.3 261.919 112.436 262.055 112.505Z" fill="#005178"/>
<path d="M262.055 112.505L258.654 110.524C258.518 110.455 258.427 110.319 258.382 110.137L261.783 112.118C261.828 112.3 261.919 112.436 262.055 112.505Z" fill="url(#paint113_linear_591_9339)"/>
<path d="M262.282 110.456L258.903 108.498L294.367 65.6924L297.768 67.6733L262.282 110.456Z" fill="#004F75"/>
<path d="M262.282 110.456L258.903 108.498L294.367 65.6924L297.768 67.6733L262.282 110.456Z" fill="url(#paint114_linear_591_9339)"/>
<path d="M364.433 96.3845C364.841 96.3845 365.068 96.8399 364.954 97.4319C364.841 98.0239 364.433 98.6386 363.957 98.9119L328.901 119.245L328.969 140.397L335.069 159.455C335.069 159.455 335.273 159.568 335.318 159.682C335.431 159.887 335.454 160.183 335.386 160.479L346.429 194.997C346.61 195.521 346.293 196.363 345.749 196.887C345 197.388 344.592 197.297 344.456 196.841L341.146 186.527H313.369L286.249 217.971L282.916 232.52C282.78 233.112 282.372 233.681 281.918 233.955C281.057 234.205 280.762 233.704 280.92 232.976L298.018 158.339L297.949 137.187L262.894 157.519C262.418 157.792 262.009 157.656 261.896 157.2C261.783 156.745 261.987 156.062 262.395 155.561L297.881 112.755L297.813 92.1267L262.758 112.459C262.282 112.733 261.873 112.596 261.76 112.141C261.647 111.685 261.851 111.002 262.259 110.501L297.745 67.7184L312.462 43.2645C312.666 42.9458 312.915 42.6953 313.164 42.5359C313.414 42.3993 313.663 42.3538 313.867 42.4448L328.47 49.6171L364.297 51.3475C364.705 51.3475 364.932 51.8029 364.818 52.3949C364.705 52.9869 364.297 53.6016 363.821 53.8749L328.765 74.2075L328.833 94.8362L364.456 96.4301L364.433 96.3845ZM295.092 183.795H313.346L332.121 162.05L313.641 160.502L295.092 183.795ZM340.284 183.84L333.595 162.984L315.636 183.817H340.284V183.84ZM266.862 107.678L297.836 89.7132L297.791 70.3824L266.862 107.678ZM328.72 52.4632L328.765 71.794L359.739 53.8293L328.697 52.4632H328.72ZM266.998 152.738L297.972 134.773L297.927 115.442L266.998 152.738ZM328.901 116.854L359.875 98.8891L328.833 97.523L328.878 116.854H328.901ZM287.088 214.305L311.056 186.481H293.46L287.088 214.305ZM299.673 159.318L294.548 181.723L311.6 160.297L299.695 159.318H299.673ZM332.438 159.318L327.314 143.289L315.681 157.906L332.438 159.318ZM313.187 45.3137L301.215 65.1683L325.25 51.2337L313.187 45.3137ZM315.092 69.5854L326.679 71.9079L326.633 53.8749L315.092 69.5854ZM315.16 92.1267L326.747 94.4492L326.701 76.4161L315.16 92.1495V92.1267ZM315.228 114.645L326.815 116.968L326.77 98.9346L315.228 114.645ZM315.296 137.164L326.883 139.486L326.838 121.453L315.296 137.164ZM299.854 69.4033L299.9 87.4363L311.418 71.7257L299.854 69.4033ZM299.922 91.9218L299.968 109.955L311.487 94.2442L299.922 91.9218ZM299.99 114.463L300.036 132.496L311.555 116.786L299.99 114.463ZM300.058 136.982L300.104 155.015L311.623 139.304L300.058 136.982ZM302.439 154.719L324.57 141.9L313.482 139.691L302.462 154.741L302.439 154.719ZM324.366 74.2986L313.278 72.09L302.258 87.1403L324.389 74.3214L324.366 74.2986ZM324.366 76.6894L302.235 89.5083L313.323 91.7397L324.366 76.6894ZM324.502 121.749L302.371 134.568L313.459 136.799L324.502 121.749ZM324.502 119.358L313.414 117.15L302.394 132.2L324.525 119.381L324.502 119.358ZM324.434 99.2079L302.303 112.027L313.391 114.258L324.434 99.2079ZM302.19 66.9898L313.278 69.1984L324.321 54.1709L302.19 66.9898ZM324.434 96.8399L313.346 94.6313L302.326 109.659L324.457 96.8399H324.434ZM324.117 144.541L302.938 156.813L313.618 157.724L324.094 144.541H324.117Z" fill="#006EA2"/>
<path d="M364.433 96.3845C364.841 96.3845 365.068 96.8399 364.954 97.4319C364.841 98.0239 364.433 98.6386 363.957 98.9119L328.901 119.245L328.969 140.397L335.069 159.455C335.069 159.455 335.273 159.568 335.318 159.682C335.431 159.887 335.454 160.183 335.386 160.479L346.429 194.997C346.61 195.521 346.293 196.363 345.749 196.887C345 197.388 344.592 197.297 344.456 196.841L341.146 186.527H313.369L286.249 217.971L282.916 232.52C282.78 233.112 282.372 233.681 281.918 233.955C281.057 234.205 280.762 233.704 280.92 232.976L298.018 158.339L297.949 137.187L262.894 157.519C262.418 157.792 262.009 157.656 261.896 157.2C261.783 156.745 261.987 156.062 262.395 155.561L297.881 112.755L297.813 92.1267L262.758 112.459C262.282 112.733 261.873 112.596 261.76 112.141C261.647 111.685 261.851 111.002 262.259 110.501L297.745 67.7184L312.462 43.2645C312.666 42.9458 312.915 42.6953 313.164 42.5359C313.414 42.3993 313.663 42.3538 313.867 42.4448L328.47 49.6171L364.297 51.3475C364.705 51.3475 364.932 51.8029 364.818 52.3949C364.705 52.9869 364.297 53.6016 363.821 53.8749L328.765 74.2075L328.833 94.8362L364.456 96.4301L364.433 96.3845ZM295.092 183.795H313.346L332.121 162.05L313.641 160.502L295.092 183.795ZM340.284 183.84L333.595 162.984L315.636 183.817H340.284V183.84ZM266.862 107.678L297.836 89.7132L297.791 70.3824L266.862 107.678ZM328.72 52.4632L328.765 71.794L359.739 53.8293L328.697 52.4632H328.72ZM266.998 152.738L297.972 134.773L297.927 115.442L266.998 152.738ZM328.901 116.854L359.875 98.8891L328.833 97.523L328.878 116.854H328.901ZM287.088 214.305L311.056 186.481H293.46L287.088 214.305ZM299.673 159.318L294.548 181.723L311.6 160.297L299.695 159.318H299.673ZM332.438 159.318L327.314 143.289L315.681 157.906L332.438 159.318ZM313.187 45.3137L301.215 65.1683L325.25 51.2337L313.187 45.3137ZM315.092 69.5854L326.679 71.9079L326.633 53.8749L315.092 69.5854ZM315.16 92.1267L326.747 94.4492L326.701 76.4161L315.16 92.1495V92.1267ZM315.228 114.645L326.815 116.968L326.77 98.9346L315.228 114.645ZM315.296 137.164L326.883 139.486L326.838 121.453L315.296 137.164ZM299.854 69.4033L299.9 87.4363L311.418 71.7257L299.854 69.4033ZM299.922 91.9218L299.968 109.955L311.487 94.2442L299.922 91.9218ZM299.99 114.463L300.036 132.496L311.555 116.786L299.99 114.463ZM300.058 136.982L300.104 155.015L311.623 139.304L300.058 136.982ZM302.439 154.719L324.57 141.9L313.482 139.691L302.462 154.741L302.439 154.719ZM324.366 74.2986L313.278 72.09L302.258 87.1403L324.389 74.3214L324.366 74.2986ZM324.366 76.6894L302.235 89.5083L313.323 91.7397L324.366 76.6894ZM324.502 121.749L302.371 134.568L313.459 136.799L324.502 121.749ZM324.502 119.358L313.414 117.15L302.394 132.2L324.525 119.381L324.502 119.358ZM324.434 99.2079L302.303 112.027L313.391 114.258L324.434 99.2079ZM302.19 66.9898L313.278 69.1984L324.321 54.1709L302.19 66.9898ZM324.434 96.8399L313.346 94.6313L302.326 109.659L324.457 96.8399H324.434ZM324.117 144.541L302.938 156.813L313.618 157.724L324.094 144.541H324.117Z" fill="url(#paint115_linear_591_9339)"/>
<path d="M261.783 112.118L258.382 110.137C258.268 109.682 258.472 108.999 258.88 108.498L262.282 110.479C261.874 110.98 261.67 111.663 261.783 112.118Z" fill="#005178"/>
<path d="M261.783 112.118L258.382 110.137C258.268 109.682 258.472 108.999 258.88 108.498L262.282 110.479C261.874 110.98 261.67 111.663 261.783 112.118Z" fill="url(#paint116_linear_591_9339)"/>
</g>
<defs>
<linearGradient id="paint0_linear_591_9339" x1="289.753" y1="167.15" x2="289.753" y2="179.446" gradientUnits="userSpaceOnUse">
<stop stop-color="#7A7A7A"/>
<stop offset="1" stop-color="#404040"/>
</linearGradient>
<linearGradient id="paint1_linear_591_9339" x1="283.903" y1="143.607" x2="283.903" y2="166.467" gradientUnits="userSpaceOnUse">
<stop stop-color="#7A7A7A"/>
<stop offset="1" stop-color="#404040"/>
</linearGradient>
<linearGradient id="paint2_linear_591_9339" x1="274.935" y1="164.44" x2="274.935" y2="166.467" gradientUnits="userSpaceOnUse">
<stop stop-color="#7A7A7A"/>
<stop offset="1" stop-color="#404040"/>
</linearGradient>
<linearGradient id="paint3_linear_591_9339" x1="269.685" y1="142.674" x2="269.685" y2="166.422" gradientUnits="userSpaceOnUse">
<stop stop-color="#7A7A7A"/>
<stop offset="1" stop-color="#404040"/>
</linearGradient>
<linearGradient id="paint4_linear_591_9339" x1="227.971" y1="213.599" x2="227.971" y2="216.536" gradientUnits="userSpaceOnUse">
<stop stop-color="#7A7A7A"/>
<stop offset="1" stop-color="#404040"/>
</linearGradient>
<linearGradient id="paint5_linear_591_9339" x1="246.013" y1="167.128" x2="246.013" y2="196.91" gradientUnits="userSpaceOnUse">
<stop stop-color="#7A7A7A"/>
<stop offset="1" stop-color="#404040"/>
</linearGradient>
<linearGradient id="paint6_linear_591_9339" x1="276.828" y1="123.935" x2="276.828" y2="141.945" gradientUnits="userSpaceOnUse">
<stop stop-color="#7A7A7A"/>
<stop offset="1" stop-color="#404040"/>
</linearGradient>
<linearGradient id="paint7_linear_591_9339" x1="271.012" y1="138.553" x2="271.012" y2="141.945" gradientUnits="userSpaceOnUse">
<stop stop-color="#7A7A7A"/>
<stop offset="1" stop-color="#404040"/>
</linearGradient>
<linearGradient id="paint8_linear_591_9339" x1="265.819" y1="125.21" x2="265.819" y2="140.351" gradientUnits="userSpaceOnUse">
<stop stop-color="#7A7A7A"/>
<stop offset="1" stop-color="#404040"/>
</linearGradient>
<linearGradient id="paint9_linear_591_9339" x1="251.171" y1="164.44" x2="251.171" y2="166.421" gradientUnits="userSpaceOnUse">
<stop stop-color="#7A7A7A"/>
<stop offset="1" stop-color="#404040"/>
</linearGradient>
<linearGradient id="paint10_linear_591_9339" x1="250.003" y1="140.943" x2="250.003" y2="164.35" gradientUnits="userSpaceOnUse">
<stop stop-color="#7A7A7A"/>
<stop offset="1" stop-color="#404040"/>
</linearGradient>
<linearGradient id="paint11_linear_591_9339" x1="273.801" y1="102.122" x2="273.801" y2="122.136" gradientUnits="userSpaceOnUse">
<stop stop-color="#7A7A7A"/>
<stop offset="1" stop-color="#404040"/>
</linearGradient>
<linearGradient id="paint12_linear_591_9339" x1="291.329" y1="79.5352" x2="291.329" y2="99.458" gradientUnits="userSpaceOnUse">
<stop stop-color="#7A7A7A"/>
<stop offset="1" stop-color="#404040"/>
</linearGradient>
<linearGradient id="paint13_linear_591_9339" x1="268.041" y1="117.833" x2="268.041" y2="122.136" gradientUnits="userSpaceOnUse">
<stop stop-color="#7A7A7A"/>
<stop offset="1" stop-color="#404040"/>
</linearGradient>
<linearGradient id="paint14_linear_591_9339" x1="255.23" y1="137.482" x2="255.23" y2="140.351" gradientUnits="userSpaceOnUse">
<stop stop-color="#7A7A7A"/>
<stop offset="1" stop-color="#404040"/>
</linearGradient>
<linearGradient id="paint15_linear_591_9339" x1="265.921" y1="102.418" x2="265.921" y2="119.449" gradientUnits="userSpaceOnUse">
<stop stop-color="#7A7A7A"/>
<stop offset="1" stop-color="#404040"/>
</linearGradient>
<linearGradient id="paint16_linear_591_9339" x1="260.434" y1="122.568" x2="260.434" y2="137.368" gradientUnits="userSpaceOnUse">
<stop stop-color="#7A7A7A"/>
<stop offset="1" stop-color="#404040"/>
</linearGradient>
<linearGradient id="paint17_linear_591_9339" x1="252.804" y1="119.973" x2="252.804" y2="137.664" gradientUnits="userSpaceOnUse">
<stop stop-color="#7A7A7A"/>
<stop offset="1" stop-color="#404040"/>
</linearGradient>
<linearGradient id="paint18_linear_591_9339" x1="236.432" y1="138.962" x2="236.432" y2="215.579" gradientUnits="userSpaceOnUse">
<stop stop-color="#7A7A7A"/>
<stop offset="1" stop-color="#404040"/>
</linearGradient>
<linearGradient id="paint19_linear_591_9339" x1="273.744" y1="79.6035" x2="273.744" y2="99.6174" gradientUnits="userSpaceOnUse">
<stop stop-color="#7A7A7A"/>
<stop offset="1" stop-color="#404040"/>
</linearGradient>
<linearGradient id="paint20_linear_591_9339" x1="293.585" y1="75.4365" x2="293.585" y2="78.9885" gradientUnits="userSpaceOnUse">
<stop stop-color="#7A7A7A"/>
<stop offset="1" stop-color="#404040"/>
</linearGradient>
<linearGradient id="paint21_linear_591_9339" x1="267.974" y1="95.3145" x2="267.974" y2="99.6178" gradientUnits="userSpaceOnUse">
<stop stop-color="#7A7A7A"/>
<stop offset="1" stop-color="#404040"/>
</linearGradient>
<linearGradient id="paint22_linear_591_9339" x1="254.867" y1="115.237" x2="254.867" y2="119.45" gradientUnits="userSpaceOnUse">
<stop stop-color="#7A7A7A"/>
<stop offset="1" stop-color="#404040"/>
</linearGradient>
<linearGradient id="paint23_linear_591_9339" x1="265.864" y1="79.877" x2="265.864" y2="96.9081" gradientUnits="userSpaceOnUse">
<stop stop-color="#7A7A7A"/>
<stop offset="1" stop-color="#404040"/>
</linearGradient>
<linearGradient id="paint24_linear_591_9339" x1="260.377" y1="100.027" x2="260.377" y2="114.827" gradientUnits="userSpaceOnUse">
<stop stop-color="#7A7A7A"/>
<stop offset="1" stop-color="#404040"/>
</linearGradient>
<linearGradient id="paint25_linear_591_9339" x1="244.958" y1="117.787" x2="244.958" y2="140.92" gradientUnits="userSpaceOnUse">
<stop stop-color="#7A7A7A"/>
<stop offset="1" stop-color="#404040"/>
</linearGradient>
<linearGradient id="paint26_linear_591_9339" x1="252.735" y1="97.4541" x2="252.735" y2="115.146" gradientUnits="userSpaceOnUse">
<stop stop-color="#7A7A7A"/>
<stop offset="1" stop-color="#404040"/>
</linearGradient>
<linearGradient id="paint27_linear_591_9339" x1="273.688" y1="57.0625" x2="273.688" y2="77.0764" gradientUnits="userSpaceOnUse">
<stop stop-color="#7A7A7A"/>
<stop offset="1" stop-color="#404040"/>
</linearGradient>
<linearGradient id="paint28_linear_591_9339" x1="291.204" y1="34.4531" x2="291.204" y2="54.3987" gradientUnits="userSpaceOnUse">
<stop stop-color="#7A7A7A"/>
<stop offset="1" stop-color="#404040"/>
</linearGradient>
<linearGradient id="paint29_linear_591_9339" x1="267.916" y1="72.7725" x2="267.916" y2="77.0758" gradientUnits="userSpaceOnUse">
<stop stop-color="#7A7A7A"/>
<stop offset="1" stop-color="#404040"/>
</linearGradient>
<linearGradient id="paint30_linear_591_9339" x1="254.799" y1="92.7188" x2="254.799" y2="96.9082" gradientUnits="userSpaceOnUse">
<stop stop-color="#7A7A7A"/>
<stop offset="1" stop-color="#404040"/>
</linearGradient>
<linearGradient id="paint31_linear_591_9339" x1="265.797" y1="57.3584" x2="265.797" y2="74.3896" gradientUnits="userSpaceOnUse">
<stop stop-color="#7A7A7A"/>
<stop offset="1" stop-color="#404040"/>
</linearGradient>
<linearGradient id="paint32_linear_591_9339" x1="260.321" y1="77.5088" x2="260.321" y2="92.3086" gradientUnits="userSpaceOnUse">
<stop stop-color="#7A7A7A"/>
<stop offset="1" stop-color="#404040"/>
</linearGradient>
<linearGradient id="paint33_linear_591_9339" x1="244.89" y1="96.0654" x2="244.89" y2="117.4" gradientUnits="userSpaceOnUse">
<stop stop-color="#7A7A7A"/>
<stop offset="1" stop-color="#404040"/>
</linearGradient>
<linearGradient id="paint34_linear_591_9339" x1="252.679" y1="74.9131" x2="252.679" y2="92.6046" gradientUnits="userSpaceOnUse">
<stop stop-color="#7A7A7A"/>
<stop offset="1" stop-color="#404040"/>
</linearGradient>
<linearGradient id="paint35_linear_591_9339" x1="273.619" y1="34.5439" x2="273.619" y2="54.5579" gradientUnits="userSpaceOnUse">
<stop stop-color="#7A7A7A"/>
<stop offset="1" stop-color="#404040"/>
</linearGradient>
<linearGradient id="paint36_linear_591_9339" x1="293.358" y1="30.2178" x2="293.358" y2="33.9291" gradientUnits="userSpaceOnUse">
<stop stop-color="#7A7A7A"/>
<stop offset="1" stop-color="#404040"/>
</linearGradient>
<linearGradient id="paint37_linear_591_9339" x1="267.849" y1="50.2539" x2="267.849" y2="54.5572" gradientUnits="userSpaceOnUse">
<stop stop-color="#7A7A7A"/>
<stop offset="1" stop-color="#404040"/>
</linearGradient>
<linearGradient id="paint38_linear_591_9339" x1="229.426" y1="115.419" x2="229.426" y2="135.342" gradientUnits="userSpaceOnUse">
<stop stop-color="#7A7A7A"/>
<stop offset="1" stop-color="#404040"/>
</linearGradient>
<linearGradient id="paint39_linear_591_9339" x1="254.731" y1="70.1768" x2="254.731" y2="74.389" gradientUnits="userSpaceOnUse">
<stop stop-color="#7A7A7A"/>
<stop offset="1" stop-color="#404040"/>
</linearGradient>
<linearGradient id="paint40_linear_591_9339" x1="265.729" y1="34.8398" x2="265.729" y2="51.8483" gradientUnits="userSpaceOnUse">
<stop stop-color="#7A7A7A"/>
<stop offset="1" stop-color="#404040"/>
</linearGradient>
<linearGradient id="paint41_linear_591_9339" x1="208.995" y1="137.801" x2="208.995" y2="140.169" gradientUnits="userSpaceOnUse">
<stop stop-color="#7A7A7A"/>
<stop offset="1" stop-color="#404040"/>
</linearGradient>
<linearGradient id="paint42_linear_591_9339" x1="260.252" y1="54.9678" x2="260.252" y2="69.7676" gradientUnits="userSpaceOnUse">
<stop stop-color="#7A7A7A"/>
<stop offset="1" stop-color="#404040"/>
</linearGradient>
<linearGradient id="paint43_linear_591_9339" x1="227.102" y1="93.3564" x2="227.102" y2="138.143" gradientUnits="userSpaceOnUse">
<stop stop-color="#7A7A7A"/>
<stop offset="1" stop-color="#404040"/>
</linearGradient>
<linearGradient id="paint44_linear_591_9339" x1="209.094" y1="136.162" x2="209.094" y2="139.782" gradientUnits="userSpaceOnUse">
<stop stop-color="#7A7A7A"/>
<stop offset="1" stop-color="#404040"/>
</linearGradient>
<linearGradient id="paint45_linear_591_9339" x1="244.822" y1="72.7275" x2="244.822" y2="95.3371" gradientUnits="userSpaceOnUse">
<stop stop-color="#7A7A7A"/>
<stop offset="1" stop-color="#404040"/>
</linearGradient>
<linearGradient id="paint46_linear_591_9339" x1="252.611" y1="52.3721" x2="252.611" y2="70.0863" gradientUnits="userSpaceOnUse">
<stop stop-color="#7A7A7A"/>
<stop offset="1" stop-color="#404040"/>
</linearGradient>
<linearGradient id="paint47_linear_591_9339" x1="254.663" y1="47.6582" x2="254.663" y2="51.8477" gradientUnits="userSpaceOnUse">
<stop stop-color="#7A7A7A"/>
<stop offset="1" stop-color="#404040"/>
</linearGradient>
<linearGradient id="paint48_linear_591_9339" x1="260.196" y1="31.9023" x2="260.196" y2="47.8179" gradientUnits="userSpaceOnUse">
<stop stop-color="#7A7A7A"/>
<stop offset="1" stop-color="#404040"/>
</linearGradient>
<linearGradient id="paint49_linear_591_9339" x1="244.754" y1="51.0059" x2="244.754" y2="72.3404" gradientUnits="userSpaceOnUse">
<stop stop-color="#7A7A7A"/>
<stop offset="1" stop-color="#404040"/>
</linearGradient>
<linearGradient id="paint50_linear_591_9339" x1="268.144" y1="23.0459" x2="268.144" y2="32.199" gradientUnits="userSpaceOnUse">
<stop stop-color="#7A7A7A"/>
<stop offset="1" stop-color="#404040"/>
</linearGradient>
<linearGradient id="paint51_linear_591_9339" x1="260.128" y1="22.998" x2="260.128" y2="25.846" gradientUnits="userSpaceOnUse">
<stop stop-color="#7A7A7A"/>
<stop offset="1" stop-color="#404040"/>
</linearGradient>
<linearGradient id="paint52_linear_591_9339" x1="252.067" y1="23.8652" x2="252.067" y2="50.3" gradientUnits="userSpaceOnUse">
<stop stop-color="#7A7A7A"/>
<stop offset="1" stop-color="#404040"/>
</linearGradient>
<linearGradient id="paint53_linear_591_9339" x1="229.301" y1="70.3594" x2="229.301" y2="90.2822" gradientUnits="userSpaceOnUse">
<stop stop-color="#7A7A7A"/>
<stop offset="1" stop-color="#404040"/>
</linearGradient>
<linearGradient id="paint54_linear_591_9339" x1="208.882" y1="92.7412" x2="208.882" y2="95.1092" gradientUnits="userSpaceOnUse">
<stop stop-color="#7A7A7A"/>
<stop offset="1" stop-color="#404040"/>
</linearGradient>
<linearGradient id="paint55_linear_591_9339" x1="226.977" y1="48.3193" x2="226.977" y2="93.0831" gradientUnits="userSpaceOnUse">
<stop stop-color="#7A7A7A"/>
<stop offset="1" stop-color="#404040"/>
</linearGradient>
<linearGradient id="paint56_linear_591_9339" x1="262.02" y1="24.9785" x2="262.02" y2="216.624" gradientUnits="userSpaceOnUse">
<stop stop-color="#7A7A7A"/>
<stop offset="1" stop-color="#404040"/>
</linearGradient>
<linearGradient id="paint57_linear_591_9339" x1="208.957" y1="91.1016" x2="208.957" y2="94.7218" gradientUnits="userSpaceOnUse">
<stop stop-color="#7A7A7A"/>
<stop offset="1" stop-color="#404040"/>
</linearGradient>
<linearGradient id="paint58_linear_591_9339" x1="342.869" y1="194.838" x2="342.869" y2="197.138" gradientUnits="userSpaceOnUse">
<stop stop-color="#FF6069"/>
<stop offset="1" stop-color="#E30613"/>
</linearGradient>
<linearGradient id="paint59_linear_591_9339" x1="341.112" y1="184.523" x2="341.112" y2="196.841" gradientUnits="userSpaceOnUse">
<stop stop-color="#FF6069"/>
<stop offset="1" stop-color="#E30613"/>
</linearGradient>
<linearGradient id="paint60_linear_591_9339" x1="335.262" y1="161.003" x2="335.262" y2="183.84" gradientUnits="userSpaceOnUse">
<stop stop-color="#FF6069"/>
<stop offset="1" stop-color="#E30613"/>
</linearGradient>
<linearGradient id="paint61_linear_591_9339" x1="326.282" y1="181.837" x2="326.282" y2="183.841" gradientUnits="userSpaceOnUse">
<stop stop-color="#FF6069"/>
<stop offset="1" stop-color="#E30613"/>
</linearGradient>
<linearGradient id="paint62_linear_591_9339" x1="321.044" y1="160.069" x2="321.044" y2="183.817" gradientUnits="userSpaceOnUse">
<stop stop-color="#FF6069"/>
<stop offset="1" stop-color="#E30613"/>
</linearGradient>
<linearGradient id="paint63_linear_591_9339" x1="279.33" y1="230.972" x2="279.33" y2="233.909" gradientUnits="userSpaceOnUse">
<stop stop-color="#FF6069"/>
<stop offset="1" stop-color="#E30613"/>
</linearGradient>
<linearGradient id="paint64_linear_591_9339" x1="297.371" y1="184.5" x2="297.371" y2="214.305" gradientUnits="userSpaceOnUse">
<stop stop-color="#FF6069"/>
<stop offset="1" stop-color="#E30613"/>
</linearGradient>
<linearGradient id="paint65_linear_591_9339" x1="328.187" y1="141.308" x2="328.187" y2="159.318" gradientUnits="userSpaceOnUse">
<stop stop-color="#FF6069"/>
<stop offset="1" stop-color="#E30613"/>
</linearGradient>
<linearGradient id="paint66_linear_591_9339" x1="322.371" y1="155.948" x2="322.371" y2="159.318" gradientUnits="userSpaceOnUse">
<stop stop-color="#FF6069"/>
<stop offset="1" stop-color="#E30613"/>
</linearGradient>
<linearGradient id="paint67_linear_591_9339" x1="317.178" y1="142.583" x2="317.178" y2="157.747" gradientUnits="userSpaceOnUse">
<stop stop-color="#FF6069"/>
<stop offset="1" stop-color="#E30613"/>
</linearGradient>
<linearGradient id="paint68_linear_591_9339" x1="302.53" y1="181.813" x2="302.53" y2="183.817" gradientUnits="userSpaceOnUse">
<stop stop-color="#FF6069"/>
<stop offset="1" stop-color="#E30613"/>
</linearGradient>
<linearGradient id="paint69_linear_591_9339" x1="301.362" y1="158.339" x2="301.362" y2="181.723" gradientUnits="userSpaceOnUse">
<stop stop-color="#FF6069"/>
<stop offset="1" stop-color="#E30613"/>
</linearGradient>
<linearGradient id="paint70_linear_591_9339" x1="325.16" y1="119.495" x2="325.16" y2="139.509" gradientUnits="userSpaceOnUse">
<stop stop-color="#FF6069"/>
<stop offset="1" stop-color="#E30613"/>
</linearGradient>
<linearGradient id="paint71_linear_591_9339" x1="342.688" y1="96.9082" x2="342.688" y2="116.854" gradientUnits="userSpaceOnUse">
<stop stop-color="#FF6069"/>
<stop offset="1" stop-color="#E30613"/>
</linearGradient>
<linearGradient id="paint72_linear_591_9339" x1="319.4" y1="135.206" x2="319.4" y2="139.509" gradientUnits="userSpaceOnUse">
<stop stop-color="#FF6069"/>
<stop offset="1" stop-color="#E30613"/>
</linearGradient>
<linearGradient id="paint73_linear_591_9339" x1="306.589" y1="154.855" x2="306.589" y2="157.747" gradientUnits="userSpaceOnUse">
<stop stop-color="#FF6069"/>
<stop offset="1" stop-color="#E30613"/>
</linearGradient>
<linearGradient id="paint74_linear_591_9339" x1="317.28" y1="119.813" x2="317.28" y2="136.845" gradientUnits="userSpaceOnUse">
<stop stop-color="#FF6069"/>
<stop offset="1" stop-color="#E30613"/>
</linearGradient>
<linearGradient id="paint75_linear_591_9339" x1="311.793" y1="139.941" x2="311.793" y2="154.741" gradientUnits="userSpaceOnUse">
<stop stop-color="#FF6069"/>
<stop offset="1" stop-color="#E30613"/>
</linearGradient>
<linearGradient id="paint76_linear_591_9339" x1="304.163" y1="137.346" x2="304.163" y2="155.06" gradientUnits="userSpaceOnUse">
<stop stop-color="#FF6069"/>
<stop offset="1" stop-color="#E30613"/>
</linearGradient>
<linearGradient id="paint77_linear_591_9339" x1="287.791" y1="156.335" x2="287.791" y2="232.953" gradientUnits="userSpaceOnUse">
<stop stop-color="#FF6069"/>
<stop offset="1" stop-color="#E30613"/>
</linearGradient>
<linearGradient id="paint78_linear_591_9339" x1="325.092" y1="96.9766" x2="325.092" y2="116.99" gradientUnits="userSpaceOnUse">
<stop stop-color="#FF6069"/>
<stop offset="1" stop-color="#E30613"/>
</linearGradient>
<linearGradient id="paint79_linear_591_9339" x1="344.932" y1="92.8096" x2="344.932" y2="96.3843" gradientUnits="userSpaceOnUse">
<stop stop-color="#FF6069"/>
<stop offset="1" stop-color="#E30613"/>
</linearGradient>
<linearGradient id="paint80_linear_591_9339" x1="319.332" y1="112.688" x2="319.332" y2="116.991" gradientUnits="userSpaceOnUse">
<stop stop-color="#FF6069"/>
<stop offset="1" stop-color="#E30613"/>
</linearGradient>
<linearGradient id="paint81_linear_591_9339" x1="306.226" y1="132.633" x2="306.226" y2="136.845" gradientUnits="userSpaceOnUse">
<stop stop-color="#FF6069"/>
<stop offset="1" stop-color="#E30613"/>
</linearGradient>
<linearGradient id="paint82_linear_591_9339" x1="317.212" y1="97.2725" x2="317.212" y2="114.304" gradientUnits="userSpaceOnUse">
<stop stop-color="#FF6069"/>
<stop offset="1" stop-color="#E30613"/>
</linearGradient>
<linearGradient id="paint83_linear_591_9339" x1="311.725" y1="117.423" x2="311.725" y2="132.223" gradientUnits="userSpaceOnUse">
<stop stop-color="#FF6069"/>
<stop offset="1" stop-color="#E30613"/>
</linearGradient>
<linearGradient id="paint84_linear_591_9339" x1="296.306" y1="135.183" x2="296.306" y2="158.316" gradientUnits="userSpaceOnUse">
<stop stop-color="#FF6069"/>
<stop offset="1" stop-color="#E30613"/>
</linearGradient>
<linearGradient id="paint85_linear_591_9339" x1="304.094" y1="114.827" x2="304.094" y2="132.519" gradientUnits="userSpaceOnUse">
<stop stop-color="#FF6069"/>
<stop offset="1" stop-color="#E30613"/>
</linearGradient>
<linearGradient id="paint86_linear_591_9339" x1="325.035" y1="74.4355" x2="325.035" y2="94.4495" gradientUnits="userSpaceOnUse">
<stop stop-color="#FF6069"/>
<stop offset="1" stop-color="#E30613"/>
</linearGradient>
<linearGradient id="paint87_linear_591_9339" x1="342.551" y1="51.8486" x2="342.551" y2="71.7942" gradientUnits="userSpaceOnUse">
<stop stop-color="#FF6069"/>
<stop offset="1" stop-color="#E30613"/>
</linearGradient>
<linearGradient id="paint88_linear_591_9339" x1="319.264" y1="90.1689" x2="319.264" y2="94.4495" gradientUnits="userSpaceOnUse">
<stop stop-color="#FF6069"/>
<stop offset="1" stop-color="#E30613"/>
</linearGradient>
<linearGradient id="paint89_linear_591_9339" x1="306.158" y1="110.092" x2="306.158" y2="114.304" gradientUnits="userSpaceOnUse">
<stop stop-color="#FF6069"/>
<stop offset="1" stop-color="#E30613"/>
</linearGradient>
<linearGradient id="paint90_linear_591_9339" x1="317.155" y1="74.7539" x2="317.155" y2="91.7623" gradientUnits="userSpaceOnUse">
<stop stop-color="#FF6069"/>
<stop offset="1" stop-color="#E30613"/>
</linearGradient>
<linearGradient id="paint91_linear_591_9339" x1="311.68" y1="94.8818" x2="311.68" y2="109.682" gradientUnits="userSpaceOnUse">
<stop stop-color="#FF6069"/>
<stop offset="1" stop-color="#E30613"/>
</linearGradient>
<linearGradient id="paint92_linear_591_9339" x1="296.249" y1="113.461" x2="296.249" y2="134.773" gradientUnits="userSpaceOnUse">
<stop stop-color="#FF6069"/>
<stop offset="1" stop-color="#E30613"/>
</linearGradient>
<linearGradient id="paint93_linear_591_9339" x1="304.027" y1="92.3086" x2="304.027" y2="109.977" gradientUnits="userSpaceOnUse">
<stop stop-color="#FF6069"/>
<stop offset="1" stop-color="#E30613"/>
</linearGradient>
<linearGradient id="paint94_linear_591_9339" x1="324.978" y1="51.917" x2="324.978" y2="71.9309" gradientUnits="userSpaceOnUse">
<stop stop-color="#FF6069"/>
<stop offset="1" stop-color="#E30613"/>
</linearGradient>
<linearGradient id="paint95_linear_591_9339" x1="344.717" y1="47.6133" x2="344.717" y2="51.3246" gradientUnits="userSpaceOnUse">
<stop stop-color="#FF6069"/>
<stop offset="1" stop-color="#E30613"/>
</linearGradient>
<linearGradient id="paint96_linear_591_9339" x1="319.207" y1="67.627" x2="319.207" y2="71.9303" gradientUnits="userSpaceOnUse">
<stop stop-color="#FF6069"/>
<stop offset="1" stop-color="#E30613"/>
</linearGradient>
<linearGradient id="paint97_linear_591_9339" x1="280.784" y1="132.792" x2="280.784" y2="152.738" gradientUnits="userSpaceOnUse">
<stop stop-color="#FF6069"/>
<stop offset="1" stop-color="#E30613"/>
</linearGradient>
<linearGradient id="paint98_linear_591_9339" x1="306.09" y1="87.5732" x2="306.09" y2="91.7627" gradientUnits="userSpaceOnUse">
<stop stop-color="#FF6069"/>
<stop offset="1" stop-color="#E30613"/>
</linearGradient>
<linearGradient id="paint99_linear_591_9339" x1="317.088" y1="52.2129" x2="317.088" y2="69.2441" gradientUnits="userSpaceOnUse">
<stop stop-color="#FF6069"/>
<stop offset="1" stop-color="#E30613"/>
</linearGradient>
<linearGradient id="paint100_linear_591_9339" x1="260.332" y1="155.197" x2="260.332" y2="157.565" gradientUnits="userSpaceOnUse">
<stop stop-color="#FF6069"/>
<stop offset="1" stop-color="#E30613"/>
</linearGradient>
<linearGradient id="paint101_linear_591_9339" x1="311.611" y1="72.3633" x2="311.611" y2="87.1631" gradientUnits="userSpaceOnUse">
<stop stop-color="#FF6069"/>
<stop offset="1" stop-color="#E30613"/>
</linearGradient>
<linearGradient id="paint102_linear_591_9339" x1="278.46" y1="110.752" x2="278.46" y2="155.539" gradientUnits="userSpaceOnUse">
<stop stop-color="#FF6069"/>
<stop offset="1" stop-color="#E30613"/>
</linearGradient>
<linearGradient id="paint103_linear_591_9339" x1="260.429" y1="153.558" x2="260.429" y2="157.178" gradientUnits="userSpaceOnUse">
<stop stop-color="#FF6069"/>
<stop offset="1" stop-color="#E30613"/>
</linearGradient>
<linearGradient id="paint104_linear_591_9339" x1="296.181" y1="90.123" x2="296.181" y2="112.733" gradientUnits="userSpaceOnUse">
<stop stop-color="#FF6069"/>
<stop offset="1" stop-color="#E30613"/>
</linearGradient>
<linearGradient id="paint105_linear_591_9339" x1="303.97" y1="69.7676" x2="303.97" y2="87.4591" gradientUnits="userSpaceOnUse">
<stop stop-color="#FF6069"/>
<stop offset="1" stop-color="#E30613"/>
</linearGradient>
<linearGradient id="paint106_linear_591_9339" x1="306.022" y1="65.0547" x2="306.022" y2="69.2442" gradientUnits="userSpaceOnUse">
<stop stop-color="#FF6069"/>
<stop offset="1" stop-color="#E30613"/>
</linearGradient>
<linearGradient id="paint107_linear_591_9339" x1="311.532" y1="49.2754" x2="311.532" y2="65.1909" gradientUnits="userSpaceOnUse">
<stop stop-color="#FF6069"/>
<stop offset="1" stop-color="#E30613"/>
</linearGradient>
<linearGradient id="paint108_linear_591_9339" x1="296.113" y1="68.4014" x2="296.113" y2="89.7131" gradientUnits="userSpaceOnUse">
<stop stop-color="#FF6069"/>
<stop offset="1" stop-color="#E30613"/>
</linearGradient>
<linearGradient id="paint109_linear_591_9339" x1="319.502" y1="40.4414" x2="319.502" y2="49.5945" gradientUnits="userSpaceOnUse">
<stop stop-color="#FF6069"/>
<stop offset="1" stop-color="#E30613"/>
</linearGradient>
<linearGradient id="paint110_linear_591_9339" x1="311.487" y1="40.3711" x2="311.487" y2="43.2191" gradientUnits="userSpaceOnUse">
<stop stop-color="#FF6069"/>
<stop offset="1" stop-color="#E30613"/>
</linearGradient>
<linearGradient id="paint111_linear_591_9339" x1="303.426" y1="41.2607" x2="303.426" y2="67.6727" gradientUnits="userSpaceOnUse">
<stop stop-color="#FF6069"/>
<stop offset="1" stop-color="#E30613"/>
</linearGradient>
<linearGradient id="paint112_linear_591_9339" x1="280.649" y1="87.7324" x2="280.649" y2="107.678" gradientUnits="userSpaceOnUse">
<stop stop-color="#FF6069"/>
<stop offset="1" stop-color="#E30613"/>
</linearGradient>
<linearGradient id="paint113_linear_591_9339" x1="260.219" y1="110.137" x2="260.219" y2="112.505" gradientUnits="userSpaceOnUse">
<stop stop-color="#FF6069"/>
<stop offset="1" stop-color="#E30613"/>
</linearGradient>
<linearGradient id="paint114_linear_591_9339" x1="278.336" y1="65.6924" x2="278.336" y2="110.456" gradientUnits="userSpaceOnUse">
<stop stop-color="#FF6069"/>
<stop offset="1" stop-color="#E30613"/>
</linearGradient>
<linearGradient id="paint115_linear_591_9339" x1="313.356" y1="42.3975" x2="313.356" y2="234.02" gradientUnits="userSpaceOnUse">
<stop stop-color="#FF6069"/>
<stop offset="1" stop-color="#E30613"/>
</linearGradient>
<linearGradient id="paint116_linear_591_9339" x1="260.316" y1="108.498" x2="260.316" y2="112.118" gradientUnits="userSpaceOnUse">
<stop stop-color="#FF6069"/>
<stop offset="1" stop-color="#E30613"/>
</linearGradient>
<clipPath id="clip0_591_9339">
<rect width="158" height="211" fill="white" transform="translate(207 23)"/>
</clipPath>
</defs>
</svg>
