<svg width="593" height="440" viewBox="0 0 593 440" fill="none" xmlns="http://www.w3.org/2000/svg">
<rect width="593" height="440" fill="white"/>
<path d="M249.193 405.471C249.107 405.471 249.022 405.451 248.949 405.405L162.062 355.893C161.91 355.808 161.812 355.643 161.812 355.466C161.812 355.288 161.904 355.124 162.062 355.039L236.226 312.533C236.463 312.395 236.765 312.48 236.897 312.717C237.035 312.953 236.95 313.256 236.713 313.387L163.299 355.459L249.193 404.406L300.726 374.316C300.878 374.231 301.069 374.224 301.22 374.316L322.475 386.443L365.234 362.045C365.471 361.914 365.774 361.992 365.905 362.229C366.044 362.466 365.958 362.768 365.721 362.9L322.718 387.435C322.567 387.521 322.383 387.521 322.231 387.435L300.977 375.309L249.443 405.399C249.364 405.445 249.278 405.464 249.193 405.464V405.471Z" fill="#E7E9EB"/>
<path d="M434.355 361.959C434.27 361.959 434.178 361.933 434.099 361.887L359.935 317.193C359.704 317.055 359.625 316.746 359.77 316.516C359.908 316.286 360.218 316.207 360.448 316.351L434.612 361.046C434.842 361.184 434.921 361.493 434.777 361.723C434.684 361.874 434.52 361.959 434.355 361.959Z" fill="#E7E9EB"/>
<path d="M452.918 304.429C452.833 304.429 452.747 304.409 452.675 304.363L431.17 292.092C430.933 291.954 430.854 291.658 430.986 291.421C431.124 291.185 431.42 291.106 431.657 291.237L452.912 303.364L537.068 253.549L502.26 233.811C502.109 233.726 502.01 233.562 502.01 233.384C502.01 233.207 502.102 233.042 502.253 232.957L544.519 207.981L512.357 189.998C512.12 189.866 512.035 189.564 512.167 189.327C512.298 189.091 512.601 189.005 512.838 189.137L545.75 207.54C545.901 207.626 546 207.79 546 207.968C546 208.145 545.908 208.309 545.757 208.395L503.484 233.378L538.285 253.115C538.437 253.201 538.536 253.365 538.536 253.543C538.536 253.72 538.443 253.884 538.292 253.97L453.162 304.363C453.083 304.409 452.997 304.429 452.912 304.429H452.918Z" fill="#E7E9EB"/>
<path d="M371.983 362.185C371.996 359.796 368.65 357.842 364.509 357.82C360.368 357.797 357.001 359.715 356.988 362.104C356.975 364.492 360.321 366.447 364.462 366.469C368.603 366.492 371.97 364.573 371.983 362.185Z" fill="#E7E9EB"/>
<path d="M74.6472 273.195C71.7246 274.878 66.9787 274.871 64.043 273.175C61.1072 271.48 61.0875 268.745 64.0101 267.063C66.9326 265.38 71.6786 265.387 74.6143 267.082C77.5501 268.778 77.5698 271.512 74.6472 273.195Z" fill="#E7E9EB"/>
<path d="M474.668 86.7919C474.681 84.4033 471.335 82.449 467.195 82.4266C463.054 82.4042 459.687 84.3223 459.674 86.7108C459.661 89.0994 463.007 91.0538 467.148 91.0761C471.288 91.0985 474.655 89.1804 474.668 86.7919Z" fill="#E7E9EB"/>
<path d="M200.338 376.88C198.1 378.174 194.453 378.168 192.195 376.866C189.937 375.565 189.931 373.462 192.169 372.174C194.407 370.879 198.054 370.885 200.311 372.187C202.569 373.488 202.576 375.591 200.338 376.88Z" fill="#E7E9EB"/>
<path d="M183.5 332.225C181.262 333.519 177.616 333.513 175.358 332.211C173.1 330.91 173.093 328.807 175.331 327.519C177.569 326.23 181.216 326.23 183.474 327.532C185.732 328.833 185.738 330.936 183.5 332.225Z" fill="#E7E9EB"/>
<path d="M79.9128 205.713C77.6748 207.008 74.0282 207.001 71.7704 205.7C69.5126 204.399 69.506 202.295 71.7441 201.007C73.9821 199.719 77.6287 199.719 79.8865 201.02C82.1443 202.322 82.1508 204.425 79.9128 205.713Z" fill="#E7E9EB"/>
<path d="M132.131 114.576C129.893 115.871 126.246 115.864 123.989 114.563C121.731 113.261 121.724 111.158 123.962 109.87C126.2 108.575 129.847 108.582 132.105 109.883C134.363 111.184 134.369 113.288 132.131 114.576Z" fill="#E7E9EB"/>
<path d="M480.584 291.54C478.346 292.834 474.699 292.828 472.441 291.526C470.184 290.225 470.177 288.122 472.415 286.833C474.653 285.545 478.3 285.545 480.557 286.847C482.815 288.148 482.822 290.251 480.584 291.54Z" fill="#E7E9EB"/>
<path d="M332.611 70.7158C330.373 72.0106 326.726 72.004 324.469 70.7026C322.211 69.4012 322.204 67.298 324.442 66.0097C326.68 64.7215 330.327 64.7215 332.585 66.0229C334.842 67.3243 334.849 69.4275 332.611 70.7158Z" fill="#E7E9EB"/>
<path d="M438.686 364.208C435.764 365.89 431.018 365.884 428.082 364.188C425.146 362.492 425.127 359.758 428.049 358.075C430.972 356.393 435.718 356.399 438.653 358.095C441.589 359.791 441.609 362.525 438.686 364.208Z" fill="#E7E9EB"/>
<path d="M518.084 193.514C515.161 195.197 510.415 195.19 507.479 193.494C504.544 191.798 504.524 189.064 507.447 187.382C510.369 185.699 515.115 185.706 518.051 187.401C520.987 189.097 521.006 191.831 518.084 193.514Z" fill="#E7E9EB"/>
<path d="M134.113 357.017L68.1636 319.645L111.397 294.885L69.355 270.553L69.8487 269.698L113.371 294.885L70.158 319.638L134.106 355.88L198.146 318.994L198.64 319.848L134.113 357.017Z" fill="#E7E9EB"/>
<path d="M102.069 251.637L101.826 251.492L46.6719 219.739L99.3442 189.275L73.2384 173.724L116.36 148.32L163.016 175.571L162.516 176.418L116.366 149.464L75.1737 173.73L101.293 189.288L48.6466 219.733L102.076 250.5L121.139 239.681L121.626 240.542L102.069 251.637Z" fill="#E7E9EB"/>
<path d="M424.304 186.915L423.824 186.061L487.923 149.865L444.479 124.888L487.923 100.241L381.295 39.0289L296.389 87.7525L318.11 100.241L317.367 100.668L231.466 149.963L230.973 149.109L316.129 100.241L294.407 87.7525L381.295 37.8918L381.545 38.0299L489.918 100.247L446.467 124.895L489.918 149.871L424.304 186.915Z" fill="#E7E9EB"/>
<path d="M175.99 159.474L110.738 121.911L154.169 96.9413L131.782 84.4532L176.562 59.2336L176.806 59.3717L219.921 83.6907L219.433 84.5517L176.562 60.3642L133.796 84.4466L156.17 96.9282L112.72 121.911L176.483 158.62L175.99 159.474Z" fill="#E7E9EB"/>
<path d="M507.983 238.015C508.355 169.354 412.107 113.172 293.008 112.529C173.908 111.885 77.0574 167.024 76.6854 235.685C76.3133 304.346 172.561 360.528 291.661 361.172C410.76 361.815 507.611 306.676 507.983 238.015Z" fill="#E7E9EB"/>
<path d="M438.555 148.976L468.681 166.342C467.166 165.094 465.595 163.861 464.001 162.644L439.422 148.477L438.555 148.976Z" fill="white"/>
<path d="M438.538 147.962L421.327 138.038C419.24 137.126 417.123 136.252 414.998 135.386L437.679 148.461L438.546 147.962H438.538Z" fill="white"/>
<path d="M178.111 339.44L143.14 319.281L142.273 319.78L177.244 339.939L178.111 339.44Z" fill="white"/>
<path d="M105.068 297.328C105.388 297.656 105.724 297.983 106.052 298.311L106.412 298.1L105.068 297.328Z" fill="white"/>
<path d="M178.119 340.446L183.392 343.489C184.705 343.941 186.041 344.347 187.369 344.776L178.986 339.947L178.119 340.446Z" fill="white"/>
<path d="M142.257 318.774L107.287 298.615L106.685 298.958C106.935 299.208 107.177 299.45 107.435 299.699L141.39 319.273L142.257 318.774Z" fill="white"/>
<path d="M246.614 341.281L211.644 321.122L210.776 321.621L245.747 341.78L246.614 341.281Z" fill="white"/>
<path d="M103.232 259.624L138.203 279.782L139.07 279.275L104.099 259.116L103.232 259.624Z" fill="white"/>
<path d="M246.63 342.287L278.374 360.59C278.999 360.613 279.624 360.644 280.249 360.668L247.497 341.788L246.63 342.287Z" fill="white"/>
<path d="M139.078 280.29L174.048 300.448L174.915 299.949L139.945 279.79L139.078 280.29Z" fill="white"/>
<path d="M103.216 258.609L77.6133 243.849C77.6523 244.208 77.6836 244.559 77.7305 244.918L102.349 259.109L103.216 258.609Z" fill="white"/>
<path d="M210.761 320.615L175.798 300.456L174.931 300.956L209.894 321.114L210.761 320.615Z" fill="white"/>
<path d="M135.89 240.791L170.852 260.95L171.72 260.451L136.757 240.292L135.89 240.791Z" fill="white"/>
<path d="M315.133 344.128L339.353 358.093C339.83 358.031 340.306 357.976 340.783 357.914L316.001 343.629L315.133 344.128Z" fill="white"/>
<path d="M100.021 219.119L82.3872 208.953C82.2778 209.226 82.1685 209.492 82.0669 209.765L99.1615 219.618L100.029 219.119H100.021Z" fill="white"/>
<path d="M243.419 301.782L208.456 281.631L207.589 282.131L242.552 302.29L243.419 301.782Z" fill="white"/>
<path d="M315.118 343.122L280.148 322.963L279.28 323.463L314.251 343.622L315.118 343.122Z" fill="white"/>
<path d="M171.735 261.457L206.706 281.616L207.573 281.116L172.603 260.958L171.735 261.457Z" fill="white"/>
<path d="M100.036 220.125L135.007 240.284L135.874 239.785L100.903 219.626L100.036 220.125Z" fill="white"/>
<path d="M279.272 322.456L244.302 302.297L243.435 302.797L278.397 322.956L279.272 322.456Z" fill="white"/>
<path d="M347.776 324.297L312.805 304.138L311.938 304.638L346.909 324.797L347.776 324.297Z" fill="white"/>
<path d="M132.694 201.3L167.665 221.459L168.532 220.96L133.562 200.801L132.694 201.3Z" fill="white"/>
<path d="M132.679 200.294L99.458 181.141C99.2627 181.368 99.0752 181.586 98.8799 181.812L131.803 200.793L132.671 200.294H132.679Z" fill="white"/>
<path d="M311.922 303.624L276.96 283.465L276.092 283.972L311.055 304.123L311.922 303.624Z" fill="white"/>
<path d="M168.54 221.966L203.511 242.125L204.378 241.626L169.415 221.467L168.54 221.966Z" fill="white"/>
<path d="M276.077 282.958L241.107 262.799L240.239 263.298L275.21 283.457L276.077 282.958Z" fill="white"/>
<path d="M383.638 345.97L387.849 348.396C388.24 348.287 388.622 348.178 389.013 348.068L384.505 345.47L383.638 345.97Z" fill="white"/>
<path d="M204.394 242.632L239.356 262.791L240.231 262.292L205.261 242.133L204.394 242.632Z" fill="white"/>
<path d="M383.622 344.963L348.651 324.804L347.784 325.304L382.754 345.463L383.622 344.963Z" fill="white"/>
<path d="M165.353 182.475L200.315 202.634L201.183 202.135L166.22 181.976L165.353 182.475Z" fill="white"/>
<path d="M201.198 203.141L236.168 223.3L237.036 222.801L202.065 202.642L201.198 203.141Z" fill="white"/>
<path d="M237.052 223.807L272.015 243.966L272.882 243.467L237.919 223.308L237.052 223.807Z" fill="white"/>
<path d="M416.295 327.145L427.796 333.776C428.116 333.628 428.452 333.487 428.773 333.339L417.163 326.646L416.295 327.145Z" fill="white"/>
<path d="M344.58 284.799L309.61 264.64L308.743 265.139L343.713 285.298L344.58 284.799Z" fill="white"/>
<path d="M416.279 326.131L381.309 305.972L380.441 306.479L415.412 326.638L416.279 326.131Z" fill="white"/>
<path d="M129.499 161.809L164.47 181.968L165.337 181.469L130.374 161.31L129.499 161.809Z" fill="white"/>
<path d="M129.491 160.803L125.061 158.244C124.803 158.431 124.553 158.619 124.295 158.798L128.632 161.294L129.499 160.795L129.491 160.803Z" fill="white"/>
<path d="M380.426 305.465L345.463 285.306L344.596 285.805L379.558 305.964L380.426 305.465Z" fill="white"/>
<path d="M308.735 264.133L273.764 243.974L272.897 244.473L307.868 264.632L308.735 264.133Z" fill="white"/>
<path d="M448.945 308.312L460.462 314.951C460.719 314.764 460.969 314.577 461.227 314.397L449.813 307.813L448.945 308.312Z" fill="white"/>
<path d="M341.385 245.308L306.422 225.149L305.555 225.648L340.518 245.807L341.385 245.308Z" fill="white"/>
<path d="M377.238 265.974L342.268 245.815L341.4 246.314L376.371 266.473L377.238 265.974Z" fill="white"/>
<path d="M413.084 286.64L378.121 266.481L377.254 266.98L412.217 287.139L413.084 286.64Z" fill="white"/>
<path d="M162.141 141.97L157.93 139.544C157.61 139.692 157.274 139.833 156.954 139.981L161.274 142.478L162.141 141.978V141.97Z" fill="white"/>
<path d="M162.157 142.985L197.127 163.143L197.995 162.636L163.024 142.478L162.157 142.985Z" fill="white"/>
<path d="M198.01 163.651L232.973 183.81L233.84 183.31L198.877 163.151L198.01 163.651Z" fill="white"/>
<path d="M448.938 307.306L413.967 287.147L413.1 287.646L448.071 307.805L448.938 307.306Z" fill="white"/>
<path d="M269.702 204.982L304.672 225.141L305.539 224.642L270.569 204.483L269.702 204.982Z" fill="white"/>
<path d="M233.856 184.316L268.827 204.475L269.694 203.976L234.724 183.817L233.856 184.316Z" fill="white"/>
<path d="M481.588 288.481L446.625 268.322L445.758 268.822L480.721 288.98L481.588 288.481Z" fill="white"/>
<path d="M266.514 165.492L301.477 185.651L302.344 185.143L267.381 164.985L266.514 165.492Z" fill="white"/>
<path d="M230.66 144.818L265.631 164.977L266.498 164.477L231.527 144.319L230.66 144.818Z" fill="white"/>
<path d="M302.359 186.158L337.33 206.317L338.197 205.817L303.227 185.658L302.359 186.158Z" fill="white"/>
<path d="M481.604 289.487L485.862 291.945C486.049 291.719 486.237 291.492 486.424 291.266L482.471 288.988L481.604 289.487Z" fill="white"/>
<path d="M409.896 247.149L374.926 226.99L374.059 227.49L409.029 247.648L409.896 247.149Z" fill="white"/>
<path d="M445.743 267.815L410.772 247.656L409.905 248.156L444.875 268.314L445.743 267.815Z" fill="white"/>
<path d="M230.653 143.811L198.065 125.026C197.674 125.135 197.292 125.244 196.901 125.353L229.785 144.311L230.653 143.811Z" fill="white"/>
<path d="M374.043 226.483L339.08 206.324L338.213 206.823L373.176 226.982L374.043 226.483Z" fill="white"/>
<path d="M263.303 124.987L246.817 115.485C246.341 115.539 245.864 115.602 245.388 115.664L262.428 125.486L263.295 124.987H263.303Z" fill="white"/>
<path d="M299.172 146.659L334.135 166.818L335.002 166.319L300.039 146.16L299.172 146.659Z" fill="white"/>
<path d="M263.319 125.993L298.289 146.152L299.157 145.653L264.186 125.494L263.319 125.993Z" fill="white"/>
<path d="M478.4 248.99L443.43 228.832L442.562 229.331L477.533 249.49L478.4 248.99Z" fill="white"/>
<path d="M442.547 228.324L407.584 208.165L406.717 208.665L441.68 228.823L442.547 228.324Z" fill="white"/>
<path d="M406.701 207.658L371.731 187.5L370.863 187.999L405.834 208.158L406.701 207.658Z" fill="white"/>
<path d="M478.416 249.997L502.69 263.992C502.792 263.719 502.886 263.438 502.987 263.165L479.283 249.497L478.416 249.997Z" fill="white"/>
<path d="M335.018 167.333L369.988 187.484L370.855 186.985L335.885 166.826L335.018 167.333Z" fill="white"/>
<path d="M367.675 148.5L402.638 168.659L403.505 168.16L368.543 148.001L367.675 148.5Z" fill="white"/>
<path d="M475.205 209.492L440.242 189.333L439.375 189.84L474.338 209.999L475.205 209.492Z" fill="white"/>
<path d="M331.822 127.834L366.792 147.993L367.66 147.494L332.689 127.335L331.822 127.834Z" fill="white"/>
<path d="M331.806 126.828L308.25 113.246C307.625 113.215 307 113.191 306.375 113.168L330.939 127.327L331.806 126.828Z" fill="white"/>
<path d="M439.359 188.826L404.388 168.667L403.521 169.166L438.492 189.325L439.359 188.826Z" fill="white"/>
<path d="M475.22 210.506L507.027 228.839C506.98 228.48 506.933 228.121 506.886 227.755L476.095 209.999L475.228 210.498L475.22 210.506Z" fill="white"/>
<path d="M130.374 161.31L162.165 142.984L163.032 142.485L188.268 127.936C186.939 128.357 185.611 128.77 184.299 129.207L162.149 141.978L161.282 142.477L129.491 160.803L128.624 161.302L105.537 174.611C104.771 175.376 104.021 176.148 103.287 176.928L129.507 161.809L130.374 161.31Z" fill="white"/>
<path d="M100.904 219.626L132.694 201.3L133.562 200.801L165.352 182.475L166.22 181.976L198.01 163.651L198.878 163.151L230.668 144.826L231.535 144.326L263.326 126.001L264.193 125.502L286.07 112.895C285.468 112.902 284.866 112.902 284.273 112.918L263.318 125.002L262.451 125.502L230.66 143.827L229.793 144.326L198.002 162.652L197.135 163.151L165.344 181.477L164.477 181.976L132.687 200.302L131.819 200.801L100.029 219.126L99.1613 219.626L77.3008 232.225C77.2852 232.576 77.2539 232.927 77.2383 233.278L100.036 220.133L100.904 219.634V219.626Z" fill="white"/>
<path d="M104.099 259.116L135.89 240.791L136.757 240.292L168.548 221.966L169.415 221.467L201.206 203.141L202.073 202.642L233.864 184.316L234.731 183.817L266.522 165.492L267.389 164.992L299.18 146.667L300.047 146.167L331.838 127.842L332.705 127.343L349.729 117.528C349.268 117.45 348.807 117.38 348.346 117.31L331.822 126.836L330.955 127.335L299.164 145.66L298.297 146.16L266.506 164.485L265.639 164.985L233.848 183.31L232.981 183.809L201.19 202.135L200.323 202.634L168.532 220.96L167.665 221.459L135.874 239.785L135.007 240.284L103.216 258.609L102.349 259.109L84.9185 269.157C85.0435 269.422 85.1841 269.68 85.3091 269.945L103.232 259.616L104.099 259.116Z" fill="white"/>
<path d="M139.077 280.289L139.945 279.79L171.735 261.465L172.603 260.965L204.393 242.64L205.261 242.141L237.051 223.815L237.919 223.316L269.709 204.99L270.577 204.491L302.367 186.165L303.235 185.666L335.025 167.341L335.892 166.841L367.683 148.516L368.55 148.016L400.06 129.847C399.685 129.722 399.302 129.605 398.927 129.48L367.668 147.502L366.8 148.001L335.01 166.326L334.142 166.826L302.352 185.151L301.484 185.65L269.694 203.976L268.826 204.475L237.036 222.801L236.168 223.3L204.378 241.626L203.511 242.125L171.72 260.45L170.853 260.95L139.062 279.275L138.195 279.775L106.404 298.1L106.044 298.311C106.263 298.529 106.474 298.74 106.685 298.958L107.287 298.615L139.077 280.289Z" fill="white"/>
<path d="M438.538 147.962L437.671 148.461L403.505 168.16L402.638 168.659L370.847 186.985L369.98 187.484L338.189 205.81L337.322 206.309L305.531 224.634L304.664 225.134L272.873 243.459L272.006 243.958L240.215 262.284L239.348 262.783L207.557 281.109L206.69 281.608L174.899 299.934L174.032 300.433L142.241 318.758L141.374 319.258L136.694 321.957C136.983 322.129 137.272 322.3 137.562 322.472L142.257 319.765L143.124 319.266L174.915 300.94L175.782 300.441L207.573 282.115L208.44 281.616L240.231 263.29L241.098 262.791L272.889 244.466L273.756 243.966L305.547 225.641L306.414 225.141L338.205 206.816L339.072 206.317L370.863 187.991L371.73 187.492L403.521 169.166L404.388 168.667L438.554 148.968L439.421 148.469L440.835 147.65C440.538 147.486 440.234 147.322 439.929 147.158L438.538 147.962Z" fill="white"/>
<path d="M438.492 189.325L406.701 207.651L405.834 208.15L374.043 226.475L373.176 226.975L341.385 245.3L340.518 245.8L308.727 264.125L307.86 264.624L276.069 282.95L275.202 283.449L243.411 301.775L242.544 302.274L210.753 320.6L209.886 321.099L178.095 339.424L177.228 339.924L175.814 340.735C176.173 340.868 176.541 340.993 176.9 341.125L178.111 340.431L178.978 339.931L210.769 321.606L211.636 321.107L243.427 302.781L244.294 302.282L276.085 283.956L276.952 283.457L308.743 265.132L309.61 264.632L341.401 246.307L342.268 245.807L374.059 227.482L374.926 226.983L406.717 208.657L407.584 208.158L439.375 189.832L440.242 189.333L473.267 170.29C473.041 170.087 472.806 169.876 472.58 169.673L439.367 188.826L438.5 189.325H438.492Z" fill="white"/>
<path d="M474.337 209.999L442.547 228.324L441.679 228.824L409.889 247.149L409.021 247.648L377.231 265.974L376.363 266.473L344.573 284.799L343.706 285.298L311.915 303.624L311.048 304.123L279.257 322.448L278.39 322.948L246.599 341.273L245.732 341.773L224.059 354.27C224.504 354.356 224.949 354.434 225.387 354.52L246.614 342.28L247.482 341.78L279.272 323.455L280.14 322.956L311.93 304.63L312.798 304.131L344.588 285.805L345.456 285.306L377.246 266.98L378.114 266.481L409.904 248.156L410.772 247.656L442.562 229.331L443.43 228.831L475.22 210.506L476.087 210.007L496.487 198.25C496.339 198 496.19 197.743 496.042 197.493L475.212 209.5L474.345 209.999H474.337Z" fill="white"/>
<path d="M477.533 249.489L445.742 267.815L444.875 268.314L413.084 286.64L412.217 287.139L380.426 305.465L379.559 305.964L347.768 324.289L346.901 324.789L315.11 343.114L314.243 343.614L284.437 360.8C285.007 360.816 285.577 360.816 286.155 360.824L315.126 344.121L315.993 343.621L347.784 325.296L348.651 324.797L380.442 306.471L381.309 305.972L413.1 287.646L413.967 287.147L445.758 268.821L446.625 268.322L478.416 249.997L479.283 249.497L507.425 233.27C507.401 232.943 507.386 232.615 507.362 232.295L478.4 248.99L477.533 249.489Z" fill="white"/>
<path d="M480.721 288.98L448.93 307.306L448.063 307.805L416.272 326.131L415.405 326.63L383.614 344.956L382.747 345.455L369.871 352.882C370.809 352.679 371.754 352.484 372.692 352.273L383.637 345.962L384.505 345.463L416.295 327.137L417.163 326.638L448.953 308.312L449.821 307.813L481.611 289.487L482.479 288.988L492.588 283.16C492.971 282.607 493.346 282.053 493.706 281.499L481.596 288.481L480.728 288.98H480.721Z" fill="white"/>
<g clip-path="url(#clip0_553_9065)">
<path d="M358.274 120.964C332.278 106.306 306.881 81.3066 285.58 49.4512L285.297 49.2852C263.997 56.6224 238.6 52.3894 212.603 37.134L211.604 36.553L213.003 84.9586C217.932 159.991 243.613 192.643 284.931 262.396L285.93 262.977C327.248 240.783 352.928 237.679 357.858 168.324L359.257 121.528L358.258 120.964H358.274Z" fill="#545454"/>
<path d="M367.018 113.411C341.021 98.7532 315.624 73.7536 294.324 41.8982L294.041 41.7322C272.74 49.0694 247.343 44.8364 221.347 29.581L220.347 29L211.887 36.719L212.603 37.134C238.6 52.3894 263.997 56.639 285.297 49.2852L285.58 49.4512C306.881 81.3066 332.278 106.306 358.274 120.964L359.274 121.528L357.875 168.324C354.661 213.592 342.603 230.624 323.118 243.19C347.449 228.864 362.987 211.666 366.601 160.787L368 113.992L367.001 113.428L367.018 113.411Z" fill="#DEDEE0"/>
<path d="M368 113.975L367.001 113.411C341.004 98.7532 315.607 73.7536 294.307 41.8982L294.024 41.7322L285.28 49.2852L285.563 49.4512C306.864 81.3066 332.261 106.306 358.257 120.964L359.257 121.528L368 113.975Z" fill="#DEDEE0"/>
<path d="M359.274 121.528L357.875 168.324C354.661 213.592 342.603 230.624 323.118 243.19C347.449 228.864 362.987 211.666 366.601 160.787L368 113.992L359.257 121.545L359.274 121.528Z" fill="#ADA2E5"/>
<path d="M359.274 121.528L357.875 168.324C354.661 213.592 342.603 230.624 323.118 243.19C347.449 228.864 362.987 211.666 366.601 160.787L368 113.992L359.257 121.545L359.274 121.528Z" fill="url(#paint0_linear_553_9065)"/>
<path d="M355.576 122.84C330.162 108.514 305.315 84.0623 284.498 52.9207L284.215 52.7547C263.397 59.9425 238.55 55.7925 213.136 40.8691L212.17 40.3047L203.893 47.8411L204.593 48.2561C230.006 63.1795 254.854 67.3295 275.671 60.1417L275.954 60.3077C296.771 91.4493 321.619 115.901 347.033 130.227L347.999 130.775L346.633 176.524C343.486 220.78 331.695 237.446 312.659 249.714C336.458 235.703 351.646 218.887 355.176 169.137L356.542 123.388L355.576 122.84Z" fill="#7B65AB"/>
<path d="M355.576 122.84C330.162 108.514 305.315 84.0623 284.498 52.9207L284.215 52.7547C263.397 59.9425 238.55 55.7925 213.136 40.8691L212.17 40.3047L203.893 47.8411L204.593 48.2561C230.006 63.1795 254.854 67.3295 275.671 60.1417L275.954 60.3077C296.771 91.4493 321.619 115.901 347.033 130.227L347.999 130.775L346.633 176.524C343.486 220.78 331.695 237.446 312.659 249.714C336.458 235.703 351.646 218.887 355.176 169.137L356.542 123.388L355.576 122.84Z" fill="url(#paint1_linear_553_9065)"/>
<path d="M356.542 123.388L355.576 122.84C330.162 108.514 305.315 84.0622 284.497 52.9206L284.214 52.7546L275.671 60.1416L275.954 60.3076C296.771 91.4492 321.619 115.901 347.033 130.227L347.998 130.775L356.542 123.388Z" fill="#7B65AB"/>
<path d="M356.542 123.388L355.576 122.84C330.162 108.514 305.315 84.0622 284.497 52.9206L284.214 52.7546L275.671 60.1416L275.954 60.3076C296.771 91.4492 321.619 115.901 347.033 130.227L347.998 130.775L356.542 123.388Z" fill="url(#paint2_linear_553_9065)"/>
<path d="M347.999 130.775L346.633 176.524C343.485 220.78 331.695 237.446 312.659 249.714C336.458 235.703 351.646 218.887 355.176 169.137L356.542 123.388L347.999 130.775Z" fill="#7B65AB"/>
<path d="M347.999 130.775L346.633 176.524C343.485 220.78 331.695 237.446 312.659 249.714C336.458 235.703 351.646 218.887 355.176 169.137L356.542 123.388L347.999 130.775Z" fill="url(#paint3_linear_553_9065)"/>
<path d="M341.67 135.987C315.674 121.329 290.277 96.3295 268.976 64.4741L268.693 64.3081C247.393 71.6453 221.996 67.4123 195.999 52.1569L195 51.5759L196.399 99.9815C201.328 175.014 227.009 207.666 268.327 277.419L269.326 278C310.644 255.806 336.324 252.702 341.254 183.347L342.653 136.551L341.654 135.987H341.67Z" fill="url(#paint4_linear_553_9065)"/>
<path d="M350.414 128.451C324.417 113.793 299.02 88.7932 277.72 56.9378L277.437 56.7718C256.136 64.1089 230.739 59.8759 204.743 44.6205L203.743 44.0396L195.283 51.742L195.999 52.1569C221.996 67.4123 247.393 71.662 268.693 64.3082L268.976 64.4742C290.277 96.3296 315.674 121.329 341.67 135.987L342.67 136.551L341.271 183.347C338.057 228.615 325.999 245.663 306.514 258.213C330.845 243.887 346.383 226.689 349.997 175.81L351.396 129.015L350.397 128.451H350.414Z" fill="#DEDEE0"/>
<path d="M351.396 128.998L350.397 128.434C324.4 113.776 299.003 88.7765 277.703 56.9211L277.42 56.7551L268.677 64.3081L268.96 64.4741C290.26 96.3295 315.657 121.329 341.654 135.987L342.653 136.551L351.396 128.998Z" fill="#DEDEE0"/>
<path d="M342.67 136.551L341.271 183.347C338.057 228.615 325.999 245.663 306.514 258.213C330.845 243.887 346.383 226.689 349.997 175.81L351.396 129.015L342.653 136.568L342.67 136.551Z" fill="url(#paint5_linear_553_9065)"/>
<path d="M263.697 245.663C231.622 192.626 215.484 165.95 211.587 107.734L210.705 77.1731C231.305 86.4525 251.04 89.4073 268.826 85.8881C286.613 109.892 306.348 129.646 326.948 144.071L326.066 173.603C322.169 227.337 306.048 235.454 273.956 251.573C272.274 252.419 270.575 253.283 268.826 254.162C267.078 251.274 265.362 248.435 263.68 245.663H263.697Z" fill="url(#paint6_linear_553_9065)"/>
<path d="M265.479 244.783C233.404 191.746 217.266 165.07 213.369 106.854L212.537 77.9865C211.92 77.7209 211.321 77.4719 210.705 77.1897L211.587 107.75C215.484 165.966 231.605 192.643 263.697 245.68C265.379 248.452 267.094 251.29 268.843 254.179C269.443 253.88 270.026 253.581 270.625 253.283C268.876 250.394 267.161 247.556 265.496 244.783H265.479Z" fill="url(#paint7_linear_553_9065)"/>
<g clip-path="url(#clip1_553_9065)">
<path fill-rule="evenodd" clip-rule="evenodd" d="M263.761 152.896L255.442 146.709L246 154.748L255.288 160.11L264.691 165.539L266.191 162.36L263.761 152.896Z" fill="#F5F5F5"/>
<path fill-rule="evenodd" clip-rule="evenodd" d="M262.075 141.062L264.239 150.084L270.469 153.286L271.774 150.516L274.746 144.211L273.083 137.61L268.706 135.417L262.075 141.062Z" fill="#EBEBEB"/>
<path fill-rule="evenodd" clip-rule="evenodd" d="M277.786 130.872L275.339 129.77L268.706 135.417L271.41 139.354L274.746 144.211L279.023 135.136L277.786 130.872Z" fill="#BFBFBF"/>
<path fill-rule="evenodd" clip-rule="evenodd" d="M285.718 120.932L275.338 129.77L276.989 132.173L279.023 135.136L285.718 120.932Z" fill="#EFEFEF"/>
<path fill-rule="evenodd" clip-rule="evenodd" d="M270.528 153.158L273.205 164.019L281.602 168.956L289.518 161.995L281.21 156.62L271.774 150.516L270.528 153.158Z" fill="#F5F5F5"/>
<path fill-rule="evenodd" clip-rule="evenodd" d="M269.852 170.478L274.936 174.819L281.602 168.956L276.872 162.206L270.528 153.158L270.469 153.286L265.832 146.533L262.075 141.062L255.442 146.709L260.255 153.715L266.191 162.36L266.199 162.354L269.852 170.478Z" fill="#CBCBCB"/>
<path fill-rule="evenodd" clip-rule="evenodd" d="M271.207 169.5L266.195 162.349L266.191 162.36L264.691 165.539L261.862 171.543L263.948 178.174L268.269 180.684L274.936 174.82L271.207 169.5Z" fill="#EBEBEB"/>
<path fill-rule="evenodd" clip-rule="evenodd" d="M265.542 176.792L261.862 171.543L257.529 180.734L258.921 185.7L261.603 186.547L268.269 180.684L265.542 176.792Z" fill="#BFBFBF"/>
<path fill-rule="evenodd" clip-rule="evenodd" d="M259.878 184.086L257.529 180.734L249.965 196.782L250.124 196.641L261.603 186.548L259.878 184.086Z" fill="#EFEFEF"/>
</g>
</g>
<defs>
<linearGradient id="paint0_linear_553_9065" x1="345.559" y1="113.992" x2="345.559" y2="243.19" gradientUnits="userSpaceOnUse">
<stop stop-color="#7A7A7A"/>
<stop offset="1" stop-color="#171717"/>
</linearGradient>
<linearGradient id="paint1_linear_553_9065" x1="280.218" y1="40.3047" x2="280.218" y2="249.714" gradientUnits="userSpaceOnUse">
<stop stop-color="#7A7A7A"/>
<stop offset="1" stop-color="#171717"/>
</linearGradient>
<linearGradient id="paint2_linear_553_9065" x1="316.106" y1="52.7546" x2="316.106" y2="130.775" gradientUnits="userSpaceOnUse">
<stop stop-color="#7A7A7A"/>
<stop offset="1" stop-color="#171717"/>
</linearGradient>
<linearGradient id="paint3_linear_553_9065" x1="334.601" y1="123.388" x2="334.601" y2="249.714" gradientUnits="userSpaceOnUse">
<stop stop-color="#7A7A7A"/>
<stop offset="1" stop-color="#171717"/>
</linearGradient>
<linearGradient id="paint4_linear_553_9065" x1="268.826" y1="51.5759" x2="268.826" y2="278" gradientUnits="userSpaceOnUse">
<stop stop-color="#7A7A7A"/>
<stop offset="1" stop-color="#171717"/>
</linearGradient>
<linearGradient id="paint5_linear_553_9065" x1="328.955" y1="129.015" x2="328.955" y2="258.213" gradientUnits="userSpaceOnUse">
<stop stop-color="#EAE9EC"/>
<stop offset="1" stop-color="#262626"/>
</linearGradient>
<linearGradient id="paint6_linear_553_9065" x1="268.826" y1="77.1731" x2="268.826" y2="254.162" gradientUnits="userSpaceOnUse">
<stop stop-color="#FF6069"/>
<stop offset="1" stop-color="#E30613"/>
</linearGradient>
<linearGradient id="paint7_linear_553_9065" x1="240.665" y1="77.1897" x2="240.665" y2="254.179" gradientUnits="userSpaceOnUse">
<stop stop-color="#E30613"/>
<stop offset="1" stop-color="#FF6069"/>
</linearGradient>
<clipPath id="clip0_553_9065">
<rect width="173" height="249" fill="white" transform="translate(195 29)"/>
</clipPath>
<clipPath id="clip1_553_9065">
<rect width="50.2498" height="96.4931" fill="white" transform="matrix(0.866025 0.5 -2.20305e-08 1 246 98)"/>
</clipPath>
</defs>
</svg>
