<svg width="593" height="350" viewBox="0 0 593 350" fill="none" xmlns="http://www.w3.org/2000/svg">
<rect width="593" height="440" transform="translate(0 -45)" fill="white"/>
<path d="M249.193 360.471C249.107 360.471 249.022 360.452 248.949 360.406L162.062 310.893C161.91 310.808 161.812 310.643 161.812 310.466C161.812 310.289 161.904 310.124 162.062 310.039L236.226 267.533C236.463 267.395 236.765 267.48 236.897 267.717C237.035 267.954 236.95 268.256 236.713 268.387L163.299 310.459L249.193 359.406L300.726 329.317C300.878 329.231 301.069 329.225 301.22 329.317L322.475 341.443L365.234 317.045C365.471 316.914 365.774 316.993 365.905 317.229C366.044 317.466 365.958 317.768 365.721 317.9L322.718 342.436C322.567 342.521 322.383 342.521 322.231 342.436L300.977 330.309L249.443 360.399C249.364 360.445 249.278 360.465 249.193 360.465V360.471Z" fill="#E7E9EB"/>
<path d="M434.355 316.96C434.27 316.96 434.178 316.934 434.099 316.888L359.935 272.193C359.704 272.055 359.625 271.746 359.77 271.516C359.908 271.286 360.218 271.208 360.448 271.352L434.612 316.047C434.842 316.185 434.921 316.494 434.777 316.724C434.684 316.875 434.52 316.96 434.355 316.96Z" fill="#E7E9EB"/>
<path d="M452.918 259.43C452.833 259.43 452.747 259.41 452.675 259.364L431.17 247.093C430.933 246.955 430.854 246.659 430.986 246.423C431.124 246.186 431.42 246.107 431.657 246.238L452.912 258.365L537.068 208.551L502.26 188.813C502.109 188.727 502.01 188.563 502.01 188.385C502.01 188.208 502.102 188.044 502.253 187.958L544.519 162.982L512.357 144.999C512.12 144.867 512.035 144.565 512.167 144.328C512.298 144.092 512.601 144.006 512.838 144.138L545.75 162.542C545.901 162.627 546 162.791 546 162.969C546 163.146 545.908 163.311 545.757 163.396L503.484 188.379L538.285 208.117C538.437 208.202 538.536 208.366 538.536 208.544C538.536 208.721 538.443 208.886 538.292 208.971L453.162 259.364C453.083 259.41 452.997 259.43 452.912 259.43H452.918Z" fill="#E7E9EB"/>
<path d="M371.983 317.186C371.996 314.797 368.65 312.843 364.509 312.821C360.368 312.798 357.001 314.716 356.988 317.105C356.975 319.493 360.321 321.448 364.462 321.47C368.603 321.493 371.97 319.574 371.983 317.186Z" fill="#E7E9EB"/>
<path d="M74.6472 228.196C71.7246 229.879 66.9787 229.872 64.043 228.176C61.1072 226.481 61.0875 223.746 64.0101 222.064C66.9326 220.381 71.6786 220.388 74.6143 222.083C77.5501 223.779 77.5698 226.513 74.6472 228.196Z" fill="#E7E9EB"/>
<path d="M474.668 41.7933C474.681 39.4048 471.335 37.4504 467.195 37.4281C463.054 37.4057 459.687 39.3238 459.674 41.7123C459.661 44.1008 463.007 46.0552 467.148 46.0776C471.288 46.1 474.655 44.1818 474.668 41.7933Z" fill="#E7E9EB"/>
<path d="M200.338 331.88C198.1 333.175 194.453 333.168 192.195 331.867C189.937 330.566 189.931 328.462 192.169 327.174C194.407 325.879 198.054 325.886 200.311 327.187C202.569 328.489 202.576 330.592 200.338 331.88Z" fill="#E7E9EB"/>
<path d="M183.5 287.225C181.262 288.52 177.616 288.514 175.358 287.212C173.1 285.911 173.093 283.807 175.331 282.519C177.569 281.231 181.216 281.231 183.474 282.532C185.732 283.834 185.738 285.937 183.5 287.225Z" fill="#E7E9EB"/>
<path d="M79.9128 160.714C77.6748 162.008 74.0282 162.002 71.7704 160.7C69.5126 159.399 69.506 157.296 71.7441 156.008C73.9821 154.719 77.6287 154.719 79.8865 156.021C82.1443 157.322 82.1508 159.425 79.9128 160.714Z" fill="#E7E9EB"/>
<path d="M132.131 69.5774C129.893 70.8722 126.246 70.8656 123.989 69.5642C121.731 68.2628 121.724 66.1596 123.962 64.8713C126.2 63.5765 129.847 63.5831 132.105 64.8845C134.363 66.1859 134.369 68.2891 132.131 69.5774Z" fill="#E7E9EB"/>
<path d="M480.584 246.54C478.346 247.835 474.699 247.828 472.441 246.527C470.184 245.225 470.177 243.122 472.415 241.834C474.653 240.545 478.3 240.545 480.557 241.847C482.815 243.148 482.822 245.252 480.584 246.54Z" fill="#E7E9EB"/>
<path d="M332.611 25.7175C330.373 27.0123 326.726 27.0057 324.469 25.7043C322.211 24.4029 322.204 22.2997 324.442 21.0114C326.68 19.7232 330.327 19.7232 332.585 21.0246C334.842 22.326 334.849 24.4292 332.611 25.7175Z" fill="#E7E9EB"/>
<path d="M438.686 319.208C435.764 320.89 431.018 320.884 428.082 319.188C425.146 317.492 425.127 314.758 428.049 313.075C430.972 311.393 435.718 311.399 438.653 313.095C441.589 314.791 441.609 317.525 438.686 319.208Z" fill="#E7E9EB"/>
<path d="M518.084 148.514C515.161 150.197 510.415 150.19 507.479 148.495C504.544 146.799 504.524 144.065 507.447 142.382C510.369 140.699 515.115 140.706 518.051 142.402C520.987 144.098 521.006 146.832 518.084 148.514Z" fill="#E7E9EB"/>
<path d="M134.113 312.018L68.1636 274.645L111.397 249.886L69.355 225.554L69.8487 224.699L113.371 249.886L70.158 274.639L134.106 310.881L198.146 273.995L198.64 274.849L134.113 312.018Z" fill="#E7E9EB"/>
<path d="M102.069 206.637L101.826 206.492L46.6719 174.739L99.3442 144.275L73.2384 128.724L116.36 103.32L163.016 130.571L162.516 131.419L116.366 104.464L75.1737 128.73L101.293 144.288L48.6466 174.733L102.076 205.5L121.139 194.681L121.626 195.542L102.069 206.637Z" fill="#E7E9EB"/>
<path d="M424.304 141.916L423.824 141.061L487.923 104.865L444.479 79.889L487.923 55.2414L381.295 -5.97034L296.389 42.7532L318.11 55.2414L317.367 55.6686L231.466 104.964L230.973 104.109L316.129 55.2414L294.407 42.7532L381.295 -7.10742L381.545 -6.9694L489.918 55.2479L446.467 79.8956L489.918 104.872L424.304 141.916Z" fill="#E7E9EB"/>
<path d="M175.99 114.475L110.738 76.9118L154.169 51.942L131.782 39.4539L176.562 14.2344L176.806 14.3724L219.921 38.6915L219.433 39.5525L176.562 15.3649L133.796 39.4473L156.17 51.9289L112.72 76.9118L176.483 113.62L175.99 114.475Z" fill="#E7E9EB"/>
<path d="M507.983 193.016C508.355 124.355 412.107 68.1731 293.008 67.5297C173.908 66.8862 77.0574 122.025 76.6854 190.686C76.3133 259.347 172.561 315.529 291.661 316.173C410.76 316.816 507.611 261.677 507.983 193.016Z" fill="#E7E9EB"/>
<path d="M438.555 103.976L468.681 121.342C467.166 120.094 465.595 118.861 464.001 117.644L439.422 103.477L438.555 103.976Z" fill="white"/>
<path d="M438.538 102.963L421.327 93.0392C419.24 92.1264 417.123 91.2527 414.998 90.3867L437.679 103.462L438.546 102.963H438.538Z" fill="white"/>
<path d="M178.111 294.44L143.14 274.281L142.273 274.781L177.244 294.939L178.111 294.44Z" fill="white"/>
<path d="M105.068 252.328C105.388 252.656 105.724 252.983 106.052 253.311L106.412 253.1L105.068 252.328Z" fill="white"/>
<path d="M178.119 295.447L183.392 298.489C184.705 298.942 186.041 299.347 187.369 299.776L178.986 294.947L178.119 295.447Z" fill="white"/>
<path d="M142.257 273.774L107.287 253.615L106.685 253.958C106.935 254.208 107.177 254.45 107.435 254.7L141.39 274.273L142.257 273.774Z" fill="white"/>
<path d="M246.614 296.282L211.644 276.123L210.776 276.622L245.747 296.781L246.614 296.282Z" fill="white"/>
<path d="M103.232 214.624L138.203 234.783L139.07 234.276L104.099 214.117L103.232 214.624Z" fill="white"/>
<path d="M246.63 297.288L278.374 315.591C278.999 315.614 279.624 315.645 280.249 315.669L247.497 296.789L246.63 297.288Z" fill="white"/>
<path d="M139.078 235.29L174.048 255.449L174.915 254.95L139.945 234.791L139.078 235.29Z" fill="white"/>
<path d="M103.216 213.61L77.6133 198.85C77.6523 199.208 77.6836 199.56 77.7305 199.918L102.349 214.109L103.216 213.61Z" fill="white"/>
<path d="M210.761 275.616L175.798 255.457L174.931 255.956L209.894 276.115L210.761 275.616Z" fill="white"/>
<path d="M135.89 195.79L170.852 215.949L171.72 215.45L136.757 195.291L135.89 195.79Z" fill="white"/>
<path d="M315.133 299.128L339.353 313.093C339.83 313.03 340.306 312.976 340.783 312.913L316.001 298.629L315.133 299.128Z" fill="white"/>
<path d="M100.021 174.118L82.3872 163.953C82.2778 164.226 82.1685 164.491 82.0669 164.764L99.1615 174.618L100.029 174.118H100.021Z" fill="white"/>
<path d="M243.419 256.782L208.456 236.631L207.589 237.13L242.552 257.289L243.419 256.782Z" fill="white"/>
<path d="M315.118 298.122L280.148 277.963L279.28 278.462L314.251 298.621L315.118 298.122Z" fill="white"/>
<path d="M171.735 216.456L206.706 236.615L207.573 236.116L172.603 215.957L171.735 216.456Z" fill="white"/>
<path d="M100.036 175.124L135.007 195.283L135.874 194.784L100.903 174.625L100.036 175.124Z" fill="white"/>
<path d="M279.272 277.456L244.302 257.297L243.435 257.796L278.397 277.955L279.272 277.456Z" fill="white"/>
<path d="M347.776 279.298L312.805 259.139L311.938 259.638L346.909 279.797L347.776 279.298Z" fill="white"/>
<path d="M132.694 156.3L167.665 176.459L168.532 175.96L133.562 155.801L132.694 156.3Z" fill="white"/>
<path d="M132.679 155.293L99.458 136.141C99.2627 136.367 99.0752 136.585 98.8799 136.812L131.803 155.792L132.671 155.293H132.679Z" fill="white"/>
<path d="M311.922 258.624L276.96 238.465L276.092 238.972L311.055 259.123L311.922 258.624Z" fill="white"/>
<path d="M168.54 176.966L203.511 197.125L204.378 196.626L169.415 176.467L168.54 176.966Z" fill="white"/>
<path d="M276.077 237.958L241.107 217.799L240.239 218.298L275.21 238.457L276.077 237.958Z" fill="white"/>
<path d="M383.638 300.97L387.849 303.396C388.24 303.287 388.622 303.178 389.013 303.069L384.505 300.471L383.638 300.97Z" fill="white"/>
<path d="M204.394 197.632L239.356 217.791L240.231 217.292L205.261 197.133L204.394 197.632Z" fill="white"/>
<path d="M383.622 299.964L348.651 279.805L347.784 280.304L382.754 300.463L383.622 299.964Z" fill="white"/>
<path d="M165.353 137.476L200.315 157.635L201.183 157.135L166.22 136.977L165.353 137.476Z" fill="white"/>
<path d="M201.198 158.142L236.168 178.301L237.036 177.801L202.065 157.643L201.198 158.142Z" fill="white"/>
<path d="M237.052 178.808L272.015 198.967L272.882 198.467L237.919 178.309L237.052 178.808Z" fill="white"/>
<path d="M416.295 282.146L427.796 288.777C428.116 288.629 428.452 288.488 428.773 288.34L417.163 281.646L416.295 282.146Z" fill="white"/>
<path d="M344.58 239.799L309.61 219.641L308.743 220.14L343.713 240.299L344.58 239.799Z" fill="white"/>
<path d="M416.279 281.132L381.309 260.973L380.441 261.48L415.412 281.639L416.279 281.132Z" fill="white"/>
<path d="M129.499 116.81L164.47 136.969L165.337 136.469L130.374 116.311L129.499 116.81Z" fill="white"/>
<path d="M129.491 115.803L125.061 113.244C124.803 113.431 124.553 113.619 124.295 113.798L128.632 116.294L129.499 115.795L129.491 115.803Z" fill="white"/>
<path d="M380.426 260.466L345.463 240.307L344.596 240.806L379.558 260.965L380.426 260.466Z" fill="white"/>
<path d="M308.735 219.133L273.764 198.975L272.897 199.474L307.868 219.633L308.735 219.133Z" fill="white"/>
<path d="M448.945 263.312L460.462 269.951C460.719 269.764 460.969 269.576 461.227 269.397L449.813 262.812L448.945 263.312Z" fill="white"/>
<path d="M341.385 200.307L306.422 180.148L305.555 180.648L340.518 200.807L341.385 200.307Z" fill="white"/>
<path d="M377.238 220.973L342.268 200.814L341.4 201.314L376.371 221.473L377.238 220.973Z" fill="white"/>
<path d="M413.084 241.639L378.121 221.48L377.254 221.98L412.217 242.139L413.084 241.639Z" fill="white"/>
<path d="M162.141 96.9712L157.93 94.5449C157.61 94.6931 157.274 94.8336 156.954 94.9818L161.274 97.4783L162.141 96.979V96.9712Z" fill="white"/>
<path d="M162.157 97.9836L197.127 118.143L197.995 117.635L163.024 97.4766L162.157 97.9836Z" fill="white"/>
<path d="M198.01 118.65L232.973 138.809L233.84 138.309L198.877 118.15L198.01 118.65Z" fill="white"/>
<path d="M448.938 262.305L413.967 242.146L413.1 242.646L448.071 262.805L448.938 262.305Z" fill="white"/>
<path d="M269.702 159.982L304.672 180.141L305.539 179.641L270.569 159.482L269.702 159.982Z" fill="white"/>
<path d="M233.856 139.316L268.827 159.475L269.694 158.975L234.724 138.816L233.856 139.316Z" fill="white"/>
<path d="M481.588 243.481L446.625 223.322L445.758 223.822L480.721 243.98L481.588 243.481Z" fill="white"/>
<path d="M266.514 120.491L301.477 140.65L302.344 140.143L267.381 119.984L266.514 120.491Z" fill="white"/>
<path d="M230.66 99.8177L265.631 119.977L266.498 119.477L231.527 99.3184L230.66 99.8177Z" fill="white"/>
<path d="M302.359 141.157L337.33 161.316L338.197 160.817L303.227 140.658L302.359 141.157Z" fill="white"/>
<path d="M481.604 244.488L485.862 246.945C486.049 246.719 486.237 246.493 486.424 246.266L482.471 243.988L481.604 244.488Z" fill="white"/>
<path d="M409.896 202.149L374.926 181.99L374.059 182.49L409.029 202.648L409.896 202.149Z" fill="white"/>
<path d="M445.743 222.815L410.772 202.656L409.905 203.156L444.875 223.314L445.743 222.815Z" fill="white"/>
<path d="M230.653 98.8112L198.065 80.0254C197.674 80.1346 197.292 80.2438 196.901 80.353L229.785 99.3105L230.653 98.8112Z" fill="white"/>
<path d="M374.043 181.483L339.08 161.324L338.213 161.823L373.176 181.982L374.043 181.483Z" fill="white"/>
<path d="M263.303 79.9865L246.817 70.4844C246.341 70.539 245.864 70.6014 245.388 70.6638L262.428 80.4858L263.295 79.9865H263.303Z" fill="white"/>
<path d="M299.172 101.659L334.135 121.818L335.002 121.319L300.039 101.16L299.172 101.659Z" fill="white"/>
<path d="M263.319 80.9934L298.289 101.152L299.157 100.653L264.186 80.4941L263.319 80.9934Z" fill="white"/>
<path d="M478.4 203.991L443.43 183.832L442.562 184.331L477.533 204.49L478.4 203.991Z" fill="white"/>
<path d="M442.547 183.325L407.584 163.166L406.717 163.665L441.68 183.824L442.547 183.325Z" fill="white"/>
<path d="M406.701 162.659L371.731 142.5L370.863 142.999L405.834 163.158L406.701 162.659Z" fill="white"/>
<path d="M478.416 204.997L502.69 218.993C502.792 218.72 502.886 218.439 502.987 218.166L479.283 204.498L478.416 204.997Z" fill="white"/>
<path d="M335.018 122.333L369.988 142.484L370.855 141.985L335.885 121.826L335.018 122.333Z" fill="white"/>
<path d="M367.675 103.499L402.638 123.658L403.505 123.159L368.543 103L367.675 103.499Z" fill="white"/>
<path d="M475.205 164.491L440.242 144.332L439.375 144.839L474.338 164.998L475.205 164.491Z" fill="white"/>
<path d="M331.822 82.8333L366.792 102.992L367.66 102.493L332.689 82.334L331.822 82.8333Z" fill="white"/>
<path d="M331.806 81.8283L308.25 68.246C307.625 68.2148 307 68.1914 306.375 68.168L330.939 82.3275L331.806 81.8283Z" fill="white"/>
<path d="M439.359 143.825L404.388 123.666L403.521 124.165L438.492 144.324L439.359 143.825Z" fill="white"/>
<path d="M475.22 165.505L507.027 183.838C506.98 183.48 506.933 183.121 506.886 182.754L476.095 164.998L475.228 165.497L475.22 165.505Z" fill="white"/>
<path d="M130.374 116.31L162.165 97.9845L163.032 97.4852L188.268 82.9355C186.939 83.3568 185.611 83.7703 184.299 84.2072L162.149 96.9781L161.282 97.4774L129.491 115.803L128.624 116.302L105.537 129.611C104.771 130.376 104.021 131.148 103.287 131.928L129.507 116.809L130.374 116.31Z" fill="white"/>
<path d="M100.904 174.626L132.694 156.3L133.562 155.801L165.352 137.475L166.22 136.976L198.01 118.651L198.878 118.151L230.668 99.8257L231.535 99.3264L263.326 81.0009L264.193 80.5016L286.07 67.8945C285.468 67.9023 284.866 67.9023 284.273 67.9179L263.318 80.0023L262.451 80.5016L230.66 98.8271L229.793 99.3264L198.002 117.652L197.135 118.151L165.344 136.477L164.477 136.976L132.687 155.302L131.819 155.801L100.029 174.126L99.1613 174.626L77.3008 187.225C77.2852 187.576 77.2539 187.927 77.2383 188.278L100.036 175.133L100.904 174.634V174.626Z" fill="white"/>
<path d="M104.099 214.117L135.89 195.791L136.757 195.292L168.548 176.967L169.415 176.467L201.206 158.142L202.073 157.642L233.864 139.317L234.731 138.818L266.522 120.492L267.389 119.993L299.18 101.667L300.047 101.168L331.838 82.8425L332.705 82.3432L349.729 72.529C349.268 72.451 348.807 72.3808 348.346 72.3105L331.822 81.8361L330.955 82.3354L299.164 100.661L298.297 101.16L266.506 119.486L265.639 119.985L233.848 138.311L232.981 138.81L201.19 157.135L200.323 157.635L168.532 175.96L167.665 176.459L135.874 194.785L135.007 195.284L103.216 213.61L102.349 214.109L84.9185 224.157C85.0435 224.423 85.1841 224.68 85.3091 224.945L103.232 214.616L104.099 214.117Z" fill="white"/>
<path d="M139.077 235.29L139.945 234.79L171.735 216.465L172.603 215.966L204.393 197.64L205.261 197.141L237.051 178.815L237.919 178.316L269.709 159.99L270.577 159.491L302.367 141.166L303.235 140.666L335.025 122.341L335.892 121.841L367.683 103.516L368.55 103.017L400.06 84.8471C399.685 84.7223 399.302 84.6053 398.927 84.4805L367.668 102.502L366.8 103.001L335.01 121.327L334.142 121.826L302.352 140.151L301.484 140.651L269.694 158.976L268.826 159.476L237.036 177.801L236.168 178.3L204.378 196.626L203.511 197.125L171.72 215.451L170.853 215.95L139.062 234.276L138.195 234.775L106.404 253.1L106.044 253.311C106.263 253.529 106.474 253.74 106.685 253.958L107.287 253.615L139.077 235.29Z" fill="white"/>
<path d="M438.538 102.962L437.671 103.461L403.505 123.16L402.638 123.659L370.847 141.984L369.98 142.484L338.189 160.809L337.322 161.309L305.531 179.634L304.664 180.133L272.873 198.459L272.006 198.958L240.215 217.284L239.348 217.783L207.557 236.109L206.69 236.608L174.899 254.933L174.032 255.433L142.241 273.758L141.374 274.257L136.694 276.957C136.983 277.128 137.272 277.3 137.562 277.472L142.257 274.765L143.124 274.265L174.915 255.94L175.782 255.44L207.573 237.115L208.44 236.616L240.231 218.29L241.098 217.791L272.889 199.465L273.756 198.966L305.547 180.64L306.414 180.141L338.205 161.816L339.072 161.316L370.863 142.991L371.73 142.492L403.521 124.166L404.388 123.667L438.554 103.968L439.421 103.469L440.835 102.65C440.538 102.486 440.234 102.322 439.929 102.158L438.538 102.962Z" fill="white"/>
<path d="M438.492 144.326L406.701 162.651L405.834 163.15L374.043 181.476L373.176 181.975L341.385 200.301L340.518 200.8L308.727 219.126L307.86 219.625L276.069 237.95L275.202 238.45L243.411 256.775L242.544 257.275L210.753 275.6L209.886 276.099L178.095 294.425L177.228 294.924L175.814 295.736C176.173 295.868 176.541 295.993 176.9 296.126L178.111 295.431L178.978 294.932L210.769 276.606L211.636 276.107L243.427 257.782L244.294 257.282L276.085 238.957L276.952 238.458L308.743 220.132L309.61 219.633L341.401 201.307L342.268 200.808L374.059 182.482L374.926 181.983L406.717 163.658L407.584 163.158L439.375 144.833L440.242 144.333L473.267 125.29C473.041 125.087 472.806 124.877 472.58 124.674L439.367 143.826L438.5 144.326H438.492Z" fill="white"/>
<path d="M474.337 164.998L442.547 183.323L441.679 183.823L409.889 202.148L409.021 202.648L377.231 220.973L376.363 221.472L344.573 239.798L343.706 240.297L311.915 258.623L311.048 259.122L279.257 277.448L278.39 277.947L246.599 296.272L245.732 296.772L224.059 309.269C224.504 309.355 224.949 309.433 225.387 309.519L246.614 297.279L247.482 296.779L279.272 278.454L280.14 277.955L311.93 259.629L312.798 259.13L344.588 240.804L345.456 240.305L377.246 221.979L378.114 221.48L409.904 203.155L410.772 202.655L442.562 184.33L443.43 183.83L475.22 165.505L476.087 165.006L496.487 153.249C496.339 152.999 496.19 152.742 496.042 152.492L475.212 164.499L474.345 164.998H474.337Z" fill="white"/>
<path d="M477.533 204.489L445.742 222.815L444.875 223.314L413.084 241.64L412.217 242.139L380.426 260.464L379.559 260.964L347.768 279.289L346.901 279.789L315.11 298.114L314.243 298.613L284.437 315.8C285.007 315.815 285.577 315.815 286.155 315.823L315.126 299.12L315.993 298.621L347.784 280.296L348.651 279.796L380.442 261.471L381.309 260.972L413.1 242.646L413.967 242.147L445.758 223.821L446.625 223.322L478.416 204.996L479.283 204.497L507.425 188.27C507.401 187.942 507.386 187.615 507.362 187.295L478.4 203.99L477.533 204.489Z" fill="white"/>
<path d="M480.721 243.98L448.93 262.305L448.063 262.804L416.272 281.13L415.405 281.629L383.614 299.955L382.747 300.454L369.871 307.881C370.809 307.678 371.754 307.483 372.692 307.273L383.637 300.961L384.505 300.462L416.295 282.136L417.163 281.637L448.953 263.312L449.821 262.812L481.611 244.487L482.479 243.987L492.588 238.16C492.971 237.606 493.346 237.052 493.706 236.498L481.596 243.48L480.728 243.98H480.721Z" fill="white"/>
<g clip-path="url(#clip0_591_9937)">
<path d="M364.431 147.648L353.127 141.044C359.28 137.483 361.569 131.28 358.25 127.26L369.554 133.864C372.874 137.885 370.584 144.087 364.431 147.648Z" fill="#1B232B"/>
<path d="M216.902 233.107L205.597 226.502L353.127 141.043L364.431 147.648L216.902 233.107Z" fill="#1A232A"/>
<path d="M211.521 234.14L200.217 227.536C201.333 228.196 203.165 227.909 205.597 226.502L216.902 233.107C214.469 234.514 212.637 234.801 211.521 234.14Z" fill="#1B232B"/>
<path d="M211.521 234.142L200.217 227.537C198.529 226.532 198.471 223.373 200.446 218.635L211.75 225.24C209.776 229.978 209.833 233.136 211.521 234.142Z" fill="#133953"/>
<path d="M205.197 245.082L193.892 238.477C193.034 237.96 192.261 237.243 191.66 236.324C189.084 232.389 189.514 225.555 192.919 217.457L204.224 224.062C200.847 232.16 200.389 238.994 202.964 242.928C203.565 243.847 204.338 244.565 205.197 245.082Z" fill="#1B232B"/>
<path d="M369.554 133.835L358.25 127.259L284.957 38.2676L296.29 44.8723L369.554 133.835Z" fill="#141B21"/>
<path d="M296.29 44.8733L284.986 38.2686C284.557 37.7517 284.099 37.3497 283.612 37.0625L294.917 43.6672C295.403 43.9544 295.861 44.3564 296.29 44.8733Z" fill="#1B232B"/>
<path d="M290.252 43.8954L278.947 37.2907C280.55 36.3431 282.181 36.2282 283.584 37.061L294.888 43.6657C293.486 42.8329 291.854 42.9765 290.252 43.8954Z" fill="#133953"/>
<path d="M211.75 225.267L200.446 218.663L272.937 45.2168L284.27 51.8215L211.75 225.267Z" fill="#133A54"/>
<path d="M290.252 43.8966C292.427 42.633 294.602 42.8628 296.262 44.8729L369.526 133.864C372.846 137.885 370.556 144.087 364.403 147.648L216.873 233.108C210.749 236.669 208.431 233.108 211.722 225.268L284.271 51.8222C285.902 47.8881 288.077 45.1601 290.28 43.8966H290.252Z" fill="#1D5A83"/>
<path d="M290.252 43.8966C292.427 42.633 294.602 42.8628 296.262 44.8729L369.526 133.864C372.846 137.885 370.556 144.087 364.403 147.648L216.873 233.108C210.749 236.669 208.431 233.108 211.722 225.268L284.271 51.8222C285.902 47.8881 288.077 45.1601 290.28 43.8966H290.252Z" fill="url(#paint0_linear_591_9937)"/>
<path d="M284.27 51.8214L272.966 45.2167C274.597 41.2826 276.772 38.5545 278.976 37.291L290.28 43.8957C288.105 45.1593 285.93 47.916 284.27 51.8214Z" fill="#133953"/>
<path d="M204.224 224.061L192.919 217.456L265.411 44.0391L276.744 50.6151L204.224 224.061Z" fill="#1B242C"/>
<path d="M204.224 224.061L192.919 217.456L265.411 44.0391L276.744 50.6151L204.224 224.061Z" fill="url(#paint1_linear_591_9937)"/>
<path d="M377.052 123.929C380.458 128.093 380.945 134.41 378.397 141.302C375.822 148.251 370.756 154.282 364.489 157.929L216.959 243.388C210.691 247.035 205.597 246.863 202.993 242.929C200.417 238.995 200.847 232.16 204.252 224.062L276.744 50.6163C279.978 42.9203 284.9 36.6889 290.252 33.5876C295.575 30.4862 300.497 31.0031 303.788 34.966L377.052 123.958V123.929ZM364.432 147.62C370.585 144.059 372.874 137.856 369.554 133.836L296.29 44.8731C294.63 42.8629 292.455 42.6332 290.28 43.8967C288.105 45.1602 285.93 47.917 284.27 51.8224L211.75 225.268C208.459 233.108 210.777 236.669 216.902 233.108L364.432 147.648V147.62Z" fill="#26323E"/>
<path d="M377.052 123.929C380.458 128.093 380.945 134.41 378.397 141.302C375.822 148.251 370.756 154.282 364.489 157.929L216.959 243.388C210.691 247.035 205.597 246.863 202.993 242.929C200.417 238.995 200.847 232.16 204.252 224.062L276.744 50.6163C279.978 42.9203 284.9 36.6889 290.252 33.5876C295.575 30.4862 300.497 31.0031 303.788 34.966L377.052 123.958V123.929ZM364.432 147.62C370.585 144.059 372.874 137.856 369.554 133.836L296.29 44.8731C294.63 42.8629 292.455 42.6332 290.28 43.8967C288.105 45.1602 285.93 47.917 284.27 51.8224L211.75 225.268C208.459 233.108 210.777 236.669 216.902 233.108L364.432 147.648V147.62Z" fill="url(#paint2_linear_591_9937)"/>
<path d="M276.743 50.6158L265.439 44.0111C268.673 36.3151 273.595 30.0837 278.947 26.9824C283.04 24.6276 286.874 24.3692 289.908 26.1496L301.212 32.7543C298.179 30.9739 294.315 31.2324 290.251 33.5871C284.9 36.6884 279.977 42.9199 276.743 50.6158Z" fill="#1B232B"/>
<path d="M276.743 50.6158L265.439 44.0111C268.673 36.3151 273.595 30.0837 278.947 26.9824C283.04 24.6276 286.874 24.3692 289.908 26.1496L301.212 32.7543C298.179 30.9739 294.315 31.2324 290.251 33.5871C284.9 36.6884 279.977 42.9199 276.743 50.6158Z" fill="url(#paint3_linear_591_9937)"/>
<path d="M310.571 71.0039L292.884 126.34L310.142 136.218L269.274 196.551L287.704 147.159L270.476 140.698L310.571 71.0039Z" fill="white"/>
</g>
<defs>
<linearGradient id="paint0_linear_591_9937" x1="290.636" y1="43.1152" x2="290.636" y2="234.491" gradientUnits="userSpaceOnUse">
<stop stop-color="#FF6069"/>
<stop offset="1" stop-color="#E30613"/>
</linearGradient>
<linearGradient id="paint1_linear_591_9937" x1="234.832" y1="44.0391" x2="234.832" y2="224.061" gradientUnits="userSpaceOnUse">
<stop stop-color="#7A7A7A"/>
<stop offset="1" stop-color="#171717"/>
</linearGradient>
<linearGradient id="paint2_linear_591_9937" x1="290.672" y1="31.5801" x2="290.672" y2="246.006" gradientUnits="userSpaceOnUse">
<stop stop-color="#7A7A7A"/>
<stop offset="1" stop-color="#171717"/>
</linearGradient>
<linearGradient id="paint3_linear_591_9937" x1="306" y1="13" x2="271" y2="47.5" gradientUnits="userSpaceOnUse">
<stop stop-color="#171717"/>
<stop offset="1" stop-color="#7A7A7A"/>
</linearGradient>
<clipPath id="clip0_591_9937">
<rect width="190" height="221" fill="white" transform="translate(190 25)"/>
</clipPath>
</defs>
</svg>
